<?xml version="1.0" standalone="no"?>
<!DOCTYPE svg PUBLIC "-//W3C//DTD SVG 1.1//EN" "http://www.w3.org/Graphics/SVG/1.1/DTD/svg11.dtd" >
<svg xmlns="http://www.w3.org/2000/svg" xmlns:xlink="http://www.w3.org/1999/xlink" version="1.1">
<metadata>
Created by FontForge 20170731 at Fri Dec 24 22:06:53 2021
 By Aleksey,,,
Copyright (c) 2021 by Aqeela Studio. All rights reserved.
</metadata>
<defs>
<font id="Marcha" horiz-adv-x="858" >
  <font-face 
    font-family="Marcha"
    font-weight="400"
    font-stretch="normal"
    units-per-em="2048"
    panose-1="2 0 5 5 0 0 0 2 0 4"
    ascent="1638"
    descent="-410"
    x-height="694"
    cap-height="1835"
    bbox="-365.4 -870.241 2918.42 2295.52"
    underline-thickness="102"
    underline-position="-409"
    unicode-range="U+0020-2212"
  />
<missing-glyph horiz-adv-x="512" 
 />
    <glyph glyph-name=".notdef" horiz-adv-x="512" 
 />
    <glyph glyph-name=".null" horiz-adv-x="0" 
 />
    <glyph glyph-name="nonmarkingreturn" horiz-adv-x="682" 
 />
    <glyph glyph-name="space" unicode=" " horiz-adv-x="512" 
 />
    <glyph glyph-name="exclam" unicode="!" horiz-adv-x="555" 
d="M264 193q38 0 66 -28.5t28 -66.5t-28 -65t-66 -27t-65 27t-27 65q0 39 27 67t65 28zM213 342q4 221 -10 664t-10 665q1 29 8 47t16 28t34 14.5t44 5.5t63 1q-4 -206 -29.5 -670t-25.5 -712q0 -8 -0.5 -13.5t-1.5 -10t-4 -7.5t-4.5 -5.5t-7 -3.5t-8.5 -2t-12 -1h-14h-17.5
h-20.5z" />
    <glyph glyph-name="quotedbl" unicode="&#x22;" horiz-adv-x="757" 
d="M420 1671q0 21 4 36t9 25t17.5 17t22 10.5t32 5t37 2t46.5 0.5q-2 -107 -19 -307t-20 -239q-3 -38 -19 -50t-65 -12q-2 78 -24 249t-21 263zM154 1671q1 29 8 47t16 28t34 14.5t44 5.5t63 1q-1 -82 -6.5 -169t-16.5 -207.5t-15 -169.5q-2 -38 -17.5 -50t-64.5 -12
q-3 74 -24.5 246.5t-20.5 265.5z" />
    <glyph glyph-name="numbersign" unicode="#" horiz-adv-x="1568" 
d="M1190 1061h250l-2.5 -10t-2.5 -9t-2.5 -6t-5 -4.5t-8.5 -1.5h-235l-80 -387q182 0 274 2q-2 -5 -3.5 -13t-2.5 -11.5t-4.5 -6t-9.5 -2.5h-260l-146 -686q-1 -4 -6.5 -6.5t-16 -3t-19 -1t-22.5 0t-18 0.5l148 696q-334 0 -502 -2l-143 -684q-1 -4 -7 -6.5t-16.5 -3
t-18.5 -1t-22 0t-18 0.5q93 439 145 694h-299q0 2 1 4q4 24 13 26q2 1 5 1q192 0 288 2l80 385h-325q1 3 1.5 7t1 6t1.5 5.5t1.5 4.5l1.5 3t2.5 3t3.5 1.5t5 0.5h313l146 698q1 4 7 6.5t17 3t19.5 1t22 0t16.5 -0.5l-148 -706h502l143 696q1 4 7.5 6.5t17.5 3t20 1t21.5 0
t15.5 -0.5zM1024 643l80 387q-83 0 -250 -1t-250 -1l-82 -385h502z" />
    <glyph glyph-name="dollar" unicode="$" horiz-adv-x="1325" 
d="M1184 516q25 -242 -103.5 -386t-388.5 -144h-20q-141 0 -254 47l-49 -158q-1 -4 -4.5 -6.5t-9.5 -3t-11 -1t-14.5 0t-14.5 0.5l58 190q-68 37 -118 92t-78 116t-38 128.5t-1.5 131t35.5 121.5t69.5 101.5t104 69.5t134.5 27h21q58 0 108 -15l62 195q-231 269 -111 483
q45 65 126.5 81t150.5 -21l57 192q1 4 5 6.5t10.5 3t12 1t15.5 0t14 -0.5q-12 -38 -36 -114.5t-35 -114.5q38 -33 61 -78q20 -45 24.5 -96t-8.5 -103.5t-49.5 -102t-93.5 -85.5q16 -15 56.5 -49.5t61 -52.5t56.5 -54t56 -62t47.5 -67t43 -79t29 -88.5t19.5 -104.5zM680 10
q112 3 191 74t113 183.5t24 246.5q-5 44 -16 84t-32 79t-37.5 66.5t-50.5 66t-50.5 56.5t-58 59.5t-54.5 55.5l-52 -172q135 -63 186.5 -214.5t-14.5 -297.5q-4 -10 -11.5 -10.5t-10.5 6.5q-5 -7 -11 -7t-9.5 6.5t-0.5 14.5q59 132 18.5 270t-157.5 201q-94 -303 -207 -676
q95 -92 240 -92zM401 145l201 654q-56 18 -100 18q-65 -2 -114 -50t-70.5 -124.5t-23 -164t26.5 -177t80 -156.5zM639 1460q-5 -97 12 -161.5t66 -124.5l110 360q-39 26 -79 29t-71 -23.5t-38 -79.5zM868 1499q-2 -7 -112 -366l32 -35q69 46 103.5 112.5t33.5 130t-30 117.5
q-8 18 -27 41z" />
    <glyph glyph-name="percent" unicode="%" horiz-adv-x="1333" 
d="M952 1757q1 4 4.5 6.5t10.5 3t12 1t15 0t14 -0.5q-87 -275 -282 -893.5t-300 -947.5q-1 -4 -4 -6.5t-9.5 -3t-11 -1t-15 0t-15.5 0.5q41 130 581 1841zM375 950q-68 0 -120 41t-77.5 106t-35.5 144t5 158t44 144t82 106t118 41h10q99 0 142 -70t32 -172
q-2 -12 -12.5 -12.5t-9.5 12.5q10 95 -27.5 159.5t-124.5 67.5q-49 -1 -87 -53.5t-57 -131t-22 -170t10.5 -170t48.5 -132t85 -55.5q102 4 162 115t50 222.5t-79 118.5q-10 2 -7 9q3 5 17 4q79 -6 91 -126t-53.5 -238t-176.5 -118h-8zM1124 510q79 -5 91 -124.5t-53.5 -237
t-176.5 -117.5h-8q-68 0 -120 40.5t-77.5 105.5t-35.5 143.5t5 157.5t44 144t82 105.5t118 40.5h11q99 0 142 -69.5t32 -172.5q-1 -8 -7 -11t-11.5 1t-4.5 12q10 94 -27 159.5t-124 68.5q-42 -1 -76.5 -41t-54 -102.5t-30.5 -137.5t-5.5 -150.5t20.5 -138t47.5 -102.5
t75.5 -41q102 3 162 114t50 223t-79 118q-9 2 -7.5 7.5t17.5 4.5z" />
    <glyph glyph-name="ampersand" unicode="&#x26;" horiz-adv-x="1677" 
d="M1356 1247q49 2 89.5 -16.5t62.5 -51.5t29 -72.5t-11 -83t-58 -79.5q-50 -43 -114 -62t-170.5 -28t-134.5 -14q168 -31 253 -168q79 -125 56 -280q-26 -165 -156 -274q-152 -126 -397 -126q-304 0 -480 167q-134 127 -152 308q-18 174 78 315q108 159 316 201q25 5 51 8
q-97 31 -170 85t-113 118.5t-54 137t0 141.5t58 130.5t110.5 105t166.5 63.5t218 8q95 43 191.5 48.5t173.5 -23t129.5 -92.5t60.5 -154q1 -11 -6.5 -16t-16 -0.5t-10.5 16.5q-7 78 -50 135t-107.5 83.5t-146 26.5t-165.5 -30q201 -37 290 -182q72 -117 45 -254
q-27 -128 -126 -200q-91 -64 -213 -55q-99 6 -168.5 47.5t-101 101.5t-36.5 134.5t17.5 145.5t70.5 135t113 104q-93 4 -160 -33t-99.5 -99t-42.5 -141t4.5 -157t48.5 -149t83 -115q32 -25 70 -31q26 -6 33.5 -18.5t5.5 -40.5q-174 5 -272 -139q-87 -127 -82 -312
q6 -189 104 -326q118 -163 317 -170h17q185 -7 287 143q84 122 82 295q-1 162 -78 264q-69 91 -174 91q-70 0 -127 -30.5t-92 -78.5t-51.5 -108t-12 -118.5t33.5 -112t79 -86.5q15 -10 7 -22q-10 -12 -28 -1q-68 46 -100.5 126.5t-26 162.5t56.5 157.5t136 112.5
q73 32 248.5 63.5t205.5 39.5q114 27 159 116q34 68 7 124q-25 53 -86 50q-37 -2 -65.5 -30t-32.5 -78q1 -11 -6.5 -16.5t-15.5 -1.5t-9 18q-3 61 43 102.5t111 44.5zM879 1108q107 -2 161 106q53 103 31 241q-24 150 -122 231q-54 45 -124 59q-70 -36 -121 -98t-76 -131.5
t-23 -142.5t30 -131t91 -95.5t153 -38.5z" />
    <glyph glyph-name="quotesingle" unicode="'" horiz-adv-x="493" 
d="M156 1671q1 29 8 47t16.5 28t34.5 14.5t44 5.5t63 1q-1 -82 -7 -170.5t-17 -205.5t-15 -170q-2 -38 -17.5 -50t-64.5 -12q-3 74 -24.5 246.5t-20.5 265.5z" />
    <glyph glyph-name="parenleft" unicode="(" horiz-adv-x="958" 
d="M860 -88q28 7 28 -9q-1 -15 -21 -23q-1 0 -3 -1q-264 -69 -446 134q-157 175 -213 497q-56 318 8 634q67 330 240 507q172 175 413 151q17 -1 20 -16q3 -16 -14 -17h-6q-182 18 -310 -207q-123 -215 -159 -571q-36 -353 31 -648q68 -302 220 -400q95 -61 212 -31z" />
    <glyph glyph-name="parenright" unicode=")" horiz-adv-x="962" 
d="M94 -88q204 -51 332 163q118 198 139 553q21 345 -59 653q-80 313 -231 431q-86 67 -187 57q-19 -3 -20 12q-2 15 15 20q2 1 5 1q279 28 463 -208q158 -204 206 -544q46 -327 -26 -630q-74 -307 -242 -453q-170 -148 -399 -88q-19 6 -23 21q-3 13 13 14z" />
    <glyph glyph-name="asterisk" unicode="*" horiz-adv-x="1261" 
d="M981 1008q10 -7 -10 -52l-322 283l17 -403q1 -4 -1.5 -7.5t-8 -6.5t-10 -5t-13.5 -5.5t-12 -4.5l-19 430l-264 -272q-9 -9 -13.5 -13t-8 -7.5t-8 -1.5t-7.5 3t-12.5 7t-16.5 10l287 294l-383 -49q-5 -1 -9.5 2.5t-9.5 11t-7.5 12.5t-6.5 15q258 37 428 58l-288 252
q-12 11 -16 14.5t-6 10t-0.5 8.5t6.5 13t9 21l322 -283q-12 254 -16 379q-1 14 -0.5 18.5t0.5 10.5t4 7.5t7 3t13.5 4.5t18.5 6l18 -424l279 288q11 11 51 -14l-289 -301l367 49q13 1 18.5 1h10.5t7 -4t4 -7t5.5 -13t7.5 -18l-426 -55z" />
    <glyph glyph-name="plus" unicode="+" horiz-adv-x="1239" 
d="M647 813h434q-3 -9 -6 -24.5t-5.5 -22t-12.5 -12.5t-27 -6h-383l6 -435q-7 1 -20 2t-19.5 2t-14 4.5t-11 11.5t-4.5 21q0 128 -4 394q-218 -3 -433 -3q30 68 50 68h383l-5 432q68 -30 68 -47z" />
    <glyph glyph-name="comma" unicode="," horiz-adv-x="460" 
d="M219 193q31 0 52 -14t29 -35.5t11.5 -47t-0.5 -49.5q-7 -65 -37 -118.5t-81 -71.5q-13 -3 -18 3.5t-5 20.5l12 4q25 13 44.5 48.5t27.5 78.5q-15 -6 -35 -6q-38 0 -65 27t-27 65q0 39 27 67t65 28z" />
    <glyph glyph-name="hyphen" unicode="-" horiz-adv-x="995" 
d="M203 795q260 2 612 2q-4 -19 -8.5 -44t-6.5 -33.5t-8.5 -19.5t-17.5 -13.5t-31 -2.5q-331 0 -583 -2q0 2 5.5 22.5t8.5 31.5t8 27t10.5 24t10.5 8z" />
    <glyph glyph-name="period" unicode="." horiz-adv-x="516" 
d="M248 193q38 0 66 -28.5t28 -66.5t-28 -65t-66 -27t-65 27t-27 65q0 39 27 67t65 28z" />
    <glyph glyph-name="slash" unicode="/" horiz-adv-x="776" 
d="M655 1757q2 4 6 6.5t11 3t12 1t14.5 0t12.5 -0.5q-336 -1069 -582 -1841q-1 -4 -4 -6.5t-9.5 -3t-11 -1t-14 0t-14.5 0.5q290 912 579 1841z" />
    <glyph glyph-name="zero" unicode="0" horiz-adv-x="1300" 
d="M1006 1120q129 -10 188 -162q61 -157 27 -387q-38 -246 -163 -424q-150 -211 -365 -228q-17 -1 -34 -1q-170 0 -300 102t-193 264.5t-88.5 359t12.5 393.5t110.5 359.5t205 264.5t296.5 102q127 0 220 -49.5t143 -135t68 -192t4 -227.5q-3 -20 -12 -27.5t-15.5 2
t-3.5 29.5q8 90 3 173t-35 155.5t-76 126t-120.5 84.5t-168.5 31q-107 0 -195 -99t-137 -256.5t-76 -348.5t-12.5 -381.5t54 -348t123 -255t193.5 -95.5q215 0 365 205q124 168 163 410q36 222 -19 374q-51 141 -162 152q-13 1 -17.5 9t0.5 15t17 6z" />
    <glyph glyph-name="one" unicode="1" horiz-adv-x="792" 
d="M471 1784q44 0 76 -91.5t48 -245t24.5 -332.5t8.5 -378.5t-2 -357.5t-5 -294.5t-3 -166.5q-15 0 -38 -1t-35.5 -1h-30t-27 1.5t-21.5 4.5t-18 8.5t-11.5 13.5t-7.5 19.5t-1 26.5q2 94 19 449.5t27 678t3 484.5q-3 72 -10 97t-21 25q-25 0 -100.5 -186t-154.5 -399
t-99 -246q-7 -11 -16.5 -10t-13 9t0.5 17q28 40 85 189.5t110 297.5t113.5 268t99.5 120z" />
    <glyph glyph-name="two" unicode="2" horiz-adv-x="1435" 
d="M1292 233q49 -8 62 -62q16 -66 -31 -134q-68 -99 -215 -113l-59 -2q-51 1 -109.5 16.5t-93 30.5t-107 50.5t-96.5 46.5q-79 -61 -177 -102t-185 -40q-66 1 -90 53q-26 55 16 116q63 91 228 114q41 5 87 6q70 0 135 -18q144 187 242.5 459.5t114.5 498.5q9 123 -7.5 230
t-57.5 190.5t-113 131.5t-168 48q-81 2 -149 -27t-114.5 -79t-81.5 -118t-54 -139t-27 -147q-19 -170 18 -245.5t109 -75.5q82 0 142.5 50.5t88 125.5t25.5 159q-1 15 5.5 21.5t14 0.5t8.5 -22q3 -84 -25 -157t-75 -121t-106 -75t-119 -27q-109 0 -182.5 90.5t-69.5 267.5
q2 81 25.5 161t72.5 153.5t117 128t165.5 84t211.5 22.5q175 -1 299.5 -86.5t180.5 -224.5t44 -310q-12 -157 -66 -335.5t-153 -358.5t-223 -307q54 -25 148 -83t136 -79q145 -70 232 7q53 47 58 118q5 59 -27 75q-4 2 -7 3q-15 5 -13 20q1 13 15 10zM283 -45q70 -1 147 41
t139 102q-38 14 -49 17q-182 59 -268 -5q-48 -36 -43 -89q5 -46 47 -61q12 -5 27 -5z" />
    <glyph glyph-name="three" unicode="3" horiz-adv-x="1269" 
d="M776 946q212 -28 328 -189q101 -141 92 -328q-9 -192 -132 -334q-152 -177 -418 -198q-33 -3 -68 -3q-261 0 -397 161q-106 124 -103 299q2 166 100 290q110 140 291 150q8 1 16 1q80 2 139.5 -24t93 -69.5t50.5 -101.5t16.5 -118.5t-14.5 -121.5q-2 -9 -11 -13.5
t-16.5 -1t-5.5 16.5q12 54 13 108.5t-11 106.5t-36.5 92t-68.5 64.5t-102 24.5q-97 1 -169 -87t-91.5 -212.5t-3.5 -248.5t98.5 -208.5t211.5 -79.5q195 -1 316 168q102 142 113 345q12 198 -68 335q-88 151 -249 152h-12q0 31 6.5 43t32.5 18q36 6 67 33q50 49 85 124
t49.5 155.5t6.5 162t-37.5 146t-89.5 105t-143 40.5q-152 0 -240 -140q-73 -117 -70 -271q2 -145 71 -220q47 -50 114 -49q82 1 152 51.5t102.5 130.5t12.5 160q-3 13 6.5 21.5t13.5 -9.5q25 -95 -8.5 -181t-110 -139.5t-174.5 -60.5q-152 -11 -244 102q-81 98 -79 240
q2 155 103 263q123 133 347 135q106 1 192.5 -27t142 -76.5t89 -113t40 -135t-12 -144t-59.5 -138t-110 -118t-157 -84.5z" />
    <glyph glyph-name="four" unicode="4" horiz-adv-x="1347" 
d="M1274 496q14 -3 17 -14t-5 -19.5t-22 -5.5q-82 13 -156 2q0 -109 -1.5 -234t-2.5 -202.5t0 -104.5q-15 0 -38 -1t-35.5 -1h-30t-27 1.5t-21.5 4.5t-18 8.5t-12 13.5t-8.5 19.5t-2.5 26.5q2 96 17 438q-48 -9 -140 -28.5t-126 -26.5q-397 -88 -508 -88q-99 -3 -99 49
q0 50 68.5 177.5t168.5 290.5t202 337t182 354t96 305q2 15 10.5 20t15.5 -1.5t5 -20.5q-14 -119 -69.5 -289.5t-127.5 -340t-144 -329t-129 -295t-71 -198.5q195 15 393 57l273 60q35 872 22 1141q-1 39 13 47t67 8l12 -55q66 -305 66 -1113q119 14 166 7z" />
    <glyph glyph-name="five" unicode="5" horiz-adv-x="1193" 
d="M553 1288q263 8 414 -184q127 -162 139 -412q12 -243 -88 -451q-102 -211 -282 -295q-99 -46 -214 -46q-217 0 -339 150q-99 121 -101 290q-2 165 89 281q104 132 282 135q69 1 123 -26t85 -72.5t47 -102.5t15.5 -116t-14.5 -113q-3 -13 -12 -15.5t-15.5 5t-3.5 18.5
q11 40 12 91t-11 103.5t-34 96.5t-61.5 72.5t-89.5 29.5q-86 1 -147 -81t-76 -199.5t-0.5 -235.5t82 -200.5t169.5 -82.5q140 0 240.5 139t128.5 336.5t11.5 394t-110 331.5t-235.5 128q-81 -2 -146.5 -34.5t-110 -81t-85.5 -121.5h-49q0 2 2 4q4 38 17 234t26.5 357
t21.5 169q42 -2 86.5 0.5t75.5 1.5q62 -1 152 -22t153 -38t125 -11t93 50q11 17 24 10t4 -26q-26 -59 -61 -97.5t-72.5 -56t-84 -20.5t-87.5 5t-92 24.5t-90 33.5t-87.5 37.5t-78.5 30.5q-15 -82 -36.5 -318t-29.5 -290q70 92 146 139.5t180 50.5z" />
    <glyph glyph-name="six" unicode="6" horiz-adv-x="1216" 
d="M1124 588q15 -67 17 -136t-10 -137t-36.5 -130t-66.5 -115t-97 -92.5t-130.5 -61.5t-163.5 -22q-127 0 -225 35t-161.5 96t-102.5 148.5t-53.5 188t-8.5 218.5q4 95 24 203t57.5 223.5t87.5 225t119.5 207.5t149.5 171.5t181 116t210 42.5q74 0 130.5 -36t56.5 -91
q0 -9 -7 -13t-13.5 -1t-6.5 12q-1 43 -49.5 71t-107.5 26q-88 -3 -167 -48t-138 -119t-110.5 -171.5t-84.5 -206.5t-60 -223.5t-38 -222t-17 -202.5t2 -165q14 -206 97 -330t235 -123q69 0 125.5 28.5t94 77.5t63 113t36.5 137.5t11 148.5t-11 149q-39 248 -159 322
q-85 52 -175 -1q-85 -50 -122 -162q-24 -73 -19 -155q1 -15 -6 -21.5t-15 -0.5t-9 22q-12 187 94 297q86 90 211 87q136 -2 239 -114q93 -101 129 -266z" />
    <glyph glyph-name="seven" unicode="7" horiz-adv-x="1155" 
d="M1024 1034q-1 18 10 27t22.5 3t12.5 -24q1 -61 -27.5 -92.5t-76.5 -38.5q-55 -8 -156 17q-29 -210 -32 -479t9 -529q-118 2 -169 17t-52 57q-21 544 84 975q-106 26 -160 26q-56 0 -83.5 -25t-30.5 -87q-1 -15 -11.5 -20.5t-21 0t-10.5 18.5q4 79 45 112t112 33
q52 0 166 -27q86 331 248 668q-248 -106 -369 -141q-433 -127 -475 160q-4 27 -4 59q0 8 7.5 12t15.5 2t8 -10q-6 -230 194 -228q145 2 443 140q31 15 91 44q62 30 89 42t39.5 17t27 7.5t21.5 2t32 -1.5t50 -1q-198 -389 -260 -813q93 -24 148 -18q68 13 63 96z" />
    <glyph glyph-name="eight" unicode="8" horiz-adv-x="1220" 
d="M610 1001q39 -24 102.5 -60.5t101.5 -58.5t90 -58t83 -65.5t65.5 -74t52.5 -91.5t28.5 -109.5t7.5 -135.5q-5 -127 -66.5 -226t-156 -149.5t-207 -73t-224 2t-203 75.5t-148 148.5t-54.5 220.5q2 150 87 305t237 275q-101 78 -158 180t-60 250q-4 200 117 312t324 114
q86 0 162 -23t136 -67t96 -115.5t38 -161.5q3 -216 -205 -446q-8 -9 -17.5 -7t-11 10t6.5 17q199 223 196 426q-2 110 -59.5 188t-145.5 113t-196 35q-68 0 -121 -42.5t-81 -108.5t-32.5 -150.5t15.5 -166t71.5 -158t128.5 -124.5zM948 348q2 79 -20 144.5t-57 108.5
t-91.5 86t-108 71t-122.5 70t-119 77q-147 -114 -230.5 -263t-86.5 -294q-2 -100 41.5 -186.5t115.5 -138t160 -82t177.5 -17t164 56t123.5 138.5t53 229z" />
    <glyph glyph-name="nine" unicode="9" horiz-adv-x="1198" 
d="M557 1769q126 2 225 -31t163.5 -92.5t106 -146t57.5 -186t13 -217.5q-3 -96 -20.5 -204.5t-52 -225t-82.5 -227.5t-115 -210.5t-145.5 -175t-178.5 -120t-209 -46.5q-75 -2 -132 33t-58 90q0 9 6.5 13t13.5 1t7 -12q3 -43 51.5 -69t107.5 -23q79 5 149.5 42.5t124.5 99
t101.5 143.5t80 175t60 194t41 200.5t24 194.5t9 176t-5.5 145q-18 206 -103.5 328.5t-236.5 118.5q-132 -4 -215 -109.5t-98 -253t5 -294t91 -247.5t164 -98q96 3 164.5 104.5t56.5 241.5q-1 15 6 22t15 1.5t10 -21.5q14 -176 -72.5 -282t-218.5 -109q-173 -5 -284 145
q-99 135 -110 334q-12 210 83 370q111 187 324 221q37 6 77 7z" />
    <glyph glyph-name="colon" unicode=":" horiz-adv-x="532" 
d="M258 893q-38 0 -65 28t-27 66t27 65t65 27t66 -27t28 -65t-28 -66t-66 -28zM258 709q38 0 66 -27.5t28 -65.5t-28 -66t-66 -28t-65 28t-27 66t27 65.5t65 27.5z" />
    <glyph glyph-name="semicolon" unicode=";" horiz-adv-x="485" 
d="M244 432q-38 0 -65 27t-27 65t27 65t65 27q40 0 67 -27t27 -65t-27 -65t-67 -27zM242 193q31 0 52 -14t29 -35.5t11.5 -47t-0.5 -49.5q-6 -65 -37 -118t-82 -72q-13 -3 -17.5 3t-4.5 21q8 4 12 4q25 13 44 48.5t27 78.5q-15 -6 -34 -6q-38 0 -65 27t-27 65q0 39 27 67
t65 28z" />
    <glyph glyph-name="less" unicode="&#x3c;" horiz-adv-x="1480" 
d="M190 840q78 27 1102 379q0 -9 1.5 -23.5t1.5 -20.5t-5 -13t-16 -11l-993 -342l1003 -287q12 -4 18.5 -7.5t9.5 -8.5t3 -12v-17v-24l-1120 321q-29 7 -30.5 32t25.5 34z" />
    <glyph glyph-name="equal" unicode="=" horiz-adv-x="1212" 
d="M248 1067q260 2 784 2q-6 -15 -11 -33t-7 -23t-8.5 -11.5t-17 -7.5t-30.5 -1q-503 0 -753 -2q23 76 43 76zM176 545q1 3 5.5 15t8 20.5t8.5 19t10.5 16t10.5 5.5q130 0 392 1t393 1q-5 -14 -10 -31t-7.5 -22t-5.5 -12t-11.5 -8t-18 -2t-31.5 -1q-124 0 -372 -1t-372 -1z
" />
    <glyph glyph-name="greater" unicode="&#x3e;" horiz-adv-x="1503" 
d="M1305 840q27 -9 25.5 -34t-30.5 -32l-1120 -321v24v17t3 12t9.5 8.5t18.5 7.5l1003 287l-993 342q-11 4 -16 11t-5 13t1.5 20.5t1.5 23.5q1024 -352 1102 -379z" />
    <glyph glyph-name="question" unicode="?" horiz-adv-x="1294" 
d="M1141 1352q1 -103 -21 -186.5t-60 -140.5t-88.5 -103.5t-106 -81.5t-111.5 -67.5t-106.5 -68t-89.5 -77.5t-62 -102t-23 -134q0 -41 -12.5 -49.5t-66.5 -10.5q-15 -1 -23 -1q0 206 57 301q30 50 77 94.5t94.5 77t99 68t96 77.5t80.5 94.5t56.5 129t20.5 171.5
q0 75 -19.5 146.5t-57.5 132t-101.5 96.5t-142.5 35q-174 -3 -263 -167q-73 -133 -63 -312q8 -158 74 -241q42 -54 98 -54q85 0 154 93.5t65 232.5q-1 15 6 22t14.5 1.5t8.5 -21.5q5 -87 -21.5 -162t-73 -123t-105 -74.5t-119.5 -25.5q-128 2 -203 124q-73 119 -62 283
q12 182 123 306q134 149 365 149q106 0 196.5 -26.5t161 -78.5t112 -136t42.5 -191zM420 193q39 0 66.5 -28t27.5 -67q0 -38 -27 -65t-67 -27q-38 0 -65 27t-27 65q0 39 27 67t65 28z" />
    <glyph glyph-name="at" unicode="@" horiz-adv-x="1908" 
d="M1667 410q2 11 10.5 14.5t15.5 -2t5 -16.5q-19 -115 -78 -209t-144 -155t-190.5 -93.5t-220.5 -32.5q-200 0 -361.5 64t-260 172t-163.5 248t-72.5 294.5t14.5 309t96 294.5t173 248t244.5 172t311.5 64q354 0 533 -239q135 -181 140 -448q5 -225 -81 -405
q-75 -158 -186 -199q-28 -11 -58 -12q-55 -3 -100.5 18t-75 59.5t-48.5 84t-28 98.5q-81 -215 -238 -215q-108 0 -179.5 70t-85 169.5t7 199t99 169.5t189.5 70q65 0 115 -37.5t79 -99.5q3 21 3 41q1 21 4 35t5.5 25t12.5 17t16 10t25 5t30.5 1t43 -0.5t51.5 -0.5
q1 -29 -6.5 -94.5t-17 -131.5t-12.5 -141.5t3.5 -133t34 -97t76.5 -41.5q103 -5 182 122q85 137 97 343q15 247 -88 435q-132 237 -413 282q-62 10 -130 10q-128 0 -240.5 -61.5t-190.5 -166t-136.5 -240t-77 -285t-13.5 -299t55 -285t127.5 -240t205.5 -166t288 -61.5
q147 0 273 52.5t215 159t114 251.5zM1081 678q33 62 52 133q-7 102 -5 164q-11 48 -26 80q-49 102 -139 98q-55 -1 -92 -61.5t-46.5 -146.5t-3.5 -172t36 -146t73 -60q40 0 81 30t70 81z" />
    <glyph glyph-name="A" unicode="A" horiz-adv-x="2174" 
d="M2097 -35q39 -12 40 -57q0 -49 -43 -82q-34 -25 -81 -25q-70 0 -124.5 26.5t-90.5 67t-61.5 113t-39 138t-20.5 170.5t-8.5 182.5t-1.5 199.5q-40 -8 -156 -36.5t-178 -38.5q-12 -112 -29.5 -200.5t-48.5 -181.5t-82 -167t-120 -125q-152 -108 -373.5 -105.5
t-372.5 105.5q-93 63 -147.5 159.5t-65 198.5t18.5 205t91.5 184t166.5 132t231 51q94 0 166.5 -27.5t113.5 -73t61 -104t16 -120t-29 -121t-67 -106.5t-104.5 -77.5t-135.5 -34.5q-21 0 -21 15.5t21 17.5q66 3 123 32.5t94 74.5t61 101t23.5 112.5t-17.5 109.5
q-28 78 -96 119t-152 43t-158.5 -38.5t-121.5 -125.5q-60 -109 -75.5 -249t25.5 -273t136 -203q99 -70 230.5 -68t234.5 66q62 37 111 96t79.5 122t53.5 145t34.5 148t20.5 148h-45q-117 0 -131 70q-2 14 13.5 23.5t33 5.5t20.5 -23q3 -23 17 -33t47 -10h49q5 46 12.5 124.5
t12.5 128t14 121.5t19 121t25 110t35 105.5t45.5 89.5t60 80.5t75.5 61.5q-56 88 -158.5 137.5t-216.5 46.5q-224 -4 -351 -170q-98 -127 -104 -299q-6 -153 64 -247q61 -83 158 -80q62 2 118 32.5t88.5 78t43.5 105.5t-17 116q-5 10 1.5 18t16.5 7.5t15 -13.5
q29 -92 0 -177t-107 -139.5t-184 -58.5q-200 -7 -310 117q-93 105 -85 257q7 161 125 288q157 167 437 192q44 4 91 4q135 0 263.5 -42.5t211.5 -125.5q44 13 68 17q13 3 19.5 -4t3 -16.5t-16.5 -12.5q-9 -1 -47 -12q118 -140 165 -355t50 -493h8q189 -4 197 -121
q1 -14 -13.5 -20.5t-30.5 -0.5t-18 23q-8 85 -137 88h-6q0 -61 -0.5 -151.5t-0.5 -149t0.5 -135.5t4 -127t9.5 -107.5t17 -93t26.5 -67t38.5 -46t52 -14.5q26 0 46 8t29 20t12.5 25.5t-0.5 25t-13 17.5q-24 17 -19 32q6 8 21 5zM1337 655q57 11 168.5 38.5t161.5 37.5
q0 137 -3 230.5t-13 208.5t-34 207.5t-61 164.5q-45 -39 -79 -100t-53 -121t-34 -153.5t-21.5 -159t-16 -179t-15.5 -174.5z" />
    <glyph glyph-name="B" unicode="B" horiz-adv-x="1998" 
d="M1810 180q94 -136 76 -350q-1 -12 -9 -16t-15.5 1.5t-6.5 16.5q17 186 -61 315q-66 -124 -187.5 -196.5t-258.5 -65.5q-142 7 -199 101q-50 81 -13 178q38 102 147 155q84 41 192 41q104 0 192 -49q11 66 11.5 130t-10 124t-34 107.5t-60.5 81.5t-89.5 45.5t-120.5 -0.5
q-51 -6 -51 9q1 6 6 15q4 6 37 21q57 57 98.5 151t54 203t-5 213.5t-85.5 191t-179 126.5q-32 -58 -44 -163.5t-9.5 -231.5t8.5 -270.5t5 -293t-14.5 -285.5t-55.5 -261.5t-113 -207.5q-94 -111 -247.5 -155t-308.5 -4.5t-245 157.5q-55 73 -83 169t-27.5 192.5t30 191
t81.5 167t134.5 118t181.5 45.5q93 0 168 -38t117.5 -102t60 -141.5t0.5 -162.5t-65 -160q-7 -12 -16.5 -11.5t-12.5 9t2 18.5q49 76 60.5 171t-12.5 177.5t-91 141t-163 63.5q-73 3 -132 -38.5t-93.5 -112t-52 -162t-15 -185.5t24.5 -186t61 -160q45 -76 113 -114
t138.5 -34t138.5 42.5t114 105.5q54 78 84 200.5t38 258.5t8 287t1 298t10 277.5t41.5 240t89.5 171.5q-62 10 -121 10q-239 -2 -378 -179q-102 -131 -116 -305q-12 -148 45 -233q42 -61 107 -61q74 0 135 46.5t86.5 120.5t3.5 148q-3 9 3 16t14.5 5.5t11.5 -10.5
q31 -95 -2.5 -183t-114 -140t-182.5 -48q-147 6 -228 123q-76 110 -57 260q20 171 152 295q187 176 520 176q72 0 154 -10q68 55 168 55q13 1 18 -6.5t0.5 -15.5t-16.5 -9q-51 -3 -86 -41q133 -32 229 -99.5t143 -152t56.5 -182.5t-20 -189.5t-98.5 -173t-169 -134.5
q108 9 194 -15.5t139 -73t86 -115.5t39 -143t-7.5 -155t-47.5 -152zM1153 92q0 -94 76 -143t175 -19q121 36 196 175q41 76 61 176q-82 49 -186 49q-151 0 -235.5 -72t-86.5 -166z" />
    <glyph glyph-name="C" unicode="C" horiz-adv-x="1513" 
d="M1036 799q88 -4 159 -49t112.5 -112.5t58.5 -153.5t5 -170.5t-57 -165t-118 -134.5q-136 -99 -333 -98t-331 100q-93 69 -156 181t-90 245.5t-25 280.5t34 293q-92 70 -142.5 170.5t-54.5 203.5t30 203.5t103 173.5q81 86 204.5 122t246.5 5.5t192 -127.5q56 15 113 15
q112 1 186.5 -42t103.5 -114.5t25 -160t-40 -183.5q-42 -109 -128 -195t-194 -132.5t-232.5 -58t-242.5 29.5q-22 -193 -12.5 -367t64 -321t145.5 -222q85 -69 200.5 -69.5t198.5 71.5q54 48 88 125t45 160t2.5 167.5t-34 151t-70.5 107.5t-101 39q-71 -2 -127 -39
t-87 -94.5t-44 -127t-4 -140.5q1 -9 -6.5 -13.5t-15.5 -2t-9 10.5q-14 112 20 213t117.5 166t200.5 58zM909 1583q-10 78 -41 133q-150 -78 -254.5 -286.5t-144.5 -473.5q86 -37 188.5 -34t202 35.5t174.5 84.5q65 44 118 113.5t85 146.5t38 155.5t-15.5 142t-82.5 106
t-155 47.5q-60 3 -125 -24q33 -62 43 -142q10 -99 -16 -184q-45 -150 -164 -201q-16 -5 -24 -0.5t-5 14t17 15.5q105 41 147 180q24 81 14 172zM414 1765q-71 -81 -112 -199t-39.5 -245t52.5 -221q66 238 202.5 415.5t324.5 241.5q-84 113 -209.5 114.5t-218.5 -106.5z" />
    <glyph glyph-name="D" unicode="D" horiz-adv-x="2084" 
d="M1247 1780q139 -19 251.5 -79.5t186.5 -147.5t127 -196t78.5 -227t36 -238t4 -231.5t-21.5 -205.5t-36.5 -161.5t-45.5 -98.5q98 -141 84 -351q-1 -12 -9 -16t-15.5 1.5t-6.5 16.5q14 186 -68 316q-64 -124 -184.5 -196.5t-257.5 -65.5q-142 7 -201 101q-51 80 -17 177
q35 101 143 155q84 42 194 42q104 0 192 -49q53 194 60.5 392t-28.5 367.5t-104 308.5t-169 230t-219 119q-44 -84 -49 -266.5t12 -378.5q7 -113 9.5 -172.5t5.5 -170t-2 -173.5t-13.5 -160t-29 -155t-49 -132t-72.5 -117t-99.5 -84.5t-131.5 -60.5t-167 -20
q-252 -3 -395 172q-114 140 -122 344q-9 195 82 345q97 160 266 191q33 6 69 6q93 0 168.5 -38t119 -102t62.5 -141.5t3.5 -162.5t-61.5 -160q-7 -12 -16 -11.5t-12 9t2 17.5q48 77 57 172t-17 178t-94.5 141.5t-164.5 63.5q-133 6 -213 -140q-75 -139 -71 -343
q4 -213 93 -354q94 -151 250 -149q106 1 179 54t110.5 144.5t56.5 210.5t21.5 257t0 280t-2.5 283.5t8 262.5t37.5 223t81.5 159q-71 11 -123 11q-238 -2 -373 -178q-99 -130 -110 -305q-9 -148 51 -234q43 -62 108 -62q55 0 104 28t79 73t42 101t-8 112q-3 11 3 18
t14.5 5.5t11.5 -11.5q27 -74 12.5 -142t-54.5 -120t-106.5 -82t-142.5 -27q-148 6 -231 124q-78 110 -62 261q17 170 146 294q183 175 514 175q73 0 155 -10q64 52 168 55q12 1 17 -6t0.5 -15t-17.5 -9q-54 -3 -84 -41zM1358 -37q66 0 136 51.5t119 128t62 152.5
q-87 49 -186 49q-161 0 -249 -96q-65 -71 -55 -154q9 -80 83 -113q39 -18 90 -18z" />
    <glyph glyph-name="E" unicode="E" horiz-adv-x="1589" 
d="M1446 344q6 -106 -26.5 -209.5t-104.5 -185.5q-106 -120 -282.5 -169t-354.5 -6t-279 173q-55 73 -82 165t-25.5 186.5t35 189t92.5 171.5t154 134t213 77q-180 48 -276 168q-106 17 -189 63.5t-130.5 109.5t-71 139t-19 151.5t35 147t81.5 126.5t128.5 88t170.5 33
q196 0 299 -137q86 22 184 19q116 1 194.5 -39t115.5 -111q35 -69 26 -149q-6 -81 -53 -158q-75 -120 -230.5 -201.5t-377.5 -89.5q30 -51 77 -73.5t128 -36.5q10 -1 15 -5t6.5 -11t1 -14t-1.5 -19.5t-1 -20.5q-98 -2 -178 -49t-129 -122.5t-77.5 -171.5t-31 -195t18 -194.5
t63.5 -168.5q49 -82 126.5 -123t158 -37.5t160 45t133.5 115.5q57 78 85.5 180.5t28.5 208.5q1 231 -100 315q-71 60 -162 22q-88 -37 -140 -143q-49 -99 -46 -225q1 -16 -7 -22.5t-16 -1t-8 21.5q-3 101 22.5 181.5t70 130t102.5 77t119.5 28t122 -24t109.5 -70t82 -119
t40 -164.5zM481 1079q-52 87 -56.5 191t34 197.5t123 171t200.5 112.5q-54 67 -135 96t-164.5 8.5t-140.5 -90.5q-45 -57 -70.5 -136t-26 -163t21.5 -161t77.5 -138t136.5 -88zM821 1688q-66 -46 -113.5 -123t-68.5 -162.5t-16.5 -176t36.5 -163.5q219 4 371.5 81t222.5 193
q46 69 52 146q6 71 -25 131q-32 63 -103.5 98.5t-175.5 32.5q-85 0 -153 -41q51 -116 12.5 -235t-145.5 -189q-11 -6 -19 -2t-8 14t10 17q96 60 131.5 167t-8.5 212z" />
    <glyph glyph-name="F" unicode="F" horiz-adv-x="1585" 
d="M1516 1030q1 27 21 33q17 6 23 -14l1 -11q1 -24 -8 -41t-29 -26t-42.5 -13.5t-57.5 -3.5t-64 3.5t-72 7.5q9 -118 10.5 -220t-8 -219t-32 -212.5t-67 -186.5t-108.5 -156q-77 -77 -189 -120t-227 -46.5t-228 38t-187 126.5q-64 73 -99.5 170t-41 195.5t19.5 195.5
t76.5 172t137 121.5t192.5 46.5q91 0 162 -30.5t114 -83t66.5 -121.5t24.5 -145t-16.5 -154t-53.5 -148q-6 -11 -15 -11t-14 8.5t0 19.5q58 110 67 235t-36 226q-29 61 -78.5 105t-108 60t-116.5 8t-109.5 -52.5t-81.5 -120.5q-39 -99 -47.5 -227t18 -255t84.5 -213
q64 -95 168.5 -123t206.5 7t172 116q65 75 104.5 194.5t50.5 251t13.5 281.5t-4.5 287q-49 2 -86 -1.5t-69 -15.5t-50 -38t-20 -64q-3 -27 -21 -30q-17 -2 -22 18q-1 6 0 14q7 45 31 75t62 44.5t79.5 18.5t95.5 2q-6 132 -2.5 252t15 211.5t48.5 148.5t99 63q25 2 67 -20
q29 -15 17 -21q-49 -27 -67 -213.5t1 -439.5q38 -5 60.5 -7.5t53 -4t47.5 0.5t34.5 7.5t25.5 16.5t9 28zM1808 1980q3 -65 -14.5 -110t-54 -70t-84 -35.5t-111.5 -9.5q-78 1 -211 23.5t-251.5 41.5t-244.5 27.5t-232.5 -19.5t-172.5 -97q-42 -44 -69 -118.5t-35 -157
t4.5 -167.5t43.5 -152t88 -109t132 -40q57 2 109.5 31.5t91.5 78.5t56.5 122t4.5 155q-11 75 -48 126.5t-91 58.5q-19 3 -19 18q0 13 13 14h4q92 -11 142 -114q52 -107 29 -240q-26 -149 -134 -224q-75 -53 -179 -57q-104 -6 -188.5 26.5t-137 92t-81 135.5t-29.5 160
q0 77 19.5 143.5t53.5 116t83 90t104.5 68.5t121.5 48.5t129.5 32.5t133.5 19q87 8 194 10.5t199 1t187.5 -3.5t169 -1t131.5 7.5t88 24t27 45.5q-2 17 12 22q13 4 16 -12v-2z" />
    <glyph glyph-name="G" unicode="G" horiz-adv-x="1507" 
d="M1325 752q1 -53 6 -152.5t10 -185t6 -200.5t-4 -213t-21.5 -207t-43.5 -197.5t-74.5 -170.5t-111.5 -139q-80 -70 -193.5 -106.5t-229.5 -34.5t-226.5 48.5t-180.5 133.5q-45 56 -74 125t-40 141t-5.5 146t26 141.5t59 126.5t90 101t121.5 65t151 19q91 -4 160.5 -37.5
t110 -87t61 -122t17.5 -142.5t-25 -149.5t-62 -141.5q-6 -11 -15 -10.5t-12.5 8.5t2.5 18q62 104 77 225.5t-25 222.5q-26 62 -73.5 107.5t-105 64t-115.5 14t-111.5 -46t-86.5 -114.5q-44 -94 -58.5 -218t5.5 -249.5t74 -212.5q44 -73 116 -110t147.5 -36t150.5 32t130 87
q59 59 100.5 153.5t62 193t33 232t15.5 236.5t6.5 242t8.5 217q-177 -332 -484 -338q-179 -3 -303.5 99t-163 290t38.5 453q-86 77 -128.5 182t-38.5 208t46.5 200.5t118.5 165.5q86 79 212 105t246.5 -14.5t180.5 -143.5q55 11 115 8q112 -9 183 -58t93 -122.5t11 -161
t-54 -178.5q-50 -106 -143 -184.5t-204 -118.5t-237 -38.5t-239 48.5q-30 -137 -20 -261.5t46.5 -220.5t99.5 -155.5t138 -65.5q153 -11 289.5 107.5t206.5 296.5v2q3 36 13 51t36.5 21t87.5 6zM924 1591q-3 68 -31 135q-156 -66 -276.5 -265.5t-182.5 -461.5
q79 -42 185.5 -48t206.5 18.5t180 70.5q68 39 126.5 104.5t96 139.5t49.5 152.5t-4 143.5t-73.5 112t-151.5 59q-68 7 -127 -14q29 -65 32 -146q3 -100 -30 -180q-25 -68 -72 -118t-107 -70q-16 -5 -24.5 0t-4 14t18.5 14q108 37 160 170q32 82 29 170zM293 1155
q86 233 235.5 399t341.5 215q-75 119 -200 131t-226 -88q-120 -119 -167.5 -309t16.5 -348z" />
    <glyph glyph-name="H" unicode="H" horiz-adv-x="2191" 
d="M2228 -61q19 -9 30 -30.5t9 -48t-14.5 -52t-42.5 -44.5t-72 -24q-105 -3 -182 50t-119.5 148.5t-67.5 225.5t-27.5 281t1.5 315q-61 6 -193 26q-220 31 -250 33q3 -108 3.5 -209t-12.5 -203t-36 -192t-67.5 -175.5t-106.5 -154.5q-74 -81 -184.5 -128.5t-225.5 -54.5
t-228.5 33t-190.5 126q-65 74 -103 173t-46.5 201t14.5 202.5t72 179.5t133.5 129.5t191.5 54.5q91 3 162.5 -27t116 -83t70 -124t28 -149.5t-13.5 -159.5t-50 -154q-6 -12 -14.5 -13t-13.5 7.5t0 20.5q55 116 61 245t-43 232q-38 79 -106.5 125.5t-141 51.5t-141 -43.5
t-102.5 -145.5q-37 -103 -42.5 -236t24 -263.5t89.5 -217.5q49 -73 123 -105.5t150 -25.5t149 45t125 100q65 79 103.5 184.5t50.5 237.5t11 244.5t-11 269.5q-105 -20 -125 -94q-10 -28 -30 -30q-17 0 -18 20l1 14q27 100 170 123q-2 24 -7 105.5t-7 112.5t-5 99.5t-3 107
t1.5 93t6 99t12.5 85.5q-102 -31 -182.5 -74.5t-131.5 -90.5t-85 -101t-48.5 -102.5t-15.5 -98.5q-4 -148 72 -192q55 -33 120 7q69 43 89 132q10 46 3 96q-3 18 11 22t17 -11q1 -2 1 -4q23 -154 -76 -237q-78 -66 -190 -57t-178 88q-50 61 -54 148q-3 61 17.5 122.5
t71 125.5t126 118t192 98.5t259.5 68.5q26 105 99 163.5t153 61.5q61 1 96 -30.5t35.5 -71.5t-31.5 -77.5t-90 -47.5l-86 -13q-10 -76 -12 -176.5t1 -171t10.5 -205t10.5 -190.5q102 -10 256 -35q23 -3 89 -12t100 -12q10 221 50.5 414t110.5 326.5t156 160.5q21 6 24 -8.5
t-13 -28.5q-55 -49 -95.5 -303t-48.5 -572h17q74 6 111 33t38 84q0 14 10.5 20.5t21 0.5t9.5 -21q-3 -134 -186 -147q-8 -2 -21 -2q-7 -195 -2 -373t20 -313.5t63 -215t128 -77.5q51 2 76 28t23 54t-19 43q-24 21 -14 38q7 13 26 5zM1407 1798q-36 -2 -67.5 -42t-45.5 -126
q18 1 76 10q74 11 93 67q15 43 -13 73q-17 18 -43 18z" />
    <glyph glyph-name="I" unicode="I" horiz-adv-x="1497" 
d="M1362 1835q61 1 96 -29.5t35.5 -70t-31.5 -76.5t-90 -47l-86 -13q-12 -87 -13 -199.5t6 -218t12.5 -226.5t9 -230.5t-6 -225t-31 -214.5t-68.5 -195t-116 -170q-99 -107 -254 -153.5t-314.5 -14t-260.5 143.5q-65 73 -103 170.5t-46.5 198t14.5 199t72 176t133.5 127
t191.5 52.5q134 4 225 -61.5t124 -168.5t24.5 -224.5t-60.5 -229.5q-6 -12 -14.5 -12.5t-13.5 8t0 19.5q55 115 61 240.5t-43 225.5q-30 62 -80.5 106t-109 58.5t-116 5t-107.5 -56.5t-78 -125q-37 -101 -42.5 -230.5t24 -257.5t89.5 -214q49 -71 123 -103.5t150 -25.5
t149 44.5t125 98.5q65 77 103.5 183.5t50 224.5t10.5 245t-10.5 261.5t-17.5 257.5t-6 248.5t20 219.5q-126 -37 -219 -92t-144 -117.5t-74.5 -123.5t-25.5 -123q-4 -147 72 -190q55 -32 120 7q69 42 89 131q10 45 3 95q-2 11 5 17t15 2.5t9 -15.5q23 -150 -76 -232
q-79 -64 -191 -55q-113 9 -179 89q-48 59 -52 143q-3 59 17.5 119.5t71 123t126 116t192 97t259.5 66.5q26 103 99 160.5t153 60.5zM1368 1645q74 11 93 65q14 42 -13 70q-17 18 -43 18q-35 0 -67 -40t-46 -124q4 0 76 11z" />
    <glyph glyph-name="J" unicode="J" horiz-adv-x="1533" 
d="M1386 1835q49 1 82 -18.5t41.5 -48.5t1.5 -60t-37.5 -56t-76.5 -32l-88 -12q-22 -162 2 -563q28 -464 31 -567q18 -568 -78 -869q-142 -448 -562 -463h-28q-271 0 -424 198q-125 162 -134 405q-9 231 89 421q98 191 265 255q73 28 155 28q96 0 168 -43t108 -113t48 -156
t-4 -176.5t-56 -169.5q-8 -18 -22 -9q-11 8 -5 24q28 57 42.5 124.5t14.5 136t-18.5 132.5t-52.5 113.5t-91.5 79.5t-131.5 30q-84 0 -151.5 -69t-104 -179t-54 -243t0.5 -266.5t57.5 -243.5t118.5 -179t182 -69t187.5 66.5t141 182t89.5 266t41 324.5q9 186 1 441
t-20.5 439.5t-15 387t17.5 283.5q-115 -32 -212.5 -100t-160 -151.5t-100.5 -171t-49 -169.5q-22 -167 53 -229q52 -44 121 -15q66 28 94 102q22 56 12 123q-3 16 11 21q15 2 18 -14q21 -134 -73 -216q-78 -68 -187 -66q-115 2 -181 82q-70 83 -52 224q14 111 66 212.5
t139.5 187.5t220.5 148t297 87q26 99 99.5 154.5t153.5 58.5zM1391 1651q73 11 93 63q15 41 -13 69q-17 17 -44 17q-35 -2 -65.5 -39.5t-46.5 -118.5q37 3 76 9z" />
    <glyph glyph-name="K" unicode="K" horiz-adv-x="2095" 
d="M2157 12q35 -58 -6.5 -124t-112.5 -68q-76 -2 -132.5 28.5t-91 83t-60 120.5t-45 142t-39.5 147t-49 135.5t-69 107.5t-105 64t-151 3q-5 -210 -54 -374.5t-167 -284.5q-99 -103 -254 -148t-314.5 -13.5t-260.5 138.5q-56 60 -93 138t-49 160t-6.5 166t37 158t80.5 132.5
t125 94t168 38.5q91 3 162.5 -25.5t116 -78.5t70 -116.5t28 -140.5t-13.5 -150.5t-50 -145.5q-9 -17 -22.5 -10t-5.5 24q55 109 61 230.5t-43 220.5q-30 59 -80.5 100.5t-109.5 55.5t-116.5 5t-107.5 -54.5t-78 -119.5q-57 -143 -37.5 -347.5t109.5 -330.5q66 -90 170 -114
t205.5 12.5t171.5 116.5q65 74 103.5 176.5t50 216t10.5 236t-10.5 252t-17.5 248t-6.5 239.5t19.5 211q-126 -35 -219 -88.5t-143.5 -114.5t-74 -120t-25.5 -118q-4 -140 72 -182q56 -31 122 9q69 41 88 127q9 42 2 87q-2 11 5 17t15.5 3.5t10.5 -13.5q22 -145 -78 -224
q-80 -63 -193 -54q-114 9 -179 87q-46 56 -50 135q-3 57 17.5 115.5t71 119t126 111.5t192 93t259.5 65q26 99 99 154.5t153 58.5q61 1 96 -28.5t35.5 -68t-31.5 -74t-90 -44.5l-86 -12q-11 -83 -12 -191.5t4.5 -200t12.5 -220.5t9 -216q120 327 185 469q214 469 420 480
q116 6 157 -58q30 -48 1 -97q-26 -46 -85 -54q-21 -3 -23.5 9.5t17.5 19.5q3 0 6 1q28 4 45.5 20t20.5 36.5t-4 40.5t-29.5 33.5t-54.5 13.5q-54 -2 -116 -61t-117 -147t-115.5 -204t-108.5 -221.5t-100.5 -212t-87.5 -162.5q141 30 242 10t162.5 -74t100.5 -133t57 -165.5
t33 -172.5t27 -153.5t39.5 -108.5t71.5 -39q51 3 83 52.5t9 91.5q-7 11 -3 20t12 8.5t16 -10.5zM1401 1800q-36 -2 -67.5 -40t-45.5 -118q33 3 76 9q75 12 93 64q14 41 -14 69q-16 16 -42 16z" />
    <glyph glyph-name="L" unicode="L" horiz-adv-x="1816" 
d="M1524 338q129 2 201 -105q66 -97 53 -224q-14 -137 -114 -218q-94 -76 -241 -74q-122 -2 -231 18.5t-195 55.5t-160 71.5t-159 75t-158 58.5q-65 -182 -201 -217q-113 -26 -172 47q-49 61 -34 148q18 95 101 145q70 42 169 35q3 86 -4.5 221.5t-17.5 256.5t-11.5 266
t8 264.5t45.5 237t96.5 199t166 134.5t249.5 59q92 4 177.5 -18.5t161.5 -71.5t134 -133.5t87 -196.5q21 -70 17.5 -141.5t-21 -138t-56 -124.5t-89 -101t-119 -68t-146.5 -25q-108 -1 -187.5 45t-120.5 121t-56.5 168t-4 189t44.5 182q6 17 20 10q15 -8 9 -27
q-30 -76 -40.5 -166t3 -178.5t47.5 -160.5t100 -114.5t154 -39.5q61 3 112 38.5t82.5 92.5t51.5 130t19.5 150.5t-13.5 153.5q-27 139 -85.5 230.5t-128 129t-150.5 35.5q-106 -3 -181 -59.5t-113.5 -148.5t-59 -217t-21 -257t4 -275.5t12.5 -266t8 -236t-13 -178.5
q91 -24 208.5 -73t205.5 -90t207 -74t231 -35q191 -3 284 102q69 78 54 175q-14 93 -96 141q-54 31 -125 34q-14 0 -14.5 16.5t14.5 16.5zM244 -195q28 0 51 16t35.5 37t22.5 55t14 55t8 52q-124 8 -181.5 -36t-43.5 -103q7 -32 30.5 -54t63.5 -22z" />
    <glyph glyph-name="M" unicode="M" horiz-adv-x="2394" 
d="M2546 -20q66 -2 84 -50q18 -44 -20 -86q-38 -43 -111 -49q-119 -10 -216.5 23.5t-165.5 100.5t-117.5 162.5t-75 209t-35.5 240t-2 255.5t29.5 256.5t55 241.5t77.5 211.5t95 165.5q-76 -49 -142 -119.5t-112 -141t-86 -162t-63.5 -161.5t-45.5 -163t-31.5 -142.5
t-21.5 -122.5q-19 -69 -49.5 -96.5t-109.5 -24.5q-116 552 -293 842q-12 -58 -15.5 -145t0.5 -177.5t6.5 -197t4 -208t-8.5 -206t-29 -194.5t-60 -169.5t-99 -135.5t-148 -88.5t-206 -32.5q-122 0 -222.5 40t-165.5 106.5t-105 155t-47 183t15.5 192t75.5 181.5
q40 64 102.5 111.5t132 72.5t144.5 27.5t140 -18t117.5 -71.5t78.5 -126q53 -156 -14 -353q-7 -20 -22 -16t-10 22q0 1 1 3q66 197 12 340q-24 65 -71.5 111.5t-105 63.5t-117 8.5t-114.5 -54t-89 -121.5q-33 -72 -50.5 -161.5t-18.5 -181.5t19 -180t58 -156t103.5 -109
t150.5 -40q91 1 159.5 37t111 98t72 147.5t42 182.5t20.5 205.5t9 215t6.5 213t13 196.5t28.5 168.5t54 126.5q-210 304 -498 307q-210 7 -313 -141q-79 -114 -67 -272q10 -144 90 -233q62 -70 147 -75q140 -5 242.5 88.5t101.5 226.5q-1 20 7 28t16.5 -0.5t9.5 -27.5
q1 -147 -110 -249t-267 -97q-181 5 -286 131q-90 108 -85 254q5 154 114 262q142 140 400 136q134 0 251 -35t205 -92t163.5 -142t128.5 -173t98 -197t73.5 -202t53.5 -200q14 79 29 148t44 165t63 176t86.5 169t114.5 158t148 128t185 92q15 5 24 -0.5t5.5 -15t-19.5 -14.5
q-12 -4 -70 -29q-34 -63 -65 -180t-54 -263.5t-33.5 -312.5t-7 -328.5t30.5 -310.5t73.5 -259t127 -173.5t186.5 -54.5q74 5 101 50q21 34 -4 57q-14 13 -41 14q-13 0 -19 7.5t-1.5 15.5t18.5 8z" />
    <glyph glyph-name="N" unicode="N" horiz-adv-x="2035" 
d="M2228 1890q25 -3 27 -23q3 -19 -17 -24q-9 -3 -22 0q-108 29 -188.5 -53.5t-124 -238.5t-68.5 -350.5t-27 -399t6 -375t25 -285.5q145 -259 281 -256q24 0 26 -16q2 -13 -14 -15q-3 -1 -6 -1q-97 -4 -186.5 43t-159.5 128t-137.5 194.5t-119.5 236t-107 258t-99 254.5
t-96.5 233t-98.5 186q-15 -115 20 -463q11 -115 16.5 -175t11.5 -172t3 -177t-13 -161t-32.5 -153.5t-59.5 -125.5t-89 -105.5t-126 -65.5t-167 -32q-119 -6 -220 31t-168.5 103.5t-112.5 155.5t-58 186.5t2.5 199.5t60.5 191q41 80 114 138t157 80t166.5 14t153 -61.5
t106.5 -144.5q63 -156 12 -362q-4 -15 -13.5 -19t-16 4t-3.5 21q51 200 -10 352q-28 66 -77.5 112t-107.5 60.5t-115 4t-107 -60t-78 -130.5q-33 -91 -43 -205.5t7.5 -228t58 -208t116 -151t174.5 -51.5q97 5 165.5 53.5t104.5 129t54.5 183.5t20.5 223.5t-2 243.5t-9 247.5
t-4 231.5t16 201t47 150q-222 305 -506 297q-203 -2 -294 -155q-72 -122 -50 -286q20 -149 103 -238q66 -70 149 -73q139 3 232.5 103.5t81.5 238.5q-3 30 12 32q11 2 17 -17q2 -7 3 -15q12 -152 -89.5 -261.5t-254.5 -112.5q-177 -2 -287 124q-95 109 -100 261
q-5 162 98 278q128 146 375 154q441 18 723 -373q84 -116 156 -274.5t116 -294t106.5 -308.5t121.5 -294q-19 157 -25 349t10 408.5t53.5 400t114 318.5t183.5 168q51 15 102 10z" />
    <glyph glyph-name="O" unicode="O" horiz-adv-x="1712" 
d="M1311 1483q62 -28 113.5 -95t86 -158t52.5 -203t18 -228.5t-21.5 -236.5t-62 -226t-108.5 -197.5t-156 -150.5q-146 -98 -332 -98t-326 102q-96 69 -164 183t-98.5 247.5t-35 285t25.5 296.5q-126 94 -178 237.5t-25.5 283.5t117.5 240q79 87 203 123.5t249.5 5.5
t198.5 -129q58 15 115 15q161 1 243 -81t85 -216zM864 1714q-150 -80 -249.5 -291.5t-131.5 -480.5q87 -38 191.5 -34t204 37t174.5 85q65 45 116.5 116t81 148.5t33 157.5t-20 144.5t-86.5 107t-159 47.5q-57 3 -127 -25q36 -63 49 -143q13 -102 -10 -186
q-42 -155 -160 -205q-16 -5 -24 -0.5t-5 14t17 15.5q108 47 141 184q23 79 10 174q-13 79 -45 135zM401 1763q-107 -128 -134 -325t55 -351q40 158 109.5 290.5t174 233t230.5 144.5q-58 75 -137 102.5t-158 2.5t-140 -97zM1149 -8q114 78 188 234.5t97 335t16.5 357
t-45 319t-94.5 200.5q-6 -74 -35 -164q-38 -110 -122.5 -197.5t-193.5 -135t-234.5 -59.5t-246.5 29q-17 -195 -2 -371t75 -325.5t155 -224.5q98 -71 219.5 -68.5t222.5 70.5z" />
    <glyph glyph-name="P" unicode="P" horiz-adv-x="2213" 
d="M1823 1755q178 0 269 -169t69 -453q-15 -191 -88 -370.5t-192 -298t-251 -120.5q-144 -1 -218 89t-77 237q0 11 7.5 14.5t15.5 -0.5t8 -12q1 -54 15 -105t42 -95.5t77 -70.5t112 -22q85 4 161.5 116.5t125 277.5t67.5 347q15 159 7.5 272.5t-35.5 185t-67.5 104
t-90.5 30.5q-302 -16 -471 -924q-1 -8 -14.5 -63.5t-14.5 -58.5q1 -138 -3.5 -251t-21 -238t-45 -221t-78.5 -186.5t-118 -150t-166.5 -95t-220.5 -36.5q-244 -2 -394 184q-124 153 -146 380q-21 219 64 392q86 177 250 225q46 13 97 15q108 4 189 -43.5t123 -128.5
t57.5 -183t0 -210.5t-56.5 -206.5q-8 -21 -22 -13q-13 8 -5 29q54 127 60 271t-41 258q-38 88 -107.5 140t-142.5 57t-141.5 -49t-102.5 -163q-29 -91 -38 -210t8 -242.5t56 -227.5t115.5 -170.5t178.5 -66.5q126 0 216.5 67t138 178t74 262.5t29 312t-1 336.5t-12 326.5
t-8.5 291t14 221.5q-102 -34 -183.5 -82.5t-132.5 -100.5t-85 -112t-48.5 -114.5t-15.5 -109.5q-4 -164 71 -213q54 -36 118 6q69 44 91 141q13 55 5 116q-2 13 5 19.5t15.5 3t10.5 -16.5q22 -171 -78 -263q-77 -71 -185 -64q-110 8 -177 92q-55 69 -60 171
q-3 67 17.5 135.5t71.5 139.5t126.5 131.5t192 110t258.5 75.5q26 116 100 181.5t154 68.5q41 1 70.5 -15.5t43.5 -42t14.5 -56.5t-12 -59t-40.5 -50t-66 -29l-88 -14q-8 -70 -9.5 -169.5t0.5 -178t7.5 -218t7.5 -212.5q62 325 122 503q159 461 423 461zM1391 1794
q-35 -2 -66 -46.5t-47 -139.5q25 2 76 10q72 14 93 74q16 47 -11 81q-17 21 -45 21z" />
    <glyph glyph-name="Q" unicode="Q" horiz-adv-x="1662" 
d="M1638 -199q4 -95 -47.5 -161t-136.5 -84q-77 -14 -139 -10.5t-113 26t-91 54.5t-74 74t-61 84.5t-53 86.5q-9 17 -14 25q-165 -10 -303 61q-23 -29 -33 -66q-3 -12 -11 -15t-14.5 2.5t-4.5 15.5q5 36 30 81l-28 21q-77 56 -135 140.5t-93 185t-51 214.5t-11 233t28 237
q-125 94 -175.5 237t-22.5 282.5t120 239.5q79 87 203 123.5t249 5.5t195 -129q66 17 115 17q162 0 243 -82t84 -217q82 -37 143 -141.5t90.5 -241.5t26.5 -300t-38.5 -313.5t-116.5 -284t-197 -210.5q-49 -34 -104 -55q18 -26 45.5 -71t45.5 -75t47.5 -67.5t57 -60.5
t67 -40.5t83.5 -21.5q82 -8 124.5 54t39.5 146q-1 11 6 16.5t15 1t9 -17.5zM1073 -29q17 6 43 25q97 65 165.5 186.5t101 263t42 297.5t-5.5 292t-48 244.5t-79 158.5q-6 -77 -37 -162q-39 -110 -124 -197.5t-193.5 -135t-234 -59.5t-246.5 29q-30 -267 14 -507t160 -369
q58 47 134.5 61.5t155.5 -12t134 -92.5zM848 1714q-150 -80 -250.5 -290.5t-136.5 -479.5q88 -38 191.5 -34.5t203 36.5t176.5 86q65 45 116.5 115t82 147.5t34.5 157.5t-19.5 144.5t-86 107t-158.5 47.5q-61 3 -124 -25q34 -58 47 -143q12 -94 -13 -184q-42 -154 -161 -205
q-16 -6 -24.5 -1.5t-5.5 14.5t17 16q105 45 146 184q22 84 10 172q-9 71 -45 135zM389 1763q-70 -82 -110 -201t-36 -247.5t58 -224.5q41 158 111.5 289.5t176 232t232.5 143.5q-58 76 -136.5 103t-156.5 2t-139 -97zM676 -6q87 -70 215 -70q-17 32 -47 70q-28 34 -62.5 45
t-65.5 2.5t-61 -31.5q10 -5 21 -16z" />
    <glyph glyph-name="R" unicode="R" horiz-adv-x="2287" 
d="M2540 -291q38 -88 -15.5 -164.5t-150.5 -81.5q-84 -4 -153.5 28t-119.5 89t-92.5 133t-79 162t-72.5 173t-78.5 169.5t-91.5 149t-118 113t-152 59.5q-9 2 -13 19t0 33t17 15q8 -2 29 -2q192 -5 325 190q112 163 144 400q30 218 -27 361q-49 126 -149 131
q-60 0 -110 -24.5t-85 -63.5t-64.5 -101t-47.5 -122t-35.5 -143.5t-27.5 -148t-24 -153t-24 -142.5q-1 -8 -14.5 -63.5t-14.5 -58.5q1 -138 -3.5 -251t-21 -238t-45 -221t-78.5 -186.5t-118 -150t-166.5 -95t-220.5 -36.5q-244 -2 -394 184q-124 153 -146 380
q-21 219 64 392q86 177 250 225q46 13 97 15q108 4 189 -43.5t123 -128.5t57.5 -183t0 -210.5t-56.5 -206.5q-9 -22 -22 -13t-4 29q54 127 59.5 271.5t-41.5 257.5q-38 88 -107.5 140t-142 57t-141 -49t-102.5 -163q-24 -75 -33.5 -171.5t-5 -199t29.5 -200.5t66 -175
t108.5 -124t153.5 -47q102 0 180.5 43.5t127.5 118.5t82.5 180t47.5 224t20 254.5t1.5 267.5t-9 267.5t-9.5 249.5t-3 219t13 171q-102 -34 -183.5 -82.5t-132.5 -100.5t-85 -112t-48.5 -114.5t-15.5 -109.5q-4 -165 72 -213q54 -36 117 6q68 45 90 142q13 55 5 115
q-2 13 5 19.5t15.5 3t10.5 -16.5q22 -171 -78 -263q-77 -71 -185 -64q-110 8 -177 92q-55 69 -60 171q-3 67 17.5 135.5t71.5 139.5t126.5 131.5t192 110t258.5 75.5q26 116 100 181.5t154 68.5q41 1 70.5 -15.5t43.5 -42t14.5 -56.5t-12 -59t-40.5 -50t-66 -29l-88 -14
q-8 -70 -9.5 -169.5t0.5 -178t7.5 -218t7.5 -212.5q7 40 18 118t20 144t26.5 151.5t37 153.5t52.5 137.5t72.5 116t96.5 75.5t126 29q210 0 310 -159q87 -139 62 -346q-26 -211 -154 -380q-149 -197 -371 -244q-12 -3 -25 -5q98 -26 179.5 -80.5t137.5 -124t102.5 -152.5
t79 -167.5t60.5 -167.5t53.5 -155t53 -126.5t63 -85.5t78.5 -29q81 3 126 66t13 137q-5 10 0 17.5t14 7t15 -12.5zM1407 1794q-35 -2 -66 -46.5t-47 -139.5q25 2 76 10q72 14 93 74q16 47 -11 81q-17 21 -45 21z" />
    <glyph glyph-name="S" unicode="S" horiz-adv-x="1660" 
d="M1497 428q8 -155 -35.5 -283.5t-131.5 -220t-225 -142t-312 -50.5q-342 1 -530 191q-140 143 -157 349q-15 192 81 350q100 163 278 214q66 19 139 20q113 2 206 -40.5t150 -116.5t84.5 -165.5t16.5 -195.5t-60 -199q-6 -13 -14.5 -13.5t-13.5 8.5t0 20q38 74 52 155
t3.5 155t-44 140.5t-86 115.5t-127.5 77.5t-163 27.5q-137 -2 -225 -145q-86 -139 -87 -338q-2 -218 99 -374q124 -191 357 -203q19 -1 39 -1q95 -1 176 34t140 97.5t100 146t60 181.5t17 203q-3 74 -24 143t-49 121t-73 110.5t-82 98t-91.5 97.5t-87.5 96q-311 -87 -514 19
q-133 71 -179 202q-44 128 14 245q63 127 216 175q64 19 139 22q110 6 207 -37q34 48 85.5 79t109 38t113 -5.5t103 -54.5t74.5 -106q24 -59 26 -126t-19 -135t-73.5 -133.5t-131.5 -113.5q22 -20 72 -64.5t76.5 -69t71 -71t70 -81.5t58.5 -88.5t51.5 -104.5t33 -117
t17.5 -137zM573 1724q-115 -1 -191 -106q-70 -98 -66 -226q4 -143 102 -226q146 -124 436 -48q-118 152 -148 302.5t35 271.5q-78 32 -168 32zM836 1634q-14 -142 29 -240.5t157 -207.5q78 45 129.5 107.5t71 127.5t16.5 128.5t-27 117.5q-23 49 -64.5 84.5t-89 47t-93 5
t-80 -42t-45.5 -92.5q73 -56 116.5 -140.5t49.5 -187.5q1 -14 -7 -19t-16 0.5t-8 18.5q-12 182 -139 293z" />
    <glyph glyph-name="T" unicode="T" horiz-adv-x="1437" 
d="M1755 1980q8 -123 -60 -172.5t-200 -46.5q-78 1 -211 22.5t-252.5 40t-245.5 27t-232 -18.5t-171 -95q-50 -52 -77.5 -144t-23.5 -191.5t31.5 -189.5t92 -147t153.5 -55q121 5 203 113.5t53 265.5q-12 73 -50 123t-93 57q-12 2 -16.5 10t0.5 14.5t16 5.5q92 -10 144 -112
q53 -105 32 -233q-24 -146 -131 -220q-74 -51 -178 -55q-103 -5 -188 26.5t-139.5 89.5t-84 132t-31.5 157q-2 96 27 174t81 130t123.5 93t153.5 62t171.5 37t178.5 18.5t173 5.5t155 -1q33 -1 96 -2q286 -7 372 6q100 15 99 60v5q-2 18 14 22q12 3 15 -12v-2zM1221 1690
q24 2 67 -19q29 -15 17 -22q-47 -25 -63.5 -200.5t5.5 -414.5q9 -99 13 -171.5t6 -178t-9 -190t-32 -175t-62.5 -167.5t-99.5 -136q-75 -74 -186.5 -116t-227 -46t-229 37t-189.5 123q-55 61 -91.5 140.5t-48 162t-4.5 166t39 157t81.5 131t126 91t168.5 33.5
q108 1 188.5 -41.5t122 -113t56 -157.5t-1.5 -179.5t-58 -174.5q-6 -11 -15 -11t-13 8.5t1 19.5q55 108 62 228.5t-41 219.5q-37 76 -105.5 122t-141 52t-141.5 -38t-104 -136q-38 -96 -44 -221t23 -249t89 -208q65 -92 169 -119.5t205.5 6.5t170.5 113q44 50 75.5 120.5
t48 155t25.5 165.5t9 180.5t-2 168.5t-6 160q-2 44 -3 64q-3 63 -4 102.5t-2 96.5t0 93.5t3.5 84t8 78t13.5 65.5t20 56.5t28 41.5t37 30t46 12z" />
    <glyph glyph-name="U" unicode="U" horiz-adv-x="2381" 
d="M2486 -43q23 -34 19.5 -70t-23 -65t-57 -48t-80.5 -18q-83 2 -149 47.5t-106.5 122.5t-69.5 179.5t-38.5 218.5t-12.5 239t7 242q-28 -127 -61.5 -236t-81.5 -214.5t-103 -179.5t-128 -119.5t-156 -45.5q-90 0 -157 32t-107 87.5t-65 134t-33 168.5t-11.5 193.5t1 206.5
t4 210t-3.5 201.5t-19.5 184.5t-46.5 155q-32 69 -85 117t-115 65.5t-126.5 11t-125.5 -46t-105 -106.5q-55 -83 -93.5 -202.5t-54.5 -245.5t-12.5 -253.5t28.5 -228.5q23 -97 68.5 -158t99.5 -80.5t115 -11t115.5 42.5t100 88t69.5 119q36 95 33 219q0 11 7.5 16t15 0.5
t7.5 -16.5q3 -124 -30 -219q-32 -90 -92.5 -155.5t-133 -96t-153.5 -31.5t-154 29t-135 95.5t-96 158.5q-37 103 -44.5 229t13 251t72 245t127.5 207q108 123 268 165t313.5 -12t237.5 -194q58 -95 86 -234t30.5 -280.5t-3 -292t-7.5 -280t10.5 -233.5t58.5 -164t128 -60
q422 0 569 1304q6 49 14 134l5 43q4 43 29 55.5t96 9.5q22 -74 26.5 -216.5t-2.5 -304t-14.5 -342.5t-5 -344.5t20 -297t67 -213t129.5 -80.5q54 0 88.5 52t5.5 89q-15 21 -7 34q7 13 19 -7z" />
    <glyph glyph-name="V" unicode="V" horiz-adv-x="1806" 
d="M2054 2007q20 -3 41 -24q25 -24 -10 -26q-10 -1 -25 1q-64 7 -119.5 -36.5t-95 -118t-73.5 -183.5t-55.5 -218.5t-41 -239t-30 -228t-22 -202t-17.5 -146.5q-10 -74 -18 -125.5t-21 -118t-25.5 -111t-31 -92t-38.5 -75.5t-47.5 -46t-58.5 -18q-79 0 -132.5 61
t-79.5 164.5t-40.5 238t-23 282.5t-19 296t-35.5 281.5t-66 236t-117 162.5t-183 58q-87 -2 -155.5 -48t-111 -121t-70 -171.5t-37 -200t-8.5 -206t12.5 -189.5t29.5 -150q28 -97 76.5 -158t103.5 -80.5t115 -11t113 42.5t95.5 88t63.5 119q32 104 23 219q-1 11 6 16t15 0.5
t9 -16.5q6 -123 -20 -219q-27 -90 -84 -155.5t-128 -96t-152.5 -31.5t-156 29t-140 95.5t-103.5 158.5q-36 88 -53 190.5t-11.5 208t29 208t71.5 192.5t112.5 159t156 111t197.5 45q91 3 167 -20t132 -61t100.5 -102.5t74 -128t51.5 -155.5t34 -167t20.5 -181t12 -178
t6.5 -177q3 -101 5.5 -151t8.5 -129t15 -118.5t23.5 -83t37.5 -61t53 -17.5q40 0 70.5 69t51.5 185t39 266t37.5 314t42 327.5t58 307.5t80.5 252.5t113 165t153 42.5z" />
    <glyph glyph-name="W" unicode="W" horiz-adv-x="2627" 
d="M2867 2007q20 -3 41 -24q25 -24 -10 -26q-10 -1 -25 1q-57 6 -107 -26t-88 -97t-69.5 -147.5t-55 -187t-41.5 -204.5t-31.5 -212t-23 -197.5t-18.5 -173t-14 -127.5q-10 -73 -18 -125.5t-20 -118t-25 -111t-31 -92.5t-38.5 -75t-48 -46t-59.5 -18q-141 0 -204 202
q-45 143 -68 482q-3 35 -7 108l-12 177q-130 -957 -426 -957q-103 0 -175 49.5t-109 133t-59 197.5t-26.5 237.5t-10 260.5t-11 259t-28 239t-62.5 195q-35 69 -90.5 117t-119 65.5t-127.5 11t-122.5 -46t-99.5 -106.5q-67 -110 -100.5 -279t-28.5 -342t45 -309
q28 -97 76.5 -158t103.5 -80.5t115 -11t113 42.5t95.5 88t63.5 119q29 96 23 219q-1 11 6.5 16t15.5 0.5t9 -16.5q6 -123 -23 -219q-26 -90 -83 -155.5t-127.5 -96t-152 -31.5t-156 29t-140 95.5t-103.5 158.5q-57 137 -63.5 309t41.5 339.5t143 283.5q102 123 259.5 165
t313.5 -12t248 -194q61 -93 95.5 -230t44.5 -277.5t12.5 -291.5t6 -281t18.5 -234.5t57 -165t114 -60.5q64 0 119 50t94 139.5t69.5 195t51 235.5t33 239.5t21.5 228.5q2 22 3 63t2 64.5t8.5 55t20.5 48t38.5 28t62.5 11.5q44 -137 64.5 -331t25 -358.5t13 -313.5t40 -235.5
t94.5 -86.5q40 0 70.5 69t51 185t38 266t36 314t40.5 327.5t56.5 307.5t79 252.5t112.5 165t153 42.5z" />
    <glyph glyph-name="X" unicode="X" horiz-adv-x="2183" 
d="M2193 -96q15 0 21.5 -8t2 -16t-18.5 -9q-98 -4 -192.5 40t-173 120.5t-152 188t-132 232.5t-112.5 263q-31 -105 -60.5 -189.5t-74 -187.5t-91.5 -181.5t-112.5 -157t-138.5 -129.5t-167.5 -84.5t-201.5 -35.5q-239 -6 -378 158q-113 133 -123 328q-10 193 84 346
q104 168 294 206q59 11 123 9q100 0 173 -36.5t112 -96.5t55.5 -139t10.5 -162t-30 -168q-6 -22 -21 -18t-9 24q23 79 30 156t-6.5 151.5t-49 130.5t-104 90.5t-163.5 34.5q-63 0 -117.5 -33.5t-91.5 -90t-64.5 -130t-35.5 -155t-5 -163t27 -155t60.5 -130.5t96 -91
t132.5 -35q99 0 189 41t156.5 99.5t131.5 159t106 181.5t87.5 207.5t68 195.5t55.5 185q-34 89 -60 154t-62 147t-67.5 141.5t-72.5 126.5t-80.5 113.5t-89 91t-100 71t-111 41.5t-125.5 13q-195 -2 -283 -155q-71 -123 -49 -289q19 -150 101 -239q62 -67 141 -69
q134 2 223.5 102.5t79.5 239.5q-3 31 12 32q13 1 18 -24l1 -8q12 -152 -85.5 -261.5t-244.5 -112.5q-171 -2 -278 124q-92 110 -96 262q-5 163 96 280q124 144 360 151q127 6 239 -26t199 -90t165 -147t136 -185t113 -216q74 243 125 356q153 340 389 365q22 2 45 2
q87 0 139 -63.5t54 -157.5q0 -13 -8 -18t-15.5 -0.5t-7.5 16.5q-2 80 -45 135.5t-117 56.5q-46 1 -88.5 -15.5t-77.5 -43t-69 -70t-59 -85.5t-51.5 -102t-43.5 -105.5t-37.5 -110.5t-31.5 -104t-27 -97t-22 -80q27 -67 70 -174t71 -176.5t68 -164.5t71.5 -158t71 -136.5
t75.5 -119.5t77 -86.5t84.5 -59.5t88.5 -18z" />
    <glyph glyph-name="Y" unicode="Y" horiz-adv-x="2295" 
d="M2124 1581q-19 -92 -26.5 -228.5t-4 -280.5t5.5 -312.5t3.5 -329.5t-11 -325t-35.5 -306t-74 -265.5t-123.5 -210t-185.5 -133.5t-258 -42q-280 10 -427 196q-117 148 -115 358q1 199 107 355q114 169 300 209q58 12 119 10q120 -4 198 -72t103 -167.5t11 -213.5
t-66 -212q-6 -12 -15 -12.5t-13 7.5t1 19q36 68 53.5 150.5t10 164t-37.5 150.5t-93.5 113t-151.5 47q-115 3 -201.5 -104.5t-111.5 -264t-9.5 -314t106.5 -270.5t234 -118q178 -5 285.5 122t140.5 335.5t44.5 471.5t-3.5 530q-3 172 -4 255q-22 -98 -48.5 -178.5t-66 -156
t-87 -126.5t-112.5 -82t-141 -31q-96 0 -166.5 30.5t-110.5 84t-65.5 126.5t-32 158.5t-9 178.5t2.5 187q0 108 1.5 209t-14.5 190t-47 155t-96 104.5t-161 37.5q-175 -1 -298 -205q-111 -185 -141 -458q-28 -268 38 -459q64 -186 197 -214q21 -4 44 -4q68 1 128.5 29.5
t104 76.5t75.5 109t48.5 127t18.5 131q0 11 8 16t15.5 0.5t7.5 -16.5q-3 -96 -33 -184.5t-83 -160t-136 -114t-184 -42.5q-217 -2 -336 180q-107 162 -103 411q4 251 117 461q120 223 319 304q92 37 195 40q92 2 166 -17.5t124.5 -56.5t88.5 -89.5t58.5 -116t35 -136
t17 -150t5 -156.5t-0.5 -157q-2 -77 -0.5 -150t5 -137t17 -118t35 -92.5t59 -60t88.5 -21.5q73 0 133.5 30.5t103.5 78t78.5 124.5t57 148.5t40 173t28 175.5t20.5 177q6 110 21 205q2 23 5.5 40t7.5 30.5t11 22.5t13 15.5t18 9.5t20.5 5t26.5 1.5t31 -1t38 -2t44 -2.5z" />
    <glyph glyph-name="Z" unicode="Z" horiz-adv-x="1435" 
d="M836 852q132 -18 232.5 -91.5t149 -178t65 -226.5t-23 -240.5t-111.5 -215.5t-203 -157t-296 -60q-267 0 -422 174q-120 135 -134 327q-13 182 73 321q94 150 265 175q25 3 52 4q82 2 150.5 -25.5t111 -76t71 -110.5t33.5 -130t-5.5 -133t-42 -122.5t-78.5 -94.5
q-12 -9 -21 -6t-9 12.5t9 17.5q50 39 79 102t33.5 132t-12 139.5t-51.5 126.5t-92 91.5t-127 35.5q-121 1 -192 -137q-69 -135 -59 -326q10 -204 104 -333q100 -140 264 -132q198 -1 320 177q104 153 117 376q12 216 -69 373q-84 164 -237 182q-22 3 -45 2q-3 33 4 47.5
t33 20.5q47 10 70 37q49 52 83 135t48.5 174.5t4.5 184.5t-42.5 165.5t-99.5 116.5t-160 39q66 -46 114 -121.5t70.5 -159.5t17.5 -171t-37 -157.5t-101.5 -119t-168.5 -55.5q-155 -12 -254 108q-87 107 -91 262q-4 168 93 290q91 115 248 148q-84 35 -165.5 35.5
t-146 -30.5t-107.5 -97.5t-50 -158.5q-2 -14 -10.5 -18.5t-15.5 1t-6 17.5q8 105 60.5 180.5t129.5 109t173.5 27t191.5 -56.5q118 14 218 -9.5t166.5 -74.5t110 -122.5t57.5 -152.5t0.5 -166t-54 -161t-113.5 -140t-170 -100zM575 989q90 1 153.5 45.5t91.5 113t30 154
t-23 167t-76 155t-120 115.5q-132 -31 -202 -183q-64 -138 -49 -302q14 -156 92 -226q44 -40 103 -39z" />
    <glyph glyph-name="bracketleft" unicode="[" horiz-adv-x="645" 
d="M342 -86h270q-2 -4 -4 -10.5t-3 -9t-3 -6t-5 -4.5t-7 -1q-98 -2 -295 -2v2h-123q0 322 -1 959.5t-1 957.5h147h250q-8 -27 -15 -30q-3 -1 -7 -1h-211q1 -213 4.5 -856.5t3.5 -998.5z" />
    <glyph glyph-name="backslash" unicode="\" horiz-adv-x="815" 
d="M127 1757q251 -807 580 -1841q-5 0 -14.5 -0.5t-14.5 0t-11 1t-9.5 3t-4.5 6.5q-172 539 -581 1841q3 0 12.5 0.5t14.5 0t11.5 -1t10.5 -3t6 -6.5z" />
    <glyph glyph-name="bracketright" unicode="]" horiz-adv-x="692" 
d="M313 -86q1 362 6.5 1024t6.5 831h-211q-10 0 -14 7t-7 24h250q12 0 49 0.5t64 0.5t35 -1l-11 -1917h-123v-2q-197 0 -295 2q-3 0 -5.5 1t-4.5 2.5t-3.5 5t-2 5.5l-2 8t-2.5 9h270z" />
    <glyph glyph-name="asciicircum" unicode="^" horiz-adv-x="933" 
d="M498 1749l293 -934q-8 0 -19.5 -0.5t-15.5 -0.5t-9.5 2t-8 8t-5.5 16l-264 835l-266 -844q-3 -9 -9 -13t-10.5 -4.5t-17.5 0.5t-19 1l295 936q6 23 27.5 23t28.5 -25z" />
    <glyph glyph-name="underscore" unicode="_" horiz-adv-x="1144" 
d="M147 -88q605 0 906 2q-6 -14 -11.5 -31.5t-9 -22.5t-7 -12t-14 -7.5t-20 -1.5t-35.5 -1q-287 -2 -858 -2q30 76 49 76z" />
    <glyph glyph-name="grave" unicode="`" horiz-adv-x="550" 
d="M322 1096q19 -56 29 -163t22 -153q-50 0 -67.5 7t-26.5 30q-5 13 -62.5 142t-79.5 196q100 0 135.5 -9t49.5 -50z" />
    <glyph glyph-name="a" unicode="a" 
d="M858 348h31q-3 -13 -11.5 -55.5t-14.5 -66.5t-17.5 -64t-25 -64t-31.5 -49t-42.5 -37t-54.5 -12q-145 0 -182 233q-79 -215 -238 -215q-108 0 -179.5 70t-85 169.5t7 199t99 169.5t189.5 70q64 0 115 -38.5t82 -100.5q0 31 2 41q1 19 2.5 32t6 23.5t7.5 17t14 11.5t17 7
t25 3t30 1t39.5 -0.5t46.5 -0.5q0 -20 -7.5 -100.5t-14 -169.5t-8.5 -178.5t12 -148t45 -58.5q84 0 141 311zM449 172q25 44 53 131q-6 57 -6 166q-5 34 -27 80q-49 98 -139 98q-55 -1 -91.5 -61.5t-46 -147t-3 -172.5t36.5 -146t73 -59q39 0 81 30t69 81z" />
    <glyph glyph-name="b" unicode="b" 
d="M858 348h33q-71 -359 -383 -364q-149 -1 -205 72q-35 45 -16 88q16 39 61 36q24 -2 42.5 -15t17.5 -30q40 32 63.5 95.5t25 133.5t-10 135t-42.5 107t-73 41q-36 -1 -68 -22.5t-54.5 -57.5t-38.5 -72t-28 -77q0 -65 1 -167t1 -136q0 -33 -17 -53t-41.5 -24.5t-52 -6.5
t-48.5 2q-7 58 -13.5 133.5t-12 186t-6 222t7 236t23 235t46.5 211.5t74 172.5t107.5 112t145.5 35.5q116 -7 139 -137q23 -135 -54 -332t-203 -320q-48 -47 -97 -75q-2 -70 -2 -205q81 188 230 188q79 0 141 -43t93.5 -108t36.5 -144.5t-19 -151t-85.5 -128.5t-150.5 -76
q5 -3 10 -5.5t11 -4.5l10.5 -3.5t12 -2.5t11 -1.5t12 -0.5h11h12.5h12q96 1 166 45t108.5 113t55.5 163zM395 1546q-107 8 -156 -156q-43 -140 -53 -496q-1 -36 -4 -146q126 79 223 266q94 178 104 335q9 154 -75 189q-19 7 -39 8z" />
    <glyph glyph-name="c" unicode="c" horiz-adv-x="620" 
d="M621 348h30q-29 -158 -117 -245.5t-239 -88.5q-117 -1 -194.5 69t-92 170t6.5 201t100 171.5t190 70.5q100 0 142.5 -63t13 -130t-108.5 -77q-15 -2 -21 5t-0.5 15.5t19.5 10.5q41 6 66 37.5t27 65.5t-26.5 61t-82.5 26q-36 0 -67 -32.5t-49 -84.5t-28.5 -114
t-4.5 -124.5t22.5 -114.5t52.5 -84.5t86 -33.5q55 0 104 25.5t82.5 67.5t56 92t32.5 104z" />
    <glyph glyph-name="d" unicode="d" 
d="M721 37q24 0 48 35t41.5 90t28.5 99.5t19 86.5h31q-3 -13 -11.5 -55.5t-14.5 -66.5t-17.5 -64t-25 -63.5t-32 -49t-43.5 -37.5t-55 -12q-143 0 -180 233q-79 -215 -238 -215q-108 0 -179.5 70t-85 169.5t7 199t99 169.5t189.5 70q62 0 111 -35t80 -92q0 106 4 204
t16.5 202.5t32 192.5t51 167t73 133t99 83.5t127.5 25.5q116 -7 139 -137q23 -135 -54 -332t-203 -320q-48 -47 -97 -75l-5 -95q-5 -94 -6.5 -177t0 -183.5t14 -160.5t36.5 -60zM895 1546q-107 8 -156 -156q-43 -140 -53 -496q-1 -36 -4 -146q126 79 223 266q94 178 104 335
q9 154 -75 189q-19 7 -39 8zM449 172q25 44 53 131q-6 67 -6 133q0 27 -2 39q-6 38 -25 74q-49 98 -139 98q-55 -1 -91.5 -61.5t-46 -147t-3 -172.5t36.5 -146t73 -59q39 0 81 30t69 81z" />
    <glyph glyph-name="e" unicode="e" horiz-adv-x="620" 
d="M621 348h30q-29 -158 -117 -245.5t-239 -88.5q-117 -1 -194.5 69t-92 170t6.5 201t100 171.5t190 70.5q57 0 96 -23t51.5 -58t8 -74.5t-32.5 -76.5t-72 -58q-79 -40 -172 -29q-5 -81 8.5 -150.5t53.5 -118t100 -49.5q55 0 104 25.5t82.5 67.5t56 92t32.5 104zM334 647
q-55 0 -95 -69.5t-51 -169.5q82 -11 154 24q53 26 76.5 78.5t1.5 95t-86 41.5z" />
    <glyph glyph-name="f" unicode="f" horiz-adv-x="483" 
d="M195 -70q123 88 195 188t93 230h33q-41 -254 -321 -454q5 -174 5 -199q-7 -383 -192 -383q-49 0 -80.5 49t-31.5 147q0 101 36.5 173t104.5 131q-2 32 -9 115q-41 529 -29 836q31 826 389 814h9q114 -7 137 -136q24 -135 -53 -331q-78 -198 -204 -322q-48 -47 -97 -75
q-3 -193 15 -783zM395 1546q-109 8 -159 -159q-42 -141 -52 -495l-4 -144q126 80 224 267q93 178 103 335q10 153 -74 188q-17 7 -38 8zM0 -643q12 1 21 13t14 35t8.5 47.5t4.5 59t1 62t-2 64t-3 56t-3 47.5t-2 30q-113 -113 -113 -263q0 -65 23.5 -109.5t50.5 -41.5z" />
    <glyph glyph-name="g" unicode="g" horiz-adv-x="925" 
d="M926 348h30q-32 -139 -90.5 -228.5t-183.5 -174.5q-8 -166 -31.5 -302t-68 -255t-121 -183.5t-178.5 -58.5q-62 4 -99.5 50t-47.5 109t-1 136q10 78 41.5 142.5t83 116t105 90t129.5 81.5l4 104v37q3 97 0 193q-78 -187 -226 -187q-108 0 -179.5 70t-85 169.5t7 199
t99 169.5t189.5 70q63 0 112.5 -36t80.5 -95v45q0 33 17 53t41.5 24.5t52 6.5t48.5 -2q41 -365 27 -708q203 142 244 364zM449 172q32 62 49 121q0 29 -1 89t-1 89q-9 41 -27 78q-49 98 -139 98q-55 -1 -91.5 -61.5t-46 -147t-3 -172.5t36.5 -146t73 -59q39 0 81 30t69 81z
M285 -823q47 -3 83 26.5t57.5 93t35.5 116t20.5 145.5t8.5 128t3 112q1 26 1 36q-69 -39 -118.5 -75t-95.5 -84t-74 -108t-38 -132q-6 -63 -1 -119t35.5 -95.5t82.5 -43.5z" />
    <glyph glyph-name="h" unicode="h" horiz-adv-x="831" 
d="M831 348h31q-6 -52 -18.5 -102.5t-34 -107.5t-58.5 -93.5t-83 -40.5q-77 -6 -123.5 26t-62.5 88.5t-20 126t-1.5 140.5t-0.5 130t-24 95.5t-65 36.5q-36 -1 -68 -22.5t-54.5 -57.5t-38.5 -72t-28 -77q0 -65 1 -167t1 -136q0 -33 -17 -53t-41.5 -24.5t-52 -6.5t-48.5 2
q-7 58 -13.5 133.5t-12 186t-6 222t7 236t23 235t46.5 211.5t74 172.5t107.5 112t145.5 35.5q116 -7 139 -137q23 -135 -54 -332t-203 -320q-48 -47 -97 -75q-2 -70 -2 -205q81 188 230 188q76 0 126.5 -28t72 -73.5t31 -104t5 -119.5t-8 -119.5t-6 -104t9 -74t38.5 -28.5
q25 -2 53.5 27.5t48.5 79.5q38 87 51 196zM395 1546q-107 8 -156 -156q-43 -140 -53 -496q-1 -36 -4 -146q126 79 223 266q94 178 104 335q9 154 -75 189q-19 7 -39 8z" />
    <glyph glyph-name="i" unicode="i" horiz-adv-x="366" 
d="M367 348h30q-3 -12 -11.5 -55.5t-14.5 -67t-18 -63.5t-25 -63.5t-31.5 -49t-43 -37.5t-54.5 -12q-41 0 -74 15t-53.5 48.5t-36 64.5t-22 86.5t-11 88.5t-3 96.5t2.5 84.5t4 77q1 26 2 37q1 19 2.5 32t6.5 23.5t7.5 17t13.5 11.5t17.5 7t25 3t30 1t40 -0.5t46.5 -0.5
q0 -20 -7.5 -100.5t-14 -169t-8 -178.5t12.5 -148.5t45 -58.5q85 0 142 311zM131 899q-38 0 -65 28t-27 66t27 65t65 27t66 -27t28 -65t-28 -66t-66 -28z" />
    <glyph glyph-name="j" unicode="j" horiz-adv-x="430" 
d="M430 348h33q-32 -139 -91.5 -228.5t-185.5 -174.5q-6 -131 -21 -243t-45.5 -219.5t-73.5 -181.5t-109.5 -117t-149.5 -38q-46 3 -79.5 30.5t-48 69t-20.5 93t3 102.5q8 63 31.5 118t54.5 97t77 82t90.5 69.5t104.5 63.5q2 98 2 214.5t-1 273t-1 251.5q1 33 18.5 53
t42 24.5t51.5 6.5t48 -2q43 -337 28 -708q201 141 242 364zM-211 -823q47 -3 83.5 26.5t58 94.5t35.5 117t21 146.5t8.5 128t3.5 111.5q1 24 1 33q-69 -39 -118.5 -75t-96.5 -84t-75 -108t-38 -132q-7 -65 0 -119.5t37 -94.5t80 -44zM61 891q-38 0 -65 28t-27 66t27 65
t65 27q39 0 67 -27t28 -65t-28.5 -66t-66.5 -28z" />
    <glyph glyph-name="k" unicode="k" horiz-adv-x="714" 
d="M715 348h30q-8 -38 -14.5 -64t-19 -64.5t-25.5 -65t-33.5 -56.5t-43.5 -48.5t-55.5 -31t-70.5 -12.5q-101 0 -129 103q-5 19 -11 49.5t-10 51.5t-12.5 45.5t-20 40t-31.5 27t-48 13.5h-12q-5 12 -5 29t15 18q2 1 9 2t20.5 4t25.5 6q35 19 62 72.5t26.5 102.5t-34.5 55
q-25 4 -50 -18.5t-44.5 -61.5t-31.5 -69t-20 -58q0 -65 1 -167t1 -136q0 -33 -17 -53t-41.5 -24.5t-52 -6.5t-48.5 2q-7 58 -13.5 133.5t-12 186t-6 222t7 236t23 235t46.5 211.5t74 172.5t107.5 112t145.5 35.5q116 -7 139 -137q23 -135 -54 -332t-203 -320
q-48 -47 -97 -75q-2 -70 -2 -205q34 80 94 136.5t136 55.5q103 -3 136 -76q28 -65 -14 -139q-49 -85 -153 -111l-14 -3q52 -13 82.5 -42.5t38 -63.5t10 -70.5t0.5 -66.5t7 -49.5t32 -19.5q32 -1 60.5 21.5t47 54.5t34.5 75t24 74.5t14 63.5zM395 1546q-107 8 -156 -156
q-43 -140 -53 -496q-1 -36 -4 -146q126 79 223 266q94 178 104 335q9 154 -75 189q-19 7 -39 8z" />
    <glyph glyph-name="l" unicode="l" horiz-adv-x="495" 
d="M283 47q44 4 82.5 35.5t64 79.5t42 94.5t24.5 91.5h30q-12 -55 -25.5 -98t-37 -92t-53 -81.5t-74.5 -54.5t-100 -22q-48 0 -86.5 22t-64.5 63t-45 88.5t-29 110t-16.5 114.5t-7.5 115.5t-1 100.5t2 80q3 116 13 219t28.5 207.5t49.5 186t73 145.5t102.5 96.5t134.5 28.5
q116 -7 139 -137q23 -135 -54 -332t-203 -320q-48 -47 -97 -75q0 -7 -2.5 -67.5t-3 -111.5t0 -127t7.5 -134.5t18.5 -114t34.5 -84.5t54 -27zM387 1546q-107 8 -156 -156q-43 -140 -53 -496q-1 -36 -4 -146q126 79 223 266q94 178 104 335q9 154 -75 189q-19 7 -39 8z" />
    <glyph glyph-name="m" unicode="m" horiz-adv-x="1282" 
d="M1282 348h31q-6 -50 -19 -102t-36 -108t-61 -93t-85 -41q-58 -5 -98.5 12.5t-60.5 50.5t-31.5 78t-11 96.5t0.5 104.5q3 58 1 112t-8 96t-26 67.5t-53 25.5q-31 -1 -59 -26t-49.5 -66.5t-37 -85t-26.5 -90.5q0 -32 -1 -133t-1 -144q0 -46 -43.5 -60.5t-138.5 -14.5v399
q2 50 -1 85.5t-12 66.5t-29.5 46.5t-51.5 14.5q-114 0 -185 -221q-2 -119 -2 -303q0 -37 -20 -59.5t-48.5 -27.5t-59.5 -7t-52 2q-16 145 -2 595q0 19 5.5 32.5t15.5 21.5t24.5 13t32.5 6.5t39 2.5t45 0h27q-5 -158 -5 -186q81 188 232 188q113 0 165 -57t62 -156
q24 92 81.5 152t146.5 63q55 3 103 -23t75 -77q26 -50 32 -126.5t0 -147.5t-10.5 -136t5.5 -104t42 -39q25 -2 54.5 27.5t50.5 79.5q35 79 53 196z" />
    <glyph glyph-name="n" unicode="n" horiz-adv-x="831" 
d="M831 348h31q-6 -51 -19 -102.5t-35.5 -107.5t-60 -93t-83.5 -41q-68 -6 -112 18.5t-62 69t-26 103t-4 120.5t4 121.5t-3.5 106.5t-25 75.5t-60.5 28.5q-36 -1 -67.5 -22.5t-54.5 -58t-39.5 -72t-29.5 -76.5q-1 -60 -1 -162t-1 -141q-1 -33 -18.5 -53t-42 -24.5
t-52.5 -6.5t-49 2q-28 248 -20 585q0 19 5.5 32.5t15.5 21.5t24 13t32 6.5t39 2.5t45 0h27q-4 -126 -4 -186q81 188 232 188q71 0 119 -28t69 -73.5t31 -104t7 -120t-5.5 -120t-5 -104t8 -73.5t34.5 -28q26 0 54.5 28.5t49.5 78.5q41 93 53 196z" />
    <glyph glyph-name="o" unicode="o" horiz-adv-x="729" 
d="M729 348h31q-12 -65 -37 -123.5t-63.5 -110t-95 -82.5t-124.5 -32q-68 0 -116 25q-28 -7 -52 -7q-108 0 -179.5 70t-85 169.5t7 199t99 169.5t189.5 70q78 0 133 -38t79.5 -97.5t28 -134t-14 -145t-55 -132.5t-87.5 -96q34 -20 80 -20q57 0 110 41.5t91 107.5
q41 69 61 166zM338 109q18 -27 22 -31q43 23 76 75.5t49.5 115.5t17.5 130.5t-15 122.5t-54.5 90t-93.5 35q-58 0 -96.5 -55t-49.5 -136t-7 -164t28.5 -147.5t60.5 -78.5q-7 14 -4 30q18 32 26.5 40.5t16 3t23.5 -30.5z" />
    <glyph glyph-name="p" unicode="p" horiz-adv-x="854" 
d="M854 348h31q-68 -359 -383 -364q-149 -1 -205 72q-34 45 -15 88q17 39 62 36q24 -2 42 -15t17 -30q49 40 71.5 127t16.5 172t-39.5 149.5t-86.5 63.5q-45 -1 -84 -37t-61 -79.5t-40 -98.5q14 -231 6 -448l-2 -39q-6 -131 -21 -243t-45.5 -219.5t-73.5 -181.5t-109.5 -117
t-149.5 -38q-46 3 -79.5 30.5t-48 69t-20.5 93t3 102.5q8 63 31.5 118t54.5 97t77 82t90.5 69.5t104.5 63.5q2 35 2 104l2 37q1 110 -1.5 313.5t-2.5 284.5q1 33 18.5 53t42 24.5t51.5 6.5t48 -2q9 -61 18 -184q77 188 227 188q79 0 141 -43t94 -108t37 -144.5t-18.5 -151
t-84.5 -128.5t-150 -76q5 -3 10 -5.5t11 -4.5t10 -3.5t11.5 -2.5t11 -1.5t12.5 -0.5h11.5h12.5h12q72 1 129.5 25.5t96.5 69t64.5 101t39.5 125.5zM-213 -823q47 -3 83.5 26.5t58 94.5t35.5 117t21 146.5t8.5 128t3.5 111.5q1 24 1 33q-69 -39 -118.5 -75t-96.5 -84
t-75 -108t-38 -132q-7 -65 0 -119.5t37 -94.5t80 -44z" />
    <glyph glyph-name="q" unicode="q" horiz-adv-x="880" 
d="M657 -297q59 -25 99.5 -74.5t51.5 -104.5t4 -106t-41 -85t-85 -35q-37 -1 -67.5 12t-52 41t-38 59.5t-27 79t-17 88t-10 98t-5 96t-2.5 95.5q-3 132 0 276q-75 -125 -195 -125q-108 0 -179.5 70t-85 169.5t7 199t99 169.5t189.5 70q119 0 186 -121q5 35 5 46
q2 23 12 38.5t21 23t33 11t35 4t41.5 -0.5t39.5 -1q-5 -148 -21 -475.5t-20 -496.5q183 288 246 624h30q-36 -182 -96 -335.5t-158 -309.5zM469 213q3 140 16 299q-5 15 -16 37q-49 98 -139 98q-55 -1 -91.5 -61.5t-46 -147t-3 -172.5t36.5 -146t73 -59q39 0 81 30t69 81z
M705 -664q56 3 75.5 73t-19 153t-126.5 116q-3 -135 6 -235q13 -111 64 -107z" />
    <glyph glyph-name="r" unicode="r" horiz-adv-x="593" 
d="M594 348h31q-6 -52 -19 -104.5t-36 -110t-62 -93.5t-88 -36q-62 0 -104 29t-61.5 81t-26.5 107t-5 125q1 15 2.5 47.5t2 47.5t0 43t-2.5 42t-7 35.5t-12.5 32.5t-20 24.5t-28.5 19t-38.5 9t-50.5 2.5q-6 -97 -37 -301h-31q32 205 37 301q-110 -20 -160 48q-38 50 -20 112
q18 58 75 74q17 4 37 4q30 0 51 -11.5t30.5 -29.5t15 -41t5 -46t-0.5 -44q156 6 223 -13q53 -15 84 -62.5t37 -115.5q6 -61 1 -125.5t-10 -128t-8 -113.5t6.5 -81t34.5 -31q26 -2 55.5 27.5t49.5 79.5q33 80 51 196zM39 713q8 133 -39 133q-24 0 -34 -33q-13 -43 14 -75
q20 -24 59 -25z" />
    <glyph glyph-name="s" unicode="s" horiz-adv-x="565" 
d="M444 350q23 -61 23.5 -120.5t-21.5 -109.5t-73.5 -83t-126.5 -39q-60 -4 -109 21t-73.5 67.5t-30.5 95t20 103.5q8 19 31 20q19 1 18 -15q-1 -9 -8 -20q-22 -33 -23 -75.5t15 -78.5t49 -58.5t74 -18.5q55 5 88.5 62.5t11.5 138.5q-14 57 -60.5 122t-102 136.5
t-80.5 130.5q-11 -139 -35 -281h-31q33 199 43 377q-3 166 176 166q48 0 77.5 -26.5t32 -60.5t-24 -66.5t-77.5 -43.5q16 -27 104 -154t113 -190zM252 850q-22 -1 -34 -16t-13.5 -36.5t1 -41t7.5 -33.5q72 6 86 54q10 35 -15 60q-14 14 -32 13z" />
    <glyph glyph-name="t" unicode="t" horiz-adv-x="499" 
d="M500 348h30q-16 -71 -36 -124.5t-54.5 -108.5t-89.5 -85t-127 -30q-204 0 -235 475q-6 138 -5.5 222t4 199t3.5 142q-107 39 -170 39q-51 0 -72.5 -24t-11.5 -60q5 -18 -7 -30t-27 -8t-19 26q-9 49 29.5 86.5t105.5 38.5q55 2 172 -35q0 31 3 90t3 86q0 19 1 32t5.5 24.5
t8.5 18t17 11.5t22 7.5t33 4t42 1.5h55q0 -45 -2 -158t-2 -174q82 -19 125 -17q57 0 81 27t5 74q-4 10 6.5 18t23.5 7.5t17 -11.5q24 -61 -16.5 -103t-114.5 -42q-61 0 -127 16q-6 -72 -9 -207.5t1.5 -308.5t34 -296.5t82.5 -123.5q54 0 102.5 55t74.5 120t38 126z" />
    <glyph glyph-name="u" unicode="u" horiz-adv-x="831" 
d="M831 348h31q-3 -14 -11.5 -56t-14.5 -66t-17.5 -63.5t-24.5 -64t-31.5 -49.5t-43.5 -37t-55 -12q-52 -1 -90 25t-59.5 73t-32.5 99t-15 118q-13 -51 -27.5 -91.5t-37.5 -84.5t-51 -72.5t-68.5 -47.5t-89.5 -19q-58 0 -99 40t-59.5 103t-29 142t-9 157t1.5 148
q0 23 3.5 38t7.5 27t16.5 19t23 11.5t35 6t44 2t58.5 0.5q-1 -19 -5 -77.5t-7 -110t-5 -120t2 -123t12.5 -103.5t27.5 -76t47 -27q36 0 68 28.5t52.5 66.5t39.5 96.5t28 95.5t19 88q3 96 10 166q1 19 2 32t6 23.5t8 17t14 11.5t17 7t25 3t30 1t40 -0.5t47 -0.5
q0 -19 -8 -100.5t-14.5 -169.5t-8.5 -178.5t12 -148.5t45 -58q84 0 141 311z" />
    <glyph glyph-name="v" unicode="v" horiz-adv-x="679" 
d="M694 639q11 6 20 -6q9 -14 -9 -25q-104 -60 -199 -49q-7 -34 -19 -94.5t-19.5 -98t-20.5 -91t-25 -87.5t-31 -72t-39.5 -59.5t-49 -36t-62.5 -14.5q-50 -1 -90 22t-66.5 62t-45.5 91.5t-28.5 108t-14 116t-4 110t4.5 94.5q3 48 46.5 70t147.5 18q0 -11 -0.5 -52
t-0.5 -76.5t0.5 -89.5t2.5 -99t5.5 -96.5t10 -90.5t15.5 -72t22 -51t29 -18q20 0 38.5 13.5t34.5 39.5t29.5 55t25.5 70.5t21 74.5t18.5 78.5t14.5 71.5t11.5 63.5t7.5 45.5q-96 25 -137 108t-7.5 155t122.5 71q34 0 52 -31t20 -82t-1.5 -96.5t-11.5 -93.5h2q0 -2 -2 -4
q36 -12 87 4t95 43zM483 612q37 256 -30 256q-20 -1 -26.5 -50.5t8.5 -112t48 -93.5z" />
    <glyph glyph-name="w" unicode="w" horiz-adv-x="1085" 
d="M1112 639q8 4 16 -0.5t8 -14t-12 -16.5q-104 -59 -200 -49q-4 -20 -12 -74t-16 -98t-21.5 -104t-31.5 -105t-42 -86t-57.5 -63.5t-73.5 -22.5q-57 -1 -101 25.5t-71.5 74t-43.5 102t-24 120.5q-9 -47 -16.5 -79t-20.5 -74.5t-30 -70t-40 -53.5t-56 -38.5t-74 -12.5
q-58 0 -99 40t-59.5 103t-29 142t-9 157t1.5 148q0 23 3.5 38t7.5 27t16.5 19t23 11.5t35 6t44 2t58.5 0.5q-1 -19 -5 -77.5t-7 -110t-5 -120t2 -123t12.5 -103.5t27.5 -76t47 -27q21 0 39.5 15t34 46.5t27 60t23.5 77.5t17.5 74.5t15.5 73.5q5 24 7 34q0 53 4 127
q3 48 47 70t148 16q0 -598 84 -598q25 0 48 22t40.5 62t31.5 83.5t25.5 99.5t19 96.5t15 87.5t10.5 61q-96 25 -137 108t-8.5 155t120.5 71q34 0 53 -31.5t21 -83.5t-2 -97.5t-12 -92.5q36 -14 87 2t95 43zM901 612q37 256 -31 256q-19 -1 -25 -50.5t8.5 -112t47.5 -93.5z
" />
    <glyph glyph-name="x" unicode="x" horiz-adv-x="602" 
d="M602 348h31q-10 -45 -25.5 -89.5t-42 -94t-58.5 -86.5t-79 -60.5t-100 -21.5q-159 5 -273 227q-140 -201 -133 -278q1 -22 -19 -26q-18 -4 -21 10q-1 2 -1 5q0 13 2.5 26.5t8.5 30.5t11.5 30t17.5 34.5t18.5 34t23.5 38.5t24.5 37.5t28 42.5t27.5 42q-42 86 -72.5 182.5
t-38.5 163.5q-7 51 15.5 75t61 24.5t85.5 -0.5q18 -1 27 -1q0 -1 59 -243q245 326 201 393q-18 27 -8.5 41t33.5 0q26 -15 27 -49t-21 -80.5t-49 -92t-66.5 -97t-63.5 -81.5t-49 -59l2 -8q94 -367 197 -367q71 0 128.5 83.5t90.5 213.5z" />
    <glyph glyph-name="y" unicode="y" horiz-adv-x="888" 
d="M889 348h31q-32 -139 -91 -228.5t-184 -174.5q-8 -166 -31.5 -302t-68 -255t-121 -183.5t-178.5 -58.5q-62 4 -99.5 50t-47.5 109t-1 136q10 78 41.5 142.5t83 116t105 90t129.5 81.5l4 104v37q1 41 1 87t-0.5 103.5t-0.5 88.5q-17 -61 -37 -107t-51.5 -91t-77 -69
t-102.5 -24q-58 0 -99 40t-59.5 103t-29 142t-9 157t1.5 148q0 23 3.5 38t7.5 27t16.5 19t23 11.5t35 6t44 2t58.5 0.5q-1 -19 -5 -77.5t-7 -110t-5 -120t2 -123t12.5 -103.5t27.5 -76t47 -27q33 0 63 24.5t50 58t38.5 85.5t28.5 89.5t21 86.5l-1 105q0 104 1 104
q0 33 17 53t41.5 24.5t52 6.5t48.5 -2q41 -365 27 -708q203 142 244 364zM248 -823q47 -3 83 26.5t57.5 93t35.5 116t20.5 145.5t8.5 128t3 112q1 26 1 36q-69 -39 -118.5 -75t-95.5 -84t-74 -108t-38 -132q-6 -63 -1 -119t35.5 -95.5t82.5 -43.5z" />
    <glyph glyph-name="z" unicode="z" horiz-adv-x="698" 
d="M729 348q-28 -127 -64.5 -197t-119.5 -137q62 -132 54 -314t-81 -333q-38 -78 -101 -137t-129.5 -82t-126.5 -17t-100 60t-43 147q-6 127 50 248q27 60 63.5 112t88 99.5t91.5 78.5t107 79q-24 198 -121 195q-14 0 -80 -21q-16 -4 -31 25q-2 4 0.5 8.5t10 12t8.5 9.5
q44 51 87.5 163t39.5 213.5t-88 101.5q-46 0 -84.5 -31.5t-63.5 -84t-40 -99.5t-25 -99h-31q12 52 22.5 91t32 91t46.5 87t64 61.5t85 30.5q64 5 114 -15t77 -57.5t40.5 -85.5t5.5 -102t-29.5 -105t-64 -96.5t-98.5 -73.5q154 8 235 -133q69 58 108.5 129t59.5 178h31z
M346 -639q42 124 62.5 279t11.5 280q-58 -42 -95 -71t-85 -73.5t-84 -94.5t-62 -107q-51 -111 -45 -233q3 -109 56 -157t124 -2t117 179z" />
    <glyph glyph-name="braceleft" unicode="{" horiz-adv-x="1005" 
d="M938 1802q21 -2 21 -17.5t-21 -15.5q-87 0 -147.5 -26t-91.5 -71t-47.5 -104.5t-20.5 -129.5t-5 -141.5t-6 -144.5t-19 -136t-49 -117.5t-91 -87.5q65 -57 101 -144.5t45 -177t10.5 -185t6.5 -173.5t24.5 -136.5t72.5 -80.5t143 0q28 7 27 -10q-2 -14 -20 -22l-5 -1
q-91 -26 -159.5 -20t-115.5 29t-79 69.5t-49 100t-26 121.5t-11 133.5t-3 135.5t-1.5 128.5t-7.5 112.5t-21 87q-68 -23 -129 -26q-90 -6 -122 38q-24 34 6 65q38 41 128 34q74 -3 132 -39q19 26 27.5 87t9 135.5t6.5 163t17 173t43.5 162t82.5 133t138 83t206 15.5z
M262 782q63 3 111 31q-36 42 -99 45q-81 6 -105 -25q-16 -21 11 -38t82 -13z" />
    <glyph glyph-name="bar" unicode="|" horiz-adv-x="479" 
d="M250 2023q0 -2111 -2 -2723q0 -3 -1.5 -5t-4.5 -3.5t-6 -2t-8.5 -0.5h-9.5h-10.5h-10.5q2 612 2 2722q0 2 1 4t3 3l4 2t5.5 1.5t6.5 1t7.5 0.5h7.5h8h8z" />
    <glyph glyph-name="braceright" unicode="}" horiz-adv-x="1013" 
d="M70 1802q118 12 206 -15.5t138 -83t82.5 -133t43.5 -162t17 -173t6.5 -163t9 -135.5t27.5 -87q58 36 131 39q97 7 132 -38q26 -34 -2 -66q-34 -39 -118 -33q-61 3 -129 26q-14 -33 -21 -87t-7.5 -112.5t-1.5 -128.5t-3 -135.5t-11 -133.5t-26 -121.5t-49 -100t-79 -69.5
t-115.5 -29t-159.5 20q-19 4 -24 20q-4 14 13 15q6 0 13 -2q75 -15 119 -7.5t72 44t37 84.5t14 114.5t4 134.5t6 143.5t20 142.5t46.5 131.5t85.5 109.5q-56 33 -91 87.5t-49 117.5t-19 136t-6 144.5t-5 141.5t-20.5 129.5t-47.5 104.5t-91.5 71t-147.5 26q-21 0 -21 15.5
t21 17.5zM745 782q72 -5 93 23q16 21 -12 39q-31 18 -93 14q-62 -3 -98 -45q48 -28 110 -31z" />
    <glyph glyph-name="asciitilde" unicode="~" horiz-adv-x="876" 
d="M709 967q20 -40 21 -93t-14 -99.5t-45 -80t-67 -35.5q-44 -3 -79 8.5t-56 30.5t-42 42.5t-37 44t-41 34.5t-54 15q-69 2 -101.5 -50.5t-7.5 -128.5q-25 -18 -30 4q-14 63 -0.5 132.5t51.5 118.5t90 48q40 -1 70.5 -19t51.5 -43.5t42 -50t53 -42t74 -17.5q61 3 93.5 45.5
t10.5 100.5q-8 24 17 35z" />
    <glyph glyph-name="exclamdown" unicode="&#xa1;" horiz-adv-x="555" 
d="M266 1581q-38 0 -66 28t-28 66t28 65t66 27t65 -27t27 -65t-27 -66t-65 -28zM317 1432q-4 -221 10.5 -664.5t10.5 -665.5q-1 -29 -8 -47t-16.5 -28t-34.5 -14.5t-44 -5.5t-63 -1q4 206 29.5 670.5t25.5 712.5q0 8 0.5 13.5t1.5 10t4 7.5t4.5 5.5t7 3.5t8.5 2t12 1h14
h17.5h20.5z" />
    <glyph glyph-name="cent" unicode="&#xa2;" horiz-adv-x="1292" 
d="M1022 346q4 6 9.5 9t9.5 3.5t14.5 0t15.5 -0.5q-30 -44 -49.5 -70t-49 -61t-56 -55.5t-61.5 -40.5t-75.5 -30t-87.5 -11q-162 -6 -284 68l-74 -232q-1 -4 -4 -6.5t-9.5 -3t-11 -1t-14 0t-14.5 0.5l86 270q-76 58 -128.5 146t-77 189t-24 212.5t24 217t73 202t118 169
t164.5 115t206 42.5q8 0 25.5 -1t25.5 -1q4 12 37 118t51 162q1 4 4.5 6.5t10.5 3t11.5 1t14 0t12.5 -0.5q-7 -22 -41 -131t-53 -168q86 -17 154 -62.5t109 -107.5t61.5 -136.5t18 -148.5t-28 -144.5t-70.5 -125t-115.5 -88t-156.5 -34.5q-136 0 -207 98l-144 -453
q96 -153 246 -147q116 4 194.5 62.5t139.5 164.5zM723 1448q-88 0 -162 -57t-120.5 -150t-74.5 -213.5t-31.5 -244t16 -244.5t61.5 -213l141 450q-27 62 -31.5 137t13.5 140q6 18 21.5 13.5t10.5 -22.5q-27 -95 2 -213l195 615q-12 2 -41 2zM811 1432l-213 -674
q53 -104 154 -107q66 -1 117.5 48.5t78.5 126t34 170t-8.5 180t-57.5 157t-105 99.5z" />
    <glyph glyph-name="sterling" unicode="&#xa3;" horiz-adv-x="1773" 
d="M1436 483q117 2 182 -98q59 -90 43 -206q-17 -127 -114 -196q-81 -57 -199 -55q-109 -1 -206.5 17.5t-174.5 49.5t-143 64t-142 67t-141 52q-59 -164 -181 -192q-104 -24 -156 45q-44 58 -26 137q20 87 102 127q58 30 138 24q1 42 -1 98.5t-4.5 96t-8 119t-7.5 112.5
q-174 -8 -266 -10q22 113 35 113q75 4 225 8q-2 96 -4 190t9.5 184t30 170.5t57.5 149t92 119t134 81t183 34.5q82 3 158.5 -17.5t144 -64t119.5 -119.5t78 -176q17 -76 14.5 -151t-34 -144t-78 -121.5t-118 -84t-155.5 -32.5q-96 -1 -167 40t-107 108t-50 150t-4 168.5
t39 162.5q4 9 12 9.5t13.5 -7t1.5 -16.5q-34 -86 -38.5 -189t19.5 -194t90 -151t164 -56q55 2 100 34t73.5 83t46.5 116t18 134.5t-12 138.5q-36 182 -125 268t-201 84q-55 -1 -101 -19.5t-79.5 -48t-59.5 -75t-43 -94.5t-28 -114t-16.5 -125t-7 -136t0 -139.5t4.5 -141.5
q80 2 250 10q-4 -20 -8 -45t-5.5 -33.5t-7 -19t-14 -13t-24.5 -3.5q-59 -4 -185 -8q1 -18 3 -61t2.5 -62t2 -56.5t2 -57t0.5 -51t-0.5 -51t-1.5 -43t-3 -42.5t-5 -35q81 -21 186 -65t184 -80.5t185.5 -66t206.5 -30.5q173 -3 255 95q61 72 43 161q-17 84 -96 124
q-43 22 -99 24q-12 0 -12 14t12 14zM293 8q94 0 117 193q-110 8 -162.5 -33t-38.5 -92q7 -28 28 -48t56 -20z" />
    <glyph glyph-name="yen" unicode="&#xa5;" horiz-adv-x="1443" 
d="M1245 764h-155q-14 -119 -29 -199h221q-4 -13 -8 -28t-5 -20.5t-5 -13t-5.5 -9t-9.5 -3.5t-14 -2h-21h-167q-43 -182 -95 -294q-46 -101 -124 -172t-165 -102t-179 -28.5t-168 38t-130 109t-67 173.5q-12 94 12 189.5t74 157.5t108 65q18 1 19 -12q1 -15 -19 -20l-4 -1
q-47 -7 -88.5 -65.5t-61.5 -146.5t-7 -173q11 -72 54 -130t101.5 -91.5t128 -40t134 15t120 84t84.5 158.5q33 112 57 284h-213q23 76 35 76h187q12 102 18 201q-36 0 -108.5 -1t-108.5 -1q23 76 35 76q125 0 186 2q10 146 15 377q-26 -76 -55 -134.5t-72.5 -113.5t-104 -83
t-133.5 -24q-47 2 -84.5 24t-61.5 62t-41 86.5t-24.5 110.5t-11.5 119.5t-1.5 128.5t5.5 123t8 116q5 67 26 93.5t75 32t149 -2.5q-2 -26 -11.5 -99.5t-16.5 -140.5t-14.5 -154t-6 -158t9 -134t30 -99t58.5 -38q37 -2 70.5 16.5t61 55t50 77t42.5 95t32.5 94.5t26.5 90
l12 268q2 29 12.5 49.5t31 31t37 16t47 5t43.5 -1.5t42 -4q15 -250 10 -512q-4 -182 -20 -372h207q-4 -14 -9 -32.5t-6.5 -23.5t-7 -11.5t-13.5 -7.5t-24 -1z" />
    <glyph glyph-name="dieresis" unicode="&#xa8;" horiz-adv-x="708" 
d="M469 1120q38 0 65 -28t27 -66t-27 -65t-65 -27t-66 27t-28 65t28 66t66 28zM229 1120q38 0 66.5 -28t28.5 -66t-28 -65t-67 -27q-38 0 -65 27t-27 65t27 66t65 28z" />
    <glyph glyph-name="copyright" unicode="&#xa9;" horiz-adv-x="2844" 
d="M2247 1497q163 -161 253.5 -374.5t90.5 -452.5t-90.5 -453t-253.5 -377q-161 -161 -375 -251.5t-453 -90.5q-238 0 -452 90t-377 252q-162 163 -252 377.5t-90 452.5q0 239 90 452t252 375q163 163 376.5 253.5t452.5 90.5t453 -90.5t375 -253.5zM2224 -135
q158 157 246 365t88 440q0 231 -88 439t-246 366t-366 245.5t-439 87.5q-233 0 -441 -87.5t-364 -245.5q-158 -158 -245.5 -366t-87.5 -439q0 -233 87.5 -441t245.5 -364q157 -158 365 -246t440 -88q231 0 439 88t366 246zM1522 561q64 -3 107 -48t54 -104.5t-10 -124.5
t-74 -104q-65 -49 -160 -48.5t-161 50.5q-59 44 -93.5 124.5t-37.5 171.5t16 188q-59 45 -82 114t-8 136.5t60 115.5q61 64 158.5 67t152.5 -69q24 8 55 8q55 0 91 -20.5t49.5 -55.5t11.5 -77t-19 -88q-27 -70 -90.5 -120t-140 -63.5t-156.5 9.5q-20 -141 4.5 -264
t91.5 -177q41 -34 97 -35t98 35q38 34 54.5 97.5t10.5 122t-32.5 102.5t-67.5 43q-68 -3 -102.5 -63t-24.5 -134q0 -7 -8 -7q-6 0 -6 5q-11 85 34 151t128 62zM1460 942q-3 37 -18 64q-73 -37 -124 -138t-71 -231q65 -25 141.5 -11.5t133.5 54.5q48 33 79.5 89.5t38 111.5
t-25 97t-98.5 46q-25 3 -62 -10q17 -33 23 -70q3 -46 -9 -90q-20 -72 -79 -96q-14 -7 -14 3q0 5 7 9q51 20 72 88q12 40 6 84zM1221 1030q-53 -61 -69 -154.5t22 -168.5q32 116 98 202t158 117q-41 55 -102 56t-107 -52z" />
    <glyph glyph-name="guillemotleft" unicode="&#xab;" horiz-adv-x="1396" 
d="M594 834q310 393 592 757q0 -16 1.5 -38.5t2 -34.5t0 -25.5t-2.5 -22t-7 -14.5l-535 -684l569 -573q6 -6 9.5 -12.5t5.5 -12.5t2.5 -18t0.5 -22t0.5 -32.5t0.5 -40.5l-633 641q-17 15 -18.5 64.5t12.5 67.5zM168 834q310 393 592 757q0 -16 1.5 -38.5t2 -34.5t0 -25.5
t-2.5 -22t-7 -14.5l-535 -684l569 -573q6 -6 9.5 -12.5t5.5 -12.5t2.5 -18t0.5 -22t0.5 -32.5t0.5 -40.5l-633 641q-17 15 -18.5 64.5t12.5 67.5z" />
    <glyph glyph-name="registered" unicode="&#xae;" horiz-adv-x="2768" 
d="M2204 1497q163 -161 253.5 -374.5t90.5 -452.5t-90.5 -453t-253.5 -377q-161 -161 -375 -251.5t-453 -90.5q-238 0 -452 90t-377 252q-162 163 -252 377.5t-90 452.5q0 239 90 452t252 375q163 163 376.5 253.5t452.5 90.5t453 -90.5t375 -253.5zM2181 -135
q158 157 246 365t88 440q0 231 -88 439t-246 366t-366 245.5t-439 87.5q-233 0 -441 -87.5t-364 -245.5q-158 -158 -245.5 -366t-87.5 -439q0 -233 87.5 -441t245.5 -364q157 -158 365 -246t440 -88q231 0 439 88t366 246zM1837 289q-4 10 4 11q4 1 6 -5q15 -35 -5 -64
t-58 -32q-56 -2 -96 37t-65 97.5t-49.5 118.5t-64.5 107.5t-94 56.5q-4 0 -6 6.5t-0.5 13t6.5 5.5h10q90 -3 143.5 100.5t44 209t-72.5 108.5q-26 0 -47 -11t-36 -33.5t-25.5 -46.5t-18.5 -60.5t-13 -63.5t-11.5 -68t-10.5 -63q0 -3 -5 -24t-5 -25q1 -76 -3.5 -134.5
t-20 -121.5t-42.5 -104t-74.5 -67.5t-113.5 -27.5q-114 -1 -172 101q-50 88 -34 196q17 105 88 147q31 18 69 19q52 2 87 -26.5t48 -74t9.5 -98.5t-23.5 -100q-4 -10 -9 -3q-3 3 -1 9q21 51 23.5 105.5t-17.5 99.5q-14 34 -40.5 54t-54.5 22.5t-55 -18.5t-41 -64
q-14 -44 -15 -104t11 -116.5t46 -95.5t83 -39t83.5 26t53 68.5t29 101.5t11.5 121t-0.5 130t-5 126.5t-3 113t5.5 85.5q-94 -31 -136 -85.5t-44 -114.5q-2 -77 38 -88q30 -9 55 25q23 34 18 81q-1 7 4 9q5 -2 6 -7q11 -75 -36.5 -109t-100.5 -8.5t-56 93.5q-2 33 12 66.5
t43.5 66t82 58t120.5 38.5q10 46 39 71t60 25q31 1 44 -21t1 -46t-41 -29l-35 -6q-3 -64 -3.5 -86.5t2 -102.5l3.5 -112q3 16 9.5 62t12 79t18.5 77t29 72t43 48t62 20q98 0 132 -86q32 -81 -7 -182q-41 -105 -132 -150q-30 -14 -63 -20q55 -15 97.5 -53.5t65.5 -85
t42.5 -97.5t32.5 -92.5t32 -68t44 -25.5q31 2 48 26t5 52zM1411 1100q-14 0 -26.5 -17.5t-18.5 -52.5q11 0 31 4q32 5 37 34q3 24 -15 31q-4 1 -8 1z" />
    <glyph glyph-name="degree" unicode="&#xb0;" horiz-adv-x="956" 
d="M690 1495q87 -5 118 -97q31 -95 -11 -214q-46 -132 -152 -195q-69 -41 -153 -41h-13q-136 0 -224.5 86.5t-104.5 210t10.5 247t120 210t223.5 86.5h12q143 0 204.5 -79.5t45.5 -197.5q-2 -13 -18 -12q-12 3 -11 14q15 108 -40 183t-181 78q-61 -1 -110.5 -46
t-77.5 -116.5t-43 -157.5t-7 -172t30 -157.5t68.5 -116.5t108.5 -47q144 4 233 130q70 99 72 219q2 109 -58 152q-23 17 -54 19q-12 1 -11 7q0 9 23 7z" />
    <glyph glyph-name="twosuperior" unicode="&#xb2;" horiz-adv-x="923" 
d="M795 928q33 -6 36 -45q4 -49 -41 -88q-49 -43 -133 -41h-12q-23 1 -45 5t-48 14t-40 16t-46 21.5t-42 20.5q-43 -33 -97 -54.5t-102 -20.5h-12q-41 0 -52 34q-14 40 27 77q52 47 160 48h12q26 2 66 -6q82 105 136.5 257.5t62.5 279.5q6 93 -11.5 167t-64.5 121.5
t-119 47.5q-101 -3 -158 -87.5t-69 -199.5q-16 -176 67 -180q65 3 102 60t34 128q0 13 14 13t14 -13q3 -93 -53.5 -153t-128.5 -60h-12q-62 0 -103.5 51t-38.5 150q2 56 22.5 110t58 99.5t98.5 73t135 26.5h30q147 -1 225.5 -101.5t69.5 -248.5q-10 -137 -77 -296t-171 -267
q32 -14 85.5 -46.5t74.5 -43.5q41 -16 64 -19q40 3 65 35t21.5 60.5t-19.5 37.5q-15 5 -5 13q9 6 20 4zM223 772q72 3 154 80l-29 10q-46 15 -78 15q-64 -1 -81 -44q-13 -31 9 -51q11 -9 25 -10z" />
    <glyph glyph-name="threesuperior" unicode="&#xb3;" horiz-adv-x="841" 
d="M498 1329q132 -18 197 -127q58 -100 32 -218q-29 -126 -140 -193q-90 -54 -214 -54q-160 0 -236 109q-61 87 -41 197q19 107 105 162q63 41 147 38q51 -1 86.5 -24.5t49.5 -58.5t18 -77.5t-8 -83.5q-1 -5 -9 -7.5t-15.5 0t-6.5 9.5q9 51 5.5 99.5t-34 84.5t-80.5 38
q-40 -2 -72 -29t-49 -69.5t-24.5 -92.5t1 -100t27 -90.5t54.5 -65t82 -22.5q124 -1 192 116q59 102 49 230q-11 127 -84 183q-43 34 -100 32q0 30 21 35q23 3 38 18q42 41 63.5 110.5t17.5 135t-42 115t-104 51.5q-94 -3 -140 -96.5t-24.5 -187t92.5 -97.5q69 3 115 63
t29 127q-2 7 4 9t13 0l7 -1q21 -81 -29 -145t-135 -70h-20q-95 -2 -145 78q-45 75 -23 167q25 100 120 145q58 27 134 26q83 -1 143.5 -30t89 -73.5t33.5 -99t-15 -105.5t-65.5 -95t-109.5 -66z" />
    <glyph glyph-name="acute" unicode="&#xb4;" horiz-adv-x="512" 
d="M190 1096q14 41 49.5 50t135.5 9q-16 -50 -40 -107t-55 -124.5t-47 -106.5q-9 -23 -26.5 -30t-67.5 -7q12 46 22 153t29 163z" />
    <glyph glyph-name="onesuperior" unicode="&#xb9;" horiz-adv-x="583" 
d="M322 1798q34 0 54.5 -94.5t26 -243.5t6 -286.5t-2.5 -271.5t-3 -150q-23 -2 -55 -2q-35 0 -49.5 7.5t-13.5 33.5q1 56 10 254t14.5 380t1.5 273q0 55 -10 65q-23 -21 -103.5 -233.5t-91.5 -229.5q-5 -9 -21 -5q-11 3 -5 12q18 27 64 154.5t91.5 232.5t73.5 104h13z" />
    <glyph glyph-name="ordmasculine" unicode="&#xba;" horiz-adv-x="942" 
d="M674 1427q110 -9 127.5 -177t-74.5 -333t-248 -165h-12q-96 0 -168.5 57t-108 148.5t-49.5 202t7.5 221t62 202t115 148.5t166.5 57h12q71 0 123.5 -28t80.5 -76t38 -107.5t2 -128.5q-1 -11 -9 -15.5t-15 0.5t-5 17q15 133 -38.5 224.5t-176.5 94.5q-59 -1 -108 -56.5
t-76 -143.5t-42 -194t-7 -212t29.5 -194t67 -143.5t105.5 -57.5q144 5 229 161t71 313.5t-111 166.5q-10 1 -11 7q-2 10 15 11h8z" />
    <glyph glyph-name="guillemotright" unicode="&#xbb;" horiz-adv-x="1386" 
d="M807 834q14 -18 12.5 -67.5t-18.5 -64.5l-633 -641v48.5t0.5 34.5t2 24t5 17t10.5 14l570 573l-535 684q-5 6 -7 14.5t-2.5 22t0 25.5t2 34.5t1.5 38.5q282 -364 592 -757zM1233 834q14 -18 12.5 -67.5t-18.5 -64.5l-633 -641v48.5t0.5 34.5t2 24t5 17t10.5 14l570 573
l-535 684q-5 6 -7 14.5t-2.5 22t0 25.5t2 34.5t1.5 38.5q282 -364 592 -757z" />
    <glyph glyph-name="onequarter" unicode="&#xbc;" horiz-adv-x="1441" 
d="M1305 252q7 -2 8.5 -8.5t-2.5 -11.5t-11 -3q-50 9 -88 2q0 -60 -1 -136t-1.5 -106t0.5 -63q-7 0 -28.5 -1.5t-33.5 -0.5t-27.5 4t-23 13t-7.5 26l8 246l-137 -31q-186 -41 -244 -47q-109 -11 -109 27q0 34 58.5 137.5t130.5 217t138 248t77 220.5q1 7 8.5 10t14 -0.5
t5.5 -11.5q-12 -104 -80.5 -277t-140 -330.5t-82.5 -207.5q90 6 207 31q103 23 156 32q18 503 12 641q-1 23 6.5 28t36.5 5h12q6 -15 9 -33q36 -164 36 -622q53 8 93 2zM395 711q-35 0 -49.5 7.5t-13.5 33.5q1 55 10 253t14.5 380t1.5 274q0 55 -10 65q-23 -22 -102.5 -234
t-91.5 -230q-6 -10 -22 -4q-11 3 -5 12q18 27 64 154t91.5 232t73.5 105h13q34 0 54.5 -94.5t26 -244t6 -287t-2 -272t-2.5 -150.5h-56zM932 1757q1 4 4.5 6.5t10 3t12 1t15 0t13.5 -0.5q-409 -1302 -581 -1841q-1 -4 -4.5 -6.5t-9.5 -3t-11 -1t-14.5 0t-14.5 0.5z" />
    <glyph glyph-name="onehalf" unicode="&#xbd;" horiz-adv-x="1617" 
d="M1466 131q33 -5 37 -44q5 -49 -39 -89q-50 -44 -135 -43h-12q-22 1 -44 5t-46.5 13.5t-40.5 16.5t-46 22l-42 21q-107 -76 -199 -76h-12q-43 1 -54 37q-13 40 29 77q52 46 160 48h12q36 0 66 -6q80 103 134.5 254.5t63.5 279.5q6 93 -11.5 168t-64.5 122.5t-118 47.5h-2
q-52 -1 -94 -27.5t-68.5 -69t-42 -90.5t-20.5 -100q-10 -92 9 -135.5t56 -46.5q65 4 102 61t35 130q0 13 14.5 13t14.5 -13q3 -93 -54 -154t-128 -61h-13q-62 0 -103 51t-40 149q2 56 22.5 110t58 100t98.5 73t136 26h31q147 0 225.5 -100t67.5 -248q-10 -137 -77 -296
t-171 -267q32 -15 85 -47t75 -43q30 -14 63 -18q41 2 66.5 33.5t22.5 60t-19 37.5q-16 5 -6 13q7 6 18 5zM387 723q-34 -2 -49 6.5t-14 34.5q1 55 10 253t14.5 379.5t1.5 272.5q0 58 -10 68q-23 -22 -103 -234.5t-92 -230.5q-5 -9 -21 -5q-9 5 -5 13q18 27 64 154.5
t91.5 232.5t73.5 105h12q34 0 54.5 -94.5t26 -244t6 -287t-2 -272.5t-2.5 -151h-55zM924 1757q1 4 4.5 6.5t10 3t12 1t15 0t13.5 -0.5q-336 -1069 -582 -1841q-1 -4 -4 -6.5t-9.5 -3t-11 -1t-14 0t-14.5 0.5zM897 -25q75 3 152 80l-29 8q-49 17 -78 17q-64 -2 -81 -45
q-12 -31 12 -50q10 -9 24 -10z" />
    <glyph glyph-name="threequarters" unicode="&#xbe;" horiz-adv-x="1648" 
d="M518 1329q132 -18 197 -127q58 -100 32 -218q-29 -126 -140 -193q-90 -54 -214 -54q-160 0 -236 109q-60 87 -40 197q19 107 105 162q63 41 147 38q51 -1 86.5 -24.5t49 -58.5t17.5 -77.5t-8 -83.5q-1 -5 -9 -7.5t-15.5 0t-6.5 9.5q10 36 7.5 74.5t-13 71t-37.5 54
t-65 22.5q-40 -2 -72 -29t-49 -69.5t-25 -92.5t1 -100t27 -90.5t54 -65t82 -22.5q124 -1 192 116q60 102 49 230q-10 127 -83 183q-43 34 -100 32q0 31 20 35q25 4 39 18q57 55 76 152.5t-18 177t-124 82.5q-94 -3 -139.5 -96.5t-24 -187t92.5 -97.5q69 3 114.5 63t28.5 127
q-2 7 4.5 9t13.5 0l7 -1q21 -81 -29 -145t-135 -70h-21q-95 -2 -145 78q-45 75 -23 167q25 100 120 145q58 27 134 26q83 -1 143.5 -30t89 -73.5t33.5 -99t-15 -105.5t-65.5 -95t-109.5 -66zM1501 252q8 -2 9.5 -8.5t-3 -11.5t-12.5 -3q-48 8 -88 2q0 -87 -1 -193.5
t-1 -111.5q-6 0 -27.5 -1.5t-33.5 -0.5t-28 4t-23.5 13t-6.5 26q0 42 8 246l-137 -31q-12 -3 -42 -9.5t-49.5 -10.5t-50.5 -10.5t-52.5 -10t-48 -6.5t-44 -2.5t-33.5 2.5t-24 9t-8 18q-1 28 37.5 99.5t94.5 163t113.5 189.5t102 199.5t53.5 171.5q1 7 9 10t15.5 -0.5
t6.5 -11.5q-13 -105 -81.5 -277.5t-140 -330.5t-83.5 -207q91 6 209 31q97 23 153 32q18 516 13 641q-1 23 7 28t38 5h12l8 -33q39 -178 35 -622q54 7 94 2zM1128 1757q1 4 5 6.5t10.5 3t11.5 1t14.5 0t12.5 -0.5q-336 -1069 -582 -1841q-1 -4 -4 -6.5t-9.5 -3t-11 -1t-14 0
t-14.5 0.5q41 130 581 1841z" />
    <glyph glyph-name="questiondown" unicode="&#xbf;" horiz-adv-x="1273" 
d="M131 438q-1 103 21 186.5t60 140.5t88.5 103.5t106 81.5t111.5 67.5t106.5 68t89.5 77.5t62 102t23 134q0 41 12.5 49.5t66.5 10.5q15 1 23 1q0 -206 -57 -301q-30 -50 -77 -94.5t-94.5 -77.5t-99.5 -68.5t-96.5 -77.5t-80.5 -94.5t-56.5 -129t-20.5 -171.5
q0 -75 20 -146.5t57.5 -131.5t101.5 -96t143 -35q174 3 263 167q73 133 63 312q-8 158 -74 241q-42 54 -98 54q-85 0 -154.5 -93.5t-65.5 -232.5q1 -15 -5.5 -22t-14 -1.5t-8.5 21.5q-5 87 21.5 162t73 123t105 74.5t119.5 25.5q128 -2 203 -124q73 -119 62 -283
q-12 -182 -123 -306q-134 -149 -365 -149q-106 0 -196.5 26.5t-161 78.5t-112 136t-42.5 191zM852 1597q-39 0 -66.5 28t-27.5 67q0 38 27 65t67 27q38 0 65 -27t27 -65q0 -39 -27 -67t-65 -28z" />
    <glyph glyph-name="Agrave" unicode="&#xc0;" horiz-adv-x="2174" 
d="M2097 -35q39 -12 40 -57q0 -49 -43 -82q-34 -25 -81 -25q-70 0 -124.5 26.5t-90.5 67t-61.5 113t-39 138t-20.5 170.5t-8.5 182.5t-1.5 199.5q-40 -8 -156 -36.5t-178 -38.5q-12 -112 -29.5 -200.5t-48.5 -181.5t-82 -167t-120 -125q-152 -108 -373.5 -105.5
t-372.5 105.5q-93 63 -147.5 159.5t-65 198.5t18.5 205t91.5 184t166.5 132t231 51q94 0 166.5 -27.5t113.5 -73t61 -104t16 -120t-29 -121t-67 -106.5t-104.5 -77.5t-135.5 -34.5q-21 0 -21 15.5t21 17.5q66 3 123 32.5t94 74.5t61 101t23.5 112.5t-17.5 109.5
q-28 78 -96 119t-152 43t-158.5 -38.5t-121.5 -125.5q-60 -109 -75.5 -249t25.5 -273t136 -203q99 -70 230.5 -68t234.5 66q62 37 111 96t79.5 122t53.5 145t34.5 148t20.5 148h-45q-117 0 -131 70q-2 14 13.5 23.5t33 5.5t20.5 -23q3 -23 17 -33t47 -10h49q5 46 12.5 124.5
t12.5 128t14 121.5t19 121t25 110t35 105.5t45.5 89.5t60 80.5t75.5 61.5q-56 88 -158.5 137.5t-216.5 46.5q-224 -4 -351 -170q-98 -127 -104 -299q-6 -153 64 -247q61 -83 158 -80q62 2 118 32.5t88.5 78t43.5 105.5t-17 116q-5 10 1.5 18t16.5 7.5t15 -13.5
q29 -92 0 -177t-107 -139.5t-184 -58.5q-200 -7 -310 117q-93 105 -85 257q7 161 125 288q157 167 437 192q44 4 91 4q135 0 263.5 -42.5t211.5 -125.5q44 13 68 17q13 3 19.5 -4t3 -16.5t-16.5 -12.5q-9 -1 -47 -12q118 -140 165 -355t50 -493h8q189 -4 197 -121
q1 -14 -13.5 -20.5t-30.5 -0.5t-18 23q-8 85 -137 88h-6q0 -61 -0.5 -151.5t-0.5 -149t0.5 -135.5t4 -127t9.5 -107.5t17 -93t26.5 -67t38.5 -46t52 -14.5q26 0 46 8t29 20t12.5 25.5t-0.5 25t-13 17.5q-24 17 -19 32q6 8 21 5zM1337 655q57 11 168.5 38.5t161.5 37.5
q0 137 -3 230.5t-13 208.5t-34 207.5t-61 164.5q-45 -39 -79 -100t-53 -121t-34 -153.5t-21.5 -159t-16 -179t-15.5 -174.5zM1556 2144q19 -56 29.5 -162.5t22.5 -152.5q-50 0 -68 7t-27 30q-16 38 -46.5 106.5t-54.5 125t-40 106.5q99 0 134.5 -9.5t49.5 -50.5z" />
    <glyph glyph-name="Aacute" unicode="&#xc1;" horiz-adv-x="2174" 
d="M2097 -35q39 -12 40 -57q0 -49 -43 -82q-34 -25 -81 -25q-70 0 -124.5 26.5t-90.5 67t-61.5 113t-39 138t-20.5 170.5t-8.5 182.5t-1.5 199.5q-40 -8 -156 -36.5t-178 -38.5q-12 -112 -29.5 -200.5t-48.5 -181.5t-82 -167t-120 -125q-152 -108 -373.5 -105.5
t-372.5 105.5q-93 63 -147.5 159.5t-65 198.5t18.5 205t91.5 184t166.5 132t231 51q94 0 166.5 -27.5t113.5 -73t61 -104t16 -120t-29 -121t-67 -106.5t-104.5 -77.5t-135.5 -34.5q-21 0 -21 15.5t21 17.5q66 3 123 32.5t94 74.5t61 101t23.5 112.5t-17.5 109.5
q-28 78 -96 119t-152 43t-158.5 -38.5t-121.5 -125.5q-60 -109 -75.5 -249t25.5 -273t136 -203q99 -70 230.5 -68t234.5 66q62 37 111 96t79.5 122t53.5 145t34.5 148t20.5 148h-45q-117 0 -131 70q-2 14 13.5 23.5t33 5.5t20.5 -23q3 -23 17 -33t47 -10h49q5 46 12.5 124.5
t12.5 128t14 121.5t19 121t25 110t35 105.5t45.5 89.5t60 80.5t75.5 61.5q-56 88 -158.5 137.5t-216.5 46.5q-224 -4 -351 -170q-98 -127 -104 -299q-6 -153 64 -247q61 -83 158 -80q62 2 118 32.5t88.5 78t43.5 105.5t-17 116q-5 10 1.5 18t16.5 7.5t15 -13.5
q29 -92 0 -177t-107 -139.5t-184 -58.5q-200 -7 -310 117q-93 105 -85 257q7 161 125 288q157 167 437 192q44 4 91 4q135 0 263.5 -42.5t211.5 -125.5q44 13 68 17q13 3 19.5 -4t3 -16.5t-16.5 -12.5q-9 -1 -47 -12q118 -140 165 -355t50 -493h8q189 -4 197 -121
q1 -14 -13.5 -20.5t-30.5 -0.5t-18 23q-8 85 -137 88h-6q0 -61 -0.5 -151.5t-0.5 -149t0.5 -135.5t4 -127t9.5 -107.5t17 -93t26.5 -67t38.5 -46t52 -14.5q26 0 46 8t29 20t12.5 25.5t-0.5 25t-13 17.5q-24 17 -19 32q6 8 21 5zM1337 655q57 11 168.5 38.5t161.5 37.5
q0 137 -3 230.5t-13 208.5t-34 207.5t-61 164.5q-45 -39 -79 -100t-53 -121t-34 -153.5t-21.5 -159t-16 -179t-15.5 -174.5zM1485 2148q14 41 49.5 50.5t134.5 9.5q-16 -50 -40 -106.5t-54.5 -125t-46.5 -106.5q-9 -23 -26.5 -30t-67.5 -7q12 46 22 152.5t29 162.5z" />
    <glyph glyph-name="Acircumflex" unicode="&#xc2;" horiz-adv-x="2174" 
d="M2097 -35q39 -12 40 -57q0 -49 -43 -82q-34 -25 -81 -25q-70 0 -124.5 26.5t-90.5 67t-61.5 113t-39 138t-20.5 170.5t-8.5 182.5t-1.5 199.5q-40 -8 -156 -36.5t-178 -38.5q-12 -112 -29.5 -200.5t-48.5 -181.5t-82 -167t-120 -125q-152 -108 -373.5 -105.5
t-372.5 105.5q-93 63 -147.5 159.5t-65 198.5t18.5 205t91.5 184t166.5 132t231 51q94 0 166.5 -27.5t113.5 -73t61 -104t16 -120t-29 -121t-67 -106.5t-104.5 -77.5t-135.5 -34.5q-21 0 -21 15.5t21 17.5q66 3 123 32.5t94 74.5t61 101t23.5 112.5t-17.5 109.5
q-28 78 -96 119t-152 43t-158.5 -38.5t-121.5 -125.5q-60 -109 -75.5 -249t25.5 -273t136 -203q99 -70 230.5 -68t234.5 66q62 37 111 96t79.5 122t53.5 145t34.5 148t20.5 148h-45q-117 0 -131 70q-2 14 13.5 23.5t33 5.5t20.5 -23q3 -23 17 -33t47 -10h49q5 46 12.5 124.5
t12.5 128t14 121.5t19 121t25 110t35 105.5t45.5 89.5t60 80.5t75.5 61.5q-56 88 -158.5 137.5t-216.5 46.5q-224 -4 -351 -170q-98 -127 -104 -299q-6 -153 64 -247q61 -83 158 -80q62 2 118 32.5t88.5 78t43.5 105.5t-17 116q-5 10 1.5 18t16.5 7.5t15 -13.5
q29 -92 0 -177t-107 -139.5t-184 -58.5q-200 -7 -310 117q-93 105 -85 257q7 161 125 288q157 167 437 192q44 4 91 4q135 0 263.5 -42.5t211.5 -125.5q44 13 68 17q13 3 19.5 -4t3 -16.5t-16.5 -12.5q-9 -1 -47 -12q118 -140 165 -355t50 -493h8q189 -4 197 -121
q1 -14 -13.5 -20.5t-30.5 -0.5t-18 23q-8 85 -137 88h-6q0 -61 -0.5 -151.5t-0.5 -149t0.5 -135.5t4 -127t9.5 -107.5t17 -93t26.5 -67t38.5 -46t52 -14.5q26 0 46 8t29 20t12.5 25.5t-0.5 25t-13 17.5q-24 17 -19 32q6 8 21 5zM1337 655q57 11 168.5 38.5t161.5 37.5
q0 137 -3 230.5t-13 208.5t-34 207.5t-61 164.5q-45 -39 -79 -100t-53 -121t-34 -153.5t-21.5 -159t-16 -179t-15.5 -174.5zM1593 2171q109 -173 183 -316q-49 -15 -82.5 -14.5t-48 9t-29.5 24.5q-12 14 -24.5 48.5t-19 60.5t-16 73.5t-10.5 50.5q-3 -11 -17 -63t-26.5 -90
t-25.5 -60q-23 -41 -54.5 -49.5t-111.5 13.5q86 156 188 313q17 24 48 24t46 -24z" />
    <glyph glyph-name="Atilde" unicode="&#xc3;" horiz-adv-x="2174" 
d="M2097 -35q39 -12 40 -57q0 -49 -43 -82q-34 -25 -81 -25q-70 0 -124.5 26.5t-90.5 67t-61.5 113t-39 138t-20.5 170.5t-8.5 182.5t-1.5 199.5q-40 -8 -156 -36.5t-178 -38.5q-12 -112 -29.5 -200.5t-48.5 -181.5t-82 -167t-120 -125q-152 -108 -373.5 -105.5
t-372.5 105.5q-93 63 -147.5 159.5t-65 198.5t18.5 205t91.5 184t166.5 132t231 51q94 0 166.5 -27.5t113.5 -73t61 -104t16 -120t-29 -121t-67 -106.5t-104.5 -77.5t-135.5 -34.5q-21 0 -21 15.5t21 17.5q66 3 123 32.5t94 74.5t61 101t23.5 112.5t-17.5 109.5
q-28 78 -96 119t-152 43t-158.5 -38.5t-121.5 -125.5q-60 -109 -75.5 -249t25.5 -273t136 -203q99 -70 230.5 -68t234.5 66q62 37 111 96t79.5 122t53.5 145t34.5 148t20.5 148h-45q-117 0 -131 70q-2 14 13.5 23.5t33 5.5t20.5 -23q3 -23 17 -33t47 -10h49q5 46 12.5 124.5
t12.5 128t14 121.5t19 121t25 110t35 105.5t45.5 89.5t60 80.5t75.5 61.5q-56 88 -158.5 137.5t-216.5 46.5q-224 -4 -351 -170q-98 -127 -104 -299q-6 -153 64 -247q61 -83 158 -80q62 2 118 32.5t88.5 78t43.5 105.5t-17 116q-5 10 1.5 18t16.5 7.5t15 -13.5
q29 -92 0 -177t-107 -139.5t-184 -58.5q-200 -7 -310 117q-93 105 -85 257q7 161 125 288q157 167 437 192q44 4 91 4q135 0 263.5 -42.5t211.5 -125.5q44 13 68 17q13 3 19.5 -4t3 -16.5t-16.5 -12.5q-9 -1 -47 -12q118 -140 165 -355t50 -493h8q189 -4 197 -121
q1 -14 -13.5 -20.5t-30.5 -0.5t-18 23q-8 85 -137 88h-6q0 -61 -0.5 -151.5t-0.5 -149t0.5 -135.5t4 -127t9.5 -107.5t17 -93t26.5 -67t38.5 -46t52 -14.5q26 0 46 8t29 20t12.5 25.5t-0.5 25t-13 17.5q-24 17 -19 32q6 8 21 5zM1337 655q57 11 168.5 38.5t161.5 37.5
q0 137 -3 230.5t-13 208.5t-34 207.5t-61 164.5q-45 -39 -79 -100t-53 -121t-34 -153.5t-21.5 -159t-16 -179t-15.5 -174.5zM1690 2159q8 -23 4 -58q-2 -50 -25 -99t-67 -52q-32 -2 -55.5 8t-37 26t-25 32.5t-28 28.5t-37.5 13q-44 1 -66 -34t-12 -76q-16 -12 -18 2
q-6 37 2.5 86t35 90.5t66.5 40.5q30 -1 52 -18t34 -37t35 -37t54 -17q15 1 26.5 3.5t18.5 8.5t12 10t7.5 14.5t3.5 14.5t2.5 18.5t2.5 18.5q2 15 11 16q3 -1 4 -3z" />
    <glyph glyph-name="Adieresis" unicode="&#xc4;" horiz-adv-x="2174" 
d="M2097 -35q39 -12 40 -57q0 -49 -43 -82q-34 -25 -81 -25q-70 0 -124.5 26.5t-90.5 67t-61.5 113t-39 138t-20.5 170.5t-8.5 182.5t-1.5 199.5q-40 -8 -156 -36.5t-178 -38.5q-12 -112 -29.5 -200.5t-48.5 -181.5t-82 -167t-120 -125q-152 -108 -373.5 -105.5
t-372.5 105.5q-93 63 -147.5 159.5t-65 198.5t18.5 205t91.5 184t166.5 132t231 51q94 0 166.5 -27.5t113.5 -73t61 -104t16 -120t-29 -121t-67 -106.5t-104.5 -77.5t-135.5 -34.5q-21 0 -21 15.5t21 17.5q66 3 123 32.5t94 74.5t61 101t23.5 112.5t-17.5 109.5
q-28 78 -96 119t-152 43t-158.5 -38.5t-121.5 -125.5q-60 -109 -75.5 -249t25.5 -273t136 -203q99 -70 230.5 -68t234.5 66q62 37 111 96t79.5 122t53.5 145t34.5 148t20.5 148h-45q-117 0 -131 70q-2 14 13.5 23.5t33 5.5t20.5 -23q3 -23 17 -33t47 -10h49q5 46 12.5 124.5
t12.5 128t14 121.5t19 121t25 110t35 105.5t45.5 89.5t60 80.5t75.5 61.5q-56 88 -158.5 137.5t-216.5 46.5q-224 -4 -351 -170q-98 -127 -104 -299q-6 -153 64 -247q61 -83 158 -80q62 2 118 32.5t88.5 78t43.5 105.5t-17 116q-5 10 1.5 18t16.5 7.5t15 -13.5
q29 -92 0 -177t-107 -139.5t-184 -58.5q-200 -7 -310 117q-93 105 -85 257q7 161 125 288q157 167 437 192q44 4 91 4q135 0 263.5 -42.5t211.5 -125.5q44 13 68 17q13 3 19.5 -4t3 -16.5t-16.5 -12.5q-9 -1 -47 -12q118 -140 165 -355t50 -493h8q189 -4 197 -121
q1 -14 -13.5 -20.5t-30.5 -0.5t-18 23q-8 85 -137 88h-6q0 -61 -0.5 -151.5t-0.5 -149t0.5 -135.5t4 -127t9.5 -107.5t17 -93t26.5 -67t38.5 -46t52 -14.5q26 0 46 8t29 20t12.5 25.5t-0.5 25t-13 17.5q-24 17 -19 32q6 8 21 5zM1337 655q57 11 168.5 38.5t161.5 37.5
q0 137 -3 230.5t-13 208.5t-34 207.5t-61 164.5q-45 -39 -79 -100t-53 -121t-34 -153.5t-21.5 -159t-16 -179t-15.5 -174.5zM1645 2152q38 0 65 -28t27 -66t-27 -65t-65 -27q-39 0 -67 27t-28 65t28.5 66t66.5 28zM1405 2152q38 0 66 -28t28 -66t-28 -65t-66 -27t-65 27
t-27 65t27 66t65 28z" />
    <glyph glyph-name="Aring" unicode="&#xc5;" horiz-adv-x="2174" 
d="M2097 -35q39 -12 40 -57q0 -49 -43 -82q-34 -25 -81 -25q-70 0 -124.5 26.5t-90.5 67t-61.5 113t-39 138t-20.5 170.5t-8.5 182.5t-1.5 199.5q-40 -8 -156 -36.5t-178 -38.5q-12 -112 -29.5 -200.5t-48.5 -181.5t-82 -167t-120 -125q-152 -108 -373.5 -105.5
t-372.5 105.5q-93 63 -147.5 159.5t-65 198.5t18.5 205t91.5 184t166.5 132t231 51q94 0 166.5 -27.5t113.5 -73t61 -104t16 -120t-29 -121t-67 -106.5t-104.5 -77.5t-135.5 -34.5q-21 0 -21 15.5t21 17.5q66 3 123 32.5t94 74.5t61 101t23.5 112.5t-17.5 109.5
q-28 78 -96 119t-152 43t-158.5 -38.5t-121.5 -125.5q-60 -109 -75.5 -249t25.5 -273t136 -203q99 -70 230.5 -68t234.5 66q62 37 111 96t79.5 122t53.5 145t34.5 148t20.5 148h-45q-117 0 -131 70q-2 14 13.5 23.5t33 5.5t20.5 -23q3 -23 17 -33t47 -10h49q5 46 12.5 124.5
t12.5 128t14 121.5t19 121t25 110t35 105.5t45.5 89.5t60 80.5t75.5 61.5q-56 88 -158.5 137.5t-216.5 46.5q-224 -4 -351 -170q-98 -127 -104 -299q-6 -153 64 -247q61 -83 158 -80q62 2 118 32.5t88.5 78t43.5 105.5t-17 116q-5 10 1.5 18t16.5 7.5t15 -13.5
q29 -92 0 -177t-107 -139.5t-184 -58.5q-200 -7 -310 117q-93 105 -85 257q7 161 125 288q157 167 437 192q44 4 91 4q135 0 263.5 -42.5t211.5 -125.5q44 13 68 17q13 3 19.5 -4t3 -16.5t-16.5 -12.5q-9 -1 -47 -12q118 -140 165 -355t50 -493h8q189 -4 197 -121
q1 -14 -13.5 -20.5t-30.5 -0.5t-18 23q-8 85 -137 88h-6q0 -61 -0.5 -151.5t-0.5 -149t0.5 -135.5t4 -127t9.5 -107.5t17 -93t26.5 -67t38.5 -46t52 -14.5q26 0 46 8t29 20t12.5 25.5t-0.5 25t-13 17.5q-24 17 -19 32q6 8 21 5zM1337 655q57 11 168.5 38.5t161.5 37.5
q0 137 -3 230.5t-13 208.5t-34 207.5t-61 164.5q-45 -39 -79 -100t-53 -121t-34 -153.5t-21.5 -159t-16 -179t-15.5 -174.5zM1548 2171q44 0 77 -22.5t47.5 -57t14.5 -74t-14.5 -74t-47.5 -57t-77 -22.5q-45 0 -80.5 17t-53 44t-25.5 60t1 65.5t27 59.5t53 44t78 17z
M1567 1898q32 -1 54 23.5t26.5 59.5t-1 70.5t-27 60t-52.5 24.5q-29 0 -48.5 -24.5t-24.5 -59t-0.5 -69.5t24 -59.5t49.5 -25.5z" />
    <glyph glyph-name="Ccedilla" unicode="&#xc7;" horiz-adv-x="1513" 
d="M1036 799q88 -4 159 -49t112.5 -112.5t58.5 -153.5t5 -170.5t-57 -165t-118 -134.5q-74 -55 -172 -79.5t-201 -16.5l-8 -102q34 37 90 37q52 -1 91 -25t56.5 -61t24 -81.5t-6 -89t-34.5 -80.5t-60.5 -58.5t-84.5 -22.5q-50 1 -84 24t-45 57t-8 69.5t25.5 64.5t56.5 39
q55 15 95 -17.5t27 -97.5q-1 -10 -7.5 -14.5t-12 0.5t-4.5 18q6 49 -20 84q-28 37 -59 4q-4 -4 -7 -8q-22 -28 -26.5 -77.5t14.5 -91t57 -46.5q39 4 67 45.5t36 98t3.5 113.5t-30 98t-64.5 44q-9 -1 -17.5 -3t-14.5 -3.5t-13 -6.5t-10.5 -7t-10.5 -10t-9 -9.5t-9.5 -11.5
t-9.5 -12q-7 -10 -24 -8q-9 2 -9 8l10 141q-147 19 -256 96q-93 69 -156 181t-90 245.5t-25 280.5t34 293q-92 70 -142.5 170.5t-54.5 203.5t30 203.5t103 173.5q81 85 204.5 121t247 5.5t191.5 -128.5q52 17 113 17q112 1 186.5 -42t103.5 -114.5t25 -160t-40 -183.5
q-42 -109 -128 -195t-194 -132.5t-232.5 -58t-242.5 29.5q-22 -193 -12.5 -367t64 -321t145.5 -222q85 -69 200.5 -69.5t198.5 71.5q54 48 88 125t45 160t2.5 167.5t-34 151t-70.5 107.5t-101 39q-71 -2 -127 -39t-87 -94.5t-44 -127t-4 -140.5q1 -9 -6.5 -13.5t-15.5 -2
t-9 10.5q-14 112 20 213t117.5 165.5t200.5 58.5zM909 1583q-10 78 -41 133q-150 -78 -254.5 -286.5t-144.5 -473.5q86 -37 188.5 -34t202 35.5t174.5 84.5q65 44 118 113.5t85 146.5t38 155.5t-15.5 142t-82.5 106t-155 47.5q-60 3 -125 -24q33 -62 43 -142
q10 -99 -16 -184q-45 -150 -164 -201q-16 -6 -24 -1.5t-5 14.5t17 16q105 41 147 180q24 81 14 172zM414 1765q-71 -81 -112 -199t-39.5 -245t52.5 -221q66 238 202.5 415.5t324.5 241.5q-84 113 -209.5 114.5t-218.5 -106.5z" />
    <glyph glyph-name="Egrave" unicode="&#xc8;" horiz-adv-x="1589" 
d="M1446 344q6 -106 -26.5 -209.5t-104.5 -185.5q-106 -120 -282.5 -169t-354.5 -6t-279 173q-55 73 -82 165t-25.5 186.5t35 189t92.5 171.5t154 134t213 77q-180 48 -276 168q-106 17 -189 63.5t-130.5 109.5t-71 139t-19 151.5t35 147t81.5 126.5t128.5 88t170.5 33
q196 0 299 -137q86 22 184 19q116 1 194.5 -39t115.5 -111q35 -69 26 -149q-6 -81 -53 -158q-75 -120 -230.5 -201.5t-377.5 -89.5q30 -51 77 -73.5t128 -36.5q10 -1 15 -5t6.5 -11t1 -14t-1.5 -19.5t-1 -20.5q-98 -2 -178 -49t-129 -122.5t-77.5 -171.5t-31 -195t18 -194.5
t63.5 -168.5q49 -82 126.5 -123t158 -37.5t160 45t133.5 115.5q57 78 85.5 180.5t28.5 208.5q1 231 -100 315q-71 60 -162 22q-88 -37 -140 -143q-49 -99 -46 -225q1 -16 -7 -22.5t-16 -1t-8 21.5q-3 101 22.5 181.5t70 130t102.5 77t119.5 28t122 -24t109.5 -70t82 -119
t40 -164.5zM481 1079q-52 87 -56.5 191t34 197.5t123 171t200.5 112.5q-54 67 -135 96t-164.5 8.5t-140.5 -90.5q-45 -57 -70.5 -136t-26 -163t21.5 -161t77.5 -138t136.5 -88zM821 1688q-66 -46 -113.5 -123t-68.5 -162.5t-16.5 -176t36.5 -163.5q219 4 371.5 81t222.5 193
q46 69 52 146q6 71 -25 131q-32 63 -103.5 98.5t-175.5 32.5q-85 0 -153 -41q51 -116 12.5 -235t-145.5 -189q-11 -6 -19 -2t-8 14t10 17q96 60 131.5 167t-8.5 212zM1006 2154q19 -56 29 -162.5t22 -152.5q-50 0 -67.5 7t-26.5 30q-5 13 -62.5 142t-79.5 196q99 0 135 -9.5
t50 -50.5z" />
    <glyph glyph-name="Eacute" unicode="&#xc9;" horiz-adv-x="1589" 
d="M1446 344q6 -106 -26.5 -209.5t-104.5 -185.5q-106 -120 -282.5 -169t-354.5 -6t-279 173q-55 73 -82 165t-25.5 186.5t35 189t92.5 171.5t154 134t213 77q-180 48 -276 168q-106 17 -189 63.5t-130.5 109.5t-71 139t-19 151.5t35 147t81.5 126.5t128.5 88t170.5 33
q196 0 299 -137q86 22 184 19q116 1 194.5 -39t115.5 -111q35 -69 26 -149q-6 -81 -53 -158q-75 -120 -230.5 -201.5t-377.5 -89.5q30 -51 77 -73.5t128 -36.5q10 -1 15 -5t6.5 -11t1 -14t-1.5 -19.5t-1 -20.5q-98 -2 -178 -49t-129 -122.5t-77.5 -171.5t-31 -195t18 -194.5
t63.5 -168.5q49 -82 126.5 -123t158 -37.5t160 45t133.5 115.5q57 78 85.5 180.5t28.5 208.5q1 231 -100 315q-71 60 -162 22q-88 -37 -140 -143q-49 -99 -46 -225q1 -16 -7 -22.5t-16 -1t-8 21.5q-3 101 22.5 181.5t70 130t102.5 77t119.5 28t122 -24t109.5 -70t82 -119
t40 -164.5zM481 1079q-52 87 -56.5 191t34 197.5t123 171t200.5 112.5q-54 67 -135 96t-164.5 8.5t-140.5 -90.5q-45 -57 -70.5 -136t-26 -163t21.5 -161t77.5 -138t136.5 -88zM821 1688q-66 -46 -113.5 -123t-68.5 -162.5t-16.5 -176t36.5 -163.5q219 4 371.5 81t222.5 193
q46 69 52 146q6 71 -25 131q-32 63 -103.5 98.5t-175.5 32.5q-85 0 -153 -41q51 -116 12.5 -235t-145.5 -189q-11 -6 -19 -2t-8 14t10 17q96 60 131.5 167t-8.5 212zM975 2144q14 41 49.5 50.5t134.5 9.5q-16 -50 -40 -106.5t-54.5 -125t-46.5 -106.5q-9 -23 -26.5 -30
t-67.5 -7q12 46 22 152.5t29 162.5z" />
    <glyph glyph-name="Ecircumflex" unicode="&#xca;" horiz-adv-x="1589" 
d="M1446 344q6 -106 -26.5 -209.5t-104.5 -185.5q-106 -120 -282.5 -169t-354.5 -6t-279 173q-55 73 -82 165t-25.5 186.5t35 189t92.5 171.5t154 134t213 77q-180 48 -276 168q-106 17 -189 63.5t-130.5 109.5t-71 139t-19 151.5t35 147t81.5 126.5t128.5 88t170.5 33
q196 0 299 -137q86 22 184 19q116 1 194.5 -39t115.5 -111q35 -69 26 -149q-6 -81 -53 -158q-75 -120 -230.5 -201.5t-377.5 -89.5q30 -51 77 -73.5t128 -36.5q10 -1 15 -5t6.5 -11t1 -14t-1.5 -19.5t-1 -20.5q-98 -2 -178 -49t-129 -122.5t-77.5 -171.5t-31 -195t18 -194.5
t63.5 -168.5q49 -82 126.5 -123t158 -37.5t160 45t133.5 115.5q57 78 85.5 180.5t28.5 208.5q1 231 -100 315q-71 60 -162 22q-88 -37 -140 -143q-49 -99 -46 -225q1 -16 -7 -22.5t-16 -1t-8 21.5q-3 101 22.5 181.5t70 130t102.5 77t119.5 28t122 -24t109.5 -70t82 -119
t40 -164.5zM481 1079q-52 87 -56.5 191t34 197.5t123 171t200.5 112.5q-54 67 -135 96t-164.5 8.5t-140.5 -90.5q-45 -57 -70.5 -136t-26 -163t21.5 -161t77.5 -138t136.5 -88zM821 1688q-66 -46 -113.5 -123t-68.5 -162.5t-16.5 -176t36.5 -163.5q219 4 371.5 81t222.5 193
q46 69 52 146q6 71 -25 131q-32 63 -103.5 98.5t-175.5 32.5q-85 0 -153 -41q51 -116 12.5 -235t-145.5 -189q-11 -6 -19 -2t-8 14t10 17q96 60 131.5 167t-8.5 212zM1069 2181q106 -168 182 -315q-49 -15 -82 -14.5t-47.5 8.5t-29.5 24q-12 14 -24.5 48.5t-19 61.5
t-16 73.5t-10.5 50.5q-2 -8 -17 -62t-27.5 -91.5t-25.5 -59.5q-23 -41 -54.5 -50t-111.5 13q80 146 189 313q17 24 48 24t46 -24z" />
    <glyph glyph-name="Edieresis" unicode="&#xcb;" horiz-adv-x="1589" 
d="M1446 344q6 -106 -26.5 -209.5t-104.5 -185.5q-106 -120 -282.5 -169t-354.5 -6t-279 173q-55 73 -82 165t-25.5 186.5t35 189t92.5 171.5t154 134t213 77q-180 48 -276 168q-106 17 -189 63.5t-130.5 109.5t-71 139t-19 151.5t35 147t81.5 126.5t128.5 88t170.5 33
q196 0 299 -137q86 22 184 19q116 1 194.5 -39t115.5 -111q35 -69 26 -149q-6 -81 -53 -158q-75 -120 -230.5 -201.5t-377.5 -89.5q30 -51 77 -73.5t128 -36.5q10 -1 15 -5t6.5 -11t1 -14t-1.5 -19.5t-1 -20.5q-98 -2 -178 -49t-129 -122.5t-77.5 -171.5t-31 -195t18 -194.5
t63.5 -168.5q49 -82 126.5 -123t158 -37.5t160 45t133.5 115.5q57 78 85.5 180.5t28.5 208.5q1 231 -100 315q-71 60 -162 22q-88 -37 -140 -143q-49 -99 -46 -225q1 -16 -7 -22.5t-16 -1t-8 21.5q-3 101 22.5 181.5t70 130t102.5 77t119.5 28t122 -24t109.5 -70t82 -119
t40 -164.5zM481 1079q-52 87 -56.5 191t34 197.5t123 171t200.5 112.5q-54 67 -135 96t-164.5 8.5t-140.5 -90.5q-45 -57 -70.5 -136t-26 -163t21.5 -161t77.5 -138t136.5 -88zM821 1688q-66 -46 -113.5 -123t-68.5 -162.5t-16.5 -176t36.5 -163.5q219 4 371.5 81t222.5 193
q46 69 52 146q6 71 -25 131q-32 63 -103.5 98.5t-175.5 32.5q-85 0 -153 -41q51 -116 12.5 -235t-145.5 -189q-11 -6 -19 -2t-8 14t10 17q96 60 131.5 167t-8.5 212zM1096 2163q38 0 65 -28t27 -67q0 -38 -27 -65t-65 -27q-39 0 -67 27t-28 65t28.5 66.5t66.5 28.5z
M856 2163q38 0 66 -28.5t28 -66.5t-28 -65t-66 -27t-65 27t-27 65q0 39 27 67t65 28z" />
    <glyph glyph-name="Igrave" unicode="&#xcc;" horiz-adv-x="1497" 
d="M1362 1835q61 1 96 -29.5t35.5 -70t-31.5 -76.5t-90 -47l-86 -13q-12 -87 -13 -199.5t6 -218t12.5 -226.5t9 -230.5t-6 -225t-31 -214.5t-68.5 -195t-116 -170q-99 -107 -254 -153.5t-314.5 -14t-260.5 143.5q-65 73 -103 170.5t-46.5 198t14.5 199t72 176t133.5 127
t191.5 52.5q134 4 225 -61.5t124 -168.5t24.5 -224.5t-60.5 -229.5q-6 -12 -14.5 -12.5t-13.5 8t0 19.5q55 115 61 240.5t-43 225.5q-30 62 -80.5 106t-109 58.5t-116 5t-107.5 -56.5t-78 -125q-37 -101 -42.5 -230.5t24 -257.5t89.5 -214q49 -71 123 -103.5t150 -25.5
t149 44.5t125 98.5q65 77 103.5 183.5t50 224.5t10.5 245t-10.5 261.5t-17.5 257.5t-6 248.5t20 219.5q-126 -37 -219 -92t-144 -117.5t-74.5 -123.5t-25.5 -123q-4 -147 72 -190q55 -32 120 7q69 42 89 131q10 45 3 95q-2 11 5 17t15 2.5t9 -15.5q23 -150 -76 -232
q-79 -64 -191 -55q-113 9 -179 89q-48 59 -52 143q-3 59 17.5 119.5t71 123t126 116t192 97t259.5 66.5q26 103 99 160.5t153 60.5zM1366 2183q19 -56 29 -162.5t22 -152.5q-50 0 -67.5 7t-26.5 30q-16 38 -46.5 106.5t-54.5 125t-40 106.5q99 0 134.5 -9.5t49.5 -50.5z
M1368 1645q74 11 93 65q14 42 -13 70q-17 18 -43 18q-35 0 -67 -40t-46 -124q4 0 76 11z" />
    <glyph glyph-name="Iacute" unicode="&#xcd;" horiz-adv-x="1497" 
d="M1362 1835q61 1 96 -29.5t35.5 -70t-31.5 -76.5t-90 -47l-86 -13q-12 -87 -13 -199.5t6 -218t12.5 -226.5t9 -230.5t-6 -225t-31 -214.5t-68.5 -195t-116 -170q-99 -107 -254 -153.5t-314.5 -14t-260.5 143.5q-65 73 -103 170.5t-46.5 198t14.5 199t72 176t133.5 127
t191.5 52.5q134 4 225 -61.5t124 -168.5t24.5 -224.5t-60.5 -229.5q-6 -12 -14.5 -12.5t-13.5 8t0 19.5q55 115 61 240.5t-43 225.5q-30 62 -80.5 106t-109 58.5t-116 5t-107.5 -56.5t-78 -125q-37 -101 -42.5 -230.5t24 -257.5t89.5 -214q49 -71 123 -103.5t150 -25.5
t149 44.5t125 98.5q65 77 103.5 183.5t50 224.5t10.5 245t-10.5 261.5t-17.5 257.5t-6 248.5t20 219.5q-126 -37 -219 -92t-144 -117.5t-74.5 -123.5t-25.5 -123q-4 -147 72 -190q55 -32 120 7q69 42 89 131q10 45 3 95q-2 11 5 17t15 2.5t9 -15.5q23 -150 -76 -232
q-79 -64 -191 -55q-113 9 -179 89q-48 59 -52 143q-3 59 17.5 119.5t71 123t126 116t192 97t259.5 66.5q26 103 99 160.5t153 60.5zM1378 2193q14 41 50 50.5t135 9.5q-16 -50 -40 -107t-55 -124.5t-47 -106.5q-9 -23 -26.5 -30t-67.5 -7q12 46 22 152.5t29 162.5z
M1368 1645q74 11 93 65q14 42 -13 70q-17 18 -43 18q-35 0 -67 -40t-46 -124q4 0 76 11z" />
    <glyph glyph-name="Icircumflex" unicode="&#xce;" horiz-adv-x="1497" 
d="M1362 1835q61 1 96 -29.5t35.5 -70t-31.5 -76.5t-90 -47l-86 -13q-12 -87 -13 -199.5t6 -218t12.5 -226.5t9 -230.5t-6 -225t-31 -214.5t-68.5 -195t-116 -170q-99 -107 -254 -153.5t-314.5 -14t-260.5 143.5q-65 73 -103 170.5t-46.5 198t14.5 199t72 176t133.5 127
t191.5 52.5q134 4 225 -61.5t124 -168.5t24.5 -224.5t-60.5 -229.5q-6 -12 -14.5 -12.5t-13.5 8t0 19.5q55 115 61 240.5t-43 225.5q-30 62 -80.5 106t-109 58.5t-116 5t-107.5 -56.5t-78 -125q-37 -101 -42.5 -230.5t24 -257.5t89.5 -214q49 -71 123 -103.5t150 -25.5
t149 44.5t125 98.5q65 77 103.5 183.5t50 224.5t10.5 245t-10.5 261.5t-17.5 257.5t-6 248.5t20 219.5q-126 -37 -219 -92t-144 -117.5t-74.5 -123.5t-25.5 -123q-4 -147 72 -190q55 -32 120 7q69 42 89 131q10 45 3 95q-2 11 5 17t15 2.5t9 -15.5q23 -150 -76 -232
q-79 -64 -191 -55q-113 9 -179 89q-48 59 -52 143q-3 59 17.5 119.5t71 123t126 116t192 97t259.5 66.5q26 103 99 160.5t153 60.5zM1389 2220q106 -168 182 -315q-49 -15 -82.5 -14.5t-48 8.5t-29.5 24q-12 14 -24.5 48.5t-19 61.5t-16 73.5t-10.5 50.5q-3 -11 -17 -63
t-26.5 -90t-25.5 -60q-23 -41 -54.5 -50t-111.5 13q86 156 188 313q17 24 48.5 24t46.5 -24zM1368 1645q74 11 93 65q14 42 -13 70q-17 18 -43 18q-35 0 -67 -40t-46 -124q4 0 76 11z" />
    <glyph glyph-name="Idieresis" unicode="&#xcf;" horiz-adv-x="1497" 
d="M1362 1835q61 1 96 -29.5t35.5 -70t-31.5 -76.5t-90 -47l-86 -13q-12 -87 -13 -199.5t6 -218t12.5 -226.5t9 -230.5t-6 -225t-31 -214.5t-68.5 -195t-116 -170q-99 -107 -254 -153.5t-314.5 -14t-260.5 143.5q-65 73 -103 170.5t-46.5 198t14.5 199t72 176t133.5 127
t191.5 52.5q134 4 225 -61.5t124 -168.5t24.5 -224.5t-60.5 -229.5q-6 -12 -14.5 -12.5t-13.5 8t0 19.5q55 115 61 240.5t-43 225.5q-30 62 -80.5 106t-109 58.5t-116 5t-107.5 -56.5t-78 -125q-37 -101 -42.5 -230.5t24 -257.5t89.5 -214q49 -71 123 -103.5t150 -25.5
t149 44.5t125 98.5q65 77 103.5 183.5t50 224.5t10.5 245t-10.5 261.5t-17.5 257.5t-6 248.5t20 219.5q-126 -37 -219 -92t-144 -117.5t-74.5 -123.5t-25.5 -123q-4 -147 72 -190q55 -32 120 7q69 42 89 131q10 45 3 95q-2 11 5 17t15 2.5t9 -15.5q23 -150 -76 -232
q-79 -64 -191 -55q-113 9 -179 89q-48 59 -52 143q-3 59 17.5 119.5t71 123t126 116t192 97t259.5 66.5q26 103 99 160.5t153 60.5zM1223 2183q38 0 66 -28t28 -66t-28 -65t-66 -27t-65.5 27t-27.5 65t27.5 66t65.5 28zM1462 2183q38 0 65 -28t27 -66t-27 -65t-65 -27
t-66 27t-28 65t28 66t66 28zM1368 1645q74 11 93 65q14 42 -13 70q-17 18 -43 18q-35 0 -67 -40t-46 -124q4 0 76 11z" />
    <glyph glyph-name="Eth" unicode="&#xd0;" horiz-adv-x="2084" 
d="M831 920h177q-5 129 -2 259t12 239t38 201t77 146q-71 11 -123 11q-238 -2 -373 -178q-99 -130 -110 -305q-9 -148 51 -234q43 -62 108 -62q55 0 104 28t79 73t42 101t-8 112q-3 11 3 18t14.5 5.5t11.5 -11.5q27 -74 12.5 -142t-54.5 -120t-106.5 -82t-142.5 -27
q-148 6 -231 124q-78 110 -62 261q17 170 146 294q183 175 514 175q73 0 155 -10q64 52 168 55q12 1 17 -6t0.5 -15t-17.5 -9q-54 -3 -84 -41q139 -19 251.5 -79.5t186.5 -147.5t127 -196t78.5 -227t36 -238t4 -231.5t-21.5 -205.5t-36.5 -161.5t-45.5 -98.5
q98 -141 84 -351q-1 -12 -9 -16t-15.5 1.5t-6.5 16.5q14 186 -68 316q-64 -124 -184.5 -196.5t-257.5 -65.5q-142 7 -201 101q-51 80 -17 177q35 101 143 155q84 42 194 42q104 0 192 -49q53 194 60.5 392t-28.5 367.5t-104 308.5t-169 230t-219 119q-19 -37 -30.5 -93
t-16 -109.5t-3 -140.5t4.5 -146.5t9 -168.5t9 -167h252q-3 -14 -7 -31.5t-4 -23t-5 -14t-6 -10t-11 -3.5t-15 -2h-24h-178q1 -106 1.5 -208t-14 -199t-36.5 -182t-66 -156.5t-103 -123t-146 -81t-197 -31.5q-252 -3 -395 172q-114 140 -122 344q-9 195 82 345
q97 160 266 191q33 6 69 6q93 0 168.5 -38t119 -102t62.5 -141.5t3.5 -162.5t-61.5 -160q-7 -12 -16 -11.5t-12 9t2 17.5q48 77 57 172t-17 178t-94.5 141.5t-164.5 63.5q-133 6 -213 -140q-75 -139 -71 -343q4 -213 93 -354q94 -151 250 -149q89 1 154.5 38.5t104.5 103
t64.5 154.5t33.5 193.5t12 220.5t0 235h-222q22 84 43 84zM1358 -37q66 0 136 51.5t119 128t62 152.5q-87 49 -186 49q-161 0 -249 -96q-65 -71 -55 -154q9 -80 83 -113q39 -18 90 -18z" />
    <glyph glyph-name="Ntilde" unicode="&#xd1;" horiz-adv-x="2035" 
d="M2228 1890q25 -3 27 -23q3 -19 -17 -24q-9 -3 -22 0q-108 29 -188.5 -53.5t-124 -238.5t-68.5 -350.5t-27 -399t6 -375t25 -285.5q145 -259 281 -256q24 0 26 -16q2 -13 -14 -15q-3 -1 -6 -1q-97 -4 -186.5 43t-159.5 128t-137.5 194.5t-119.5 236t-107 258t-99 254.5
t-96.5 233t-98.5 186q-15 -115 20 -463q11 -115 16.5 -175t11.5 -172t3 -177t-13 -161t-32.5 -153.5t-59.5 -125.5t-89 -105.5t-126 -65.5t-167 -32q-119 -6 -220 31t-168.5 103.5t-112.5 155.5t-58 186.5t2.5 199.5t60.5 191q41 80 114 138t157 80t166.5 14t153 -61.5
t106.5 -144.5q63 -156 12 -362q-4 -15 -13.5 -19t-16 4t-3.5 21q51 200 -10 352q-28 66 -77.5 112t-107.5 60.5t-115 4t-107 -60t-78 -130.5q-33 -91 -43 -205.5t7.5 -228t58 -208t116 -151t174.5 -51.5q97 5 165.5 53.5t104.5 129t54.5 183.5t20.5 223.5t-2 243.5t-9 247.5
t-4 231.5t16 201t47 150q-222 305 -506 297q-203 -2 -294 -155q-72 -122 -50 -286q20 -149 103 -238q66 -70 149 -73q139 3 232.5 103.5t81.5 238.5q-3 30 12 32q11 2 17 -17q2 -7 3 -15q12 -152 -89.5 -261.5t-254.5 -112.5q-177 -2 -287 124q-95 109 -100 261
q-5 162 98 278q128 146 375 154q441 18 723 -373q84 -116 156 -274.5t116 -294t106.5 -308.5t121.5 -294q-19 157 -25 349t10 408.5t53.5 400t114 318.5t183.5 168q51 15 102 10zM1642 2236q8 -25 5 -57q-2 -50 -25.5 -99t-67.5 -52q-32 -2 -55 8t-36.5 26t-25 32.5
t-28 28.5t-37.5 13q-43 1 -65.5 -34.5t-12.5 -76.5q-15 -12 -18 3q-6 37 2.5 86t35 90.5t66.5 40.5q30 -1 52 -18t33.5 -37t34.5 -37t54 -17q15 1 26.5 3.5t19 8.5t12 9.5t7.5 15t4 14.5t3 18.5t2 18.5q2 14 10 15q3 0 4 -3z" />
    <glyph glyph-name="Ograve" unicode="&#xd2;" horiz-adv-x="1712" 
d="M1311 1483q62 -28 113.5 -95t86 -158t52.5 -203t18 -228.5t-21.5 -236.5t-62 -226t-108.5 -197.5t-156 -150.5q-146 -98 -332 -98t-326 102q-96 69 -164 183t-98.5 247.5t-35 285t25.5 296.5q-126 94 -178 237.5t-25.5 283.5t117.5 240q79 87 203 123.5t249.5 5.5
t198.5 -129q58 15 115 15q161 1 243 -81t85 -216zM864 1714q-150 -80 -249.5 -291.5t-131.5 -480.5q87 -38 191.5 -34t204 37t174.5 85q65 45 116.5 116t81 148.5t33 157.5t-20 144.5t-86.5 107t-159 47.5q-57 3 -127 -25q36 -63 49 -143q13 -102 -10 -186
q-42 -155 -160 -205q-16 -5 -24 -0.5t-5 14t17 15.5q108 47 141 184q23 79 10 174q-13 79 -45 135zM401 1763q-107 -128 -134 -325t55 -351q40 158 109.5 290.5t174 233t230.5 144.5q-58 75 -137 102.5t-158 2.5t-140 -97zM1149 -8q114 78 188 234.5t97 335t16.5 357
t-45 319t-94.5 200.5q-6 -74 -35 -164q-38 -110 -122.5 -197.5t-193.5 -135t-234.5 -59.5t-246.5 29q-17 -195 -2 -371t75 -325.5t155 -224.5q98 -71 219.5 -68.5t222.5 70.5zM1081 2159q19 -56 29.5 -163t22.5 -153q-50 0 -68 7t-27 30q-16 38 -46.5 106.5t-54.5 125
t-40 106.5q99 0 134.5 -9t49.5 -50z" />
    <glyph glyph-name="Oacute" unicode="&#xd3;" horiz-adv-x="1712" 
d="M1311 1483q62 -28 113.5 -95t86 -158t52.5 -203t18 -228.5t-21.5 -236.5t-62 -226t-108.5 -197.5t-156 -150.5q-146 -98 -332 -98t-326 102q-96 69 -164 183t-98.5 247.5t-35 285t25.5 296.5q-126 94 -178 237.5t-25.5 283.5t117.5 240q79 87 203 123.5t249.5 5.5
t198.5 -129q58 15 115 15q161 1 243 -81t85 -216zM864 1714q-150 -80 -249.5 -291.5t-131.5 -480.5q87 -38 191.5 -34t204 37t174.5 85q65 45 116.5 116t81 148.5t33 157.5t-20 144.5t-86.5 107t-159 47.5q-57 3 -127 -25q36 -63 49 -143q13 -102 -10 -186
q-42 -155 -160 -205q-16 -5 -24 -0.5t-5 14t17 15.5q108 47 141 184q23 79 10 174q-13 79 -45 135zM401 1763q-107 -128 -134 -325t55 -351q40 158 109.5 290.5t174 233t230.5 144.5q-58 75 -137 102.5t-158 2.5t-140 -97zM1149 -8q114 78 188 234.5t97 335t16.5 357
t-45 319t-94.5 200.5q-6 -74 -35 -164q-38 -110 -122.5 -197.5t-193.5 -135t-234.5 -59.5t-246.5 29q-17 -195 -2 -371t75 -325.5t155 -224.5q98 -71 219.5 -68.5t222.5 70.5zM1020 2173q14 41 49 50t135 9q-16 -50 -40 -106.5t-54.5 -125t-46.5 -106.5q-9 -23 -26.5 -29.5
t-67.5 -6.5q12 46 22 152.5t29 162.5z" />
    <glyph glyph-name="Ocircumflex" unicode="&#xd4;" horiz-adv-x="1712" 
d="M1311 1483q62 -28 113.5 -95t86 -158t52.5 -203t18 -228.5t-21.5 -236.5t-62 -226t-108.5 -197.5t-156 -150.5q-146 -98 -332 -98t-326 102q-96 69 -164 183t-98.5 247.5t-35 285t25.5 296.5q-126 94 -178 237.5t-25.5 283.5t117.5 240q79 87 203 123.5t249.5 5.5
t198.5 -129q58 15 115 15q161 1 243 -81t85 -216zM864 1714q-150 -80 -249.5 -291.5t-131.5 -480.5q87 -38 191.5 -34t204 37t174.5 85q65 45 116.5 116t81 148.5t33 157.5t-20 144.5t-86.5 107t-159 47.5q-57 3 -127 -25q36 -63 49 -143q13 -102 -10 -186
q-42 -155 -160 -205q-16 -5 -24 -0.5t-5 14t17 15.5q108 47 141 184q23 79 10 174q-13 79 -45 135zM401 1763q-107 -128 -134 -325t55 -351q40 158 109.5 290.5t174 233t230.5 144.5q-58 75 -137 102.5t-158 2.5t-140 -97zM1149 -8q114 78 188 234.5t97 335t16.5 357
t-45 319t-94.5 200.5q-6 -74 -35 -164q-38 -110 -122.5 -197.5t-193.5 -135t-234.5 -59.5t-246.5 29q-17 -195 -2 -371t75 -325.5t155 -224.5q98 -71 219.5 -68.5t222.5 70.5zM1092 2206q103 -164 182 -316q-49 -15 -82.5 -14.5t-48 9t-29.5 24.5q-12 14 -24.5 48.5
t-19 60.5t-16 73.5t-10.5 50.5q-3 -11 -17 -63t-26.5 -90t-25.5 -60q-23 -41 -54.5 -50t-111.5 13q90 163 188 314q17 24 48.5 24t46.5 -24z" />
    <glyph glyph-name="Otilde" unicode="&#xd5;" horiz-adv-x="1712" 
d="M1311 1483q62 -28 113.5 -95t86 -158t52.5 -203t18 -228.5t-21.5 -236.5t-62 -226t-108.5 -197.5t-156 -150.5q-146 -98 -332 -98t-326 102q-96 69 -164 183t-98.5 247.5t-35 285t25.5 296.5q-126 94 -178 237.5t-25.5 283.5t117.5 240q79 87 203 123.5t249.5 5.5
t198.5 -129q58 15 115 15q161 1 243 -81t85 -216zM864 1714q-150 -80 -249.5 -291.5t-131.5 -480.5q87 -38 191.5 -34t204 37t174.5 85q65 45 116.5 116t81 148.5t33 157.5t-20 144.5t-86.5 107t-159 47.5q-57 3 -127 -25q36 -63 49 -143q13 -102 -10 -186
q-42 -155 -160 -205q-16 -5 -24 -0.5t-5 14t17 15.5q108 47 141 184q23 79 10 174q-13 79 -45 135zM401 1763q-107 -128 -134 -325t55 -351q40 158 109.5 290.5t174 233t230.5 144.5q-58 75 -137 102.5t-158 2.5t-140 -97zM1149 -8q114 78 188 234.5t97 335t16.5 357
t-45 319t-94.5 200.5q-6 -74 -35 -164q-38 -110 -122.5 -197.5t-193.5 -135t-234.5 -59.5t-246.5 29q-17 -195 -2 -371t75 -325.5t155 -224.5q98 -71 219.5 -68.5t222.5 70.5zM1212 2175q8 -25 5 -57q-2 -50 -25.5 -99.5t-67.5 -52.5q-39 -3 -66 13.5t-39 37.5t-32 39
t-45 19q-43 1 -65.5 -34.5t-12.5 -76.5q-16 -12 -18 2q-6 37 2.5 86t35 90.5t66.5 40.5q30 -1 52 -18t33.5 -37t34.5 -36.5t54 -16.5q15 1 26.5 3.5t19 8.5t12 9.5t7.5 15t4 14.5t3 18.5t2 18.5q2 14 10 15q3 0 4 -3z" />
    <glyph glyph-name="Odieresis" unicode="&#xd6;" horiz-adv-x="1712" 
d="M1311 1483q62 -28 113.5 -95t86 -158t52.5 -203t18 -228.5t-21.5 -236.5t-62 -226t-108.5 -197.5t-156 -150.5q-146 -98 -332 -98t-326 102q-96 69 -164 183t-98.5 247.5t-35 285t25.5 296.5q-126 94 -178 237.5t-25.5 283.5t117.5 240q79 87 203 123.5t249.5 5.5
t198.5 -129q58 15 115 15q161 1 243 -81t85 -216zM864 1714q-150 -80 -249.5 -291.5t-131.5 -480.5q87 -38 191.5 -34t204 37t174.5 85q65 45 116.5 116t81 148.5t33 157.5t-20 144.5t-86.5 107t-159 47.5q-57 3 -127 -25q36 -63 49 -143q13 -102 -10 -186
q-42 -155 -160 -205q-16 -5 -24 -0.5t-5 14t17 15.5q108 47 141 184q23 79 10 174q-13 79 -45 135zM401 1763q-107 -128 -134 -325t55 -351q40 158 109.5 290.5t174 233t230.5 144.5q-58 75 -137 102.5t-158 2.5t-140 -97zM1149 -8q114 78 188 234.5t97 335t16.5 357
t-45 319t-94.5 200.5q-6 -74 -35 -164q-38 -110 -122.5 -197.5t-193.5 -135t-234.5 -59.5t-246.5 29q-17 -195 -2 -371t75 -325.5t155 -224.5q98 -71 219.5 -68.5t222.5 70.5zM1151 2169q38 0 65 -28t27 -66t-27 -65.5t-65 -27.5t-66 27.5t-28 65.5t28 66t66 28zM911 2169
q38 0 66.5 -28t28.5 -66t-28.5 -65.5t-66.5 -27.5t-65 27.5t-27 65.5t27 66t65 28z" />
    <glyph glyph-name="Oslash" unicode="&#xd8;" horiz-adv-x="1712" 
d="M1104 1917q1 5 3.5 7.5t7.5 3.5t8 1.5t9.5 0t8.5 -0.5l-29 -166q96 -30 146 -104t53 -176q62 -28 113.5 -95t86 -158t52.5 -203t18 -228.5t-21.5 -236.5t-62 -226t-108.5 -197.5t-156 -150.5q-98 -64 -219 -86.5t-236 2.5l-28 -164q-1 -5 -3 -7.5t-6 -3.5t-7 -1.5t-10 0
t-9 0.5q17 102 33 182q-94 25 -173 82q-96 69 -164 183t-98.5 247.5t-35 285t25.5 296.5q-126 94 -178 237.5t-25.5 283.5t117.5 240q79 87 203 123.5t249.5 5.5t198.5 -129q58 15 115 15q55 0 94 -8zM1149 -8q114 78 188 234.5t97 335t16.5 357t-45 319t-94.5 200.5
q-6 -74 -35 -164q-38 -108 -120 -193.5t-191 -136.5l-179 -999q89 -33 185.5 -19.5t177.5 66.5zM864 1714q-150 -80 -249.5 -291.5t-131.5 -480.5q63 -28 143.5 -33t158 11t151.5 47q98 563 137 776q-17 4 -55 8q-57 3 -127 -25q36 -63 49 -143q13 -102 -10 -186
q-42 -155 -160 -205q-16 -5 -24 -0.5t-5 14t17 15.5q108 47 141 184q23 79 10 174q-13 79 -45 135zM707 -10q22 -19 49 -31l172 969q-107 -42 -220.5 -47.5t-228.5 30.5q-17 -195 -2 -371t75 -325.5t155 -224.5zM401 1763q-107 -128 -134 -325t55 -351q40 158 109.5 290.5
t174 233t230.5 144.5q-58 75 -137 102.5t-158 2.5t-140 -97zM1053 1030q59 41 108 104.5t79 133.5t39.5 144.5t-3 138t-56 113.5t-114.5 71q-34 -196 -133 -752q27 13 80 47z" />
    <glyph glyph-name="Ugrave" unicode="&#xd9;" horiz-adv-x="2381" 
d="M2486 -43q23 -34 19.5 -70t-23 -65t-57 -48t-80.5 -18q-83 2 -149 47.5t-106.5 122.5t-69.5 179.5t-38.5 218.5t-12.5 239t7 242q-28 -127 -61.5 -236t-81.5 -214.5t-103 -179.5t-128 -119.5t-156 -45.5q-90 0 -157 32t-107 87.5t-65 134t-33 168.5t-11.5 193.5t1 206.5
t4 210t-3.5 201.5t-19.5 184.5t-46.5 155q-32 69 -85 117t-115 65.5t-126.5 11t-125.5 -46t-105 -106.5q-55 -83 -93.5 -202.5t-54.5 -245.5t-12.5 -253.5t28.5 -228.5q23 -97 68.5 -158t99.5 -80.5t115 -11t115.5 42.5t100 88t69.5 119q36 95 33 219q0 11 7.5 16t15 0.5
t7.5 -16.5q3 -124 -30 -219q-32 -90 -92.5 -155.5t-133 -96t-153.5 -31.5t-154 29t-135 95.5t-96 158.5q-37 103 -44.5 229t13 251t72 245t127.5 207q108 123 268 165t313.5 -12t237.5 -194q58 -95 86 -234t30.5 -280.5t-3 -292t-7.5 -280t10.5 -233.5t58.5 -164t128 -60
q422 0 569 1304q6 49 14 134l5 43q4 43 29 55.5t96 9.5q22 -74 26.5 -216.5t-2.5 -304t-14.5 -342.5t-5 -344.5t20 -297t67 -213t129.5 -80.5q54 0 88.5 52t5.5 89q-15 21 -7 34q7 13 19 -7zM1671 2105q19 -56 29 -162.5t22 -152.5q-50 0 -67.5 7t-26.5 30
q-16 38 -46.5 106.5t-54.5 125t-40 106.5q99 0 134.5 -9.5t49.5 -50.5z" />
    <glyph glyph-name="Uacute" unicode="&#xda;" horiz-adv-x="2381" 
d="M2486 -43q23 -34 19.5 -70t-23 -65t-57 -48t-80.5 -18q-83 2 -149 47.5t-106.5 122.5t-69.5 179.5t-38.5 218.5t-12.5 239t7 242q-28 -127 -61.5 -236t-81.5 -214.5t-103 -179.5t-128 -119.5t-156 -45.5q-90 0 -157 32t-107 87.5t-65 134t-33 168.5t-11.5 193.5t1 206.5
t4 210t-3.5 201.5t-19.5 184.5t-46.5 155q-32 69 -85 117t-115 65.5t-126.5 11t-125.5 -46t-105 -106.5q-55 -83 -93.5 -202.5t-54.5 -245.5t-12.5 -253.5t28.5 -228.5q23 -97 68.5 -158t99.5 -80.5t115 -11t115.5 42.5t100 88t69.5 119q36 95 33 219q0 11 7.5 16t15 0.5
t7.5 -16.5q3 -124 -30 -219q-32 -90 -92.5 -155.5t-133 -96t-153.5 -31.5t-154 29t-135 95.5t-96 158.5q-37 103 -44.5 229t13 251t72 245t127.5 207q108 123 268 165t313.5 -12t237.5 -194q58 -95 86 -234t30.5 -280.5t-3 -292t-7.5 -280t10.5 -233.5t58.5 -164t128 -60
q422 0 569 1304q6 49 14 134l5 43q4 43 29 55.5t96 9.5q22 -74 26.5 -216.5t-2.5 -304t-14.5 -342.5t-5 -344.5t20 -297t67 -213t129.5 -80.5q54 0 88.5 52t5.5 89q-15 21 -7 34q7 13 19 -7zM1569 2101q14 41 49.5 50.5t134.5 9.5q-16 -50 -40 -106.5t-54.5 -125
t-46.5 -106.5q-9 -23 -26.5 -30t-67.5 -7q12 46 22 152.5t29 162.5z" />
    <glyph glyph-name="Ucircumflex" unicode="&#xdb;" horiz-adv-x="2381" 
d="M2486 -43q23 -34 19.5 -70t-23 -65t-57 -48t-80.5 -18q-83 2 -149 47.5t-106.5 122.5t-69.5 179.5t-38.5 218.5t-12.5 239t7 242q-28 -127 -61.5 -236t-81.5 -214.5t-103 -179.5t-128 -119.5t-156 -45.5q-90 0 -157 32t-107 87.5t-65 134t-33 168.5t-11.5 193.5t1 206.5
t4 210t-3.5 201.5t-19.5 184.5t-46.5 155q-32 69 -85 117t-115 65.5t-126.5 11t-125.5 -46t-105 -106.5q-55 -83 -93.5 -202.5t-54.5 -245.5t-12.5 -253.5t28.5 -228.5q23 -97 68.5 -158t99.5 -80.5t115 -11t115.5 42.5t100 88t69.5 119q36 95 33 219q0 11 7.5 16t15 0.5
t7.5 -16.5q3 -124 -30 -219q-32 -90 -92.5 -155.5t-133 -96t-153.5 -31.5t-154 29t-135 95.5t-96 158.5q-37 103 -44.5 229t13 251t72 245t127.5 207q108 123 268 165t313.5 -12t237.5 -194q58 -95 86 -234t30.5 -280.5t-3 -292t-7.5 -280t10.5 -233.5t58.5 -164t128 -60
q422 0 569 1304q6 49 14 134l5 43q4 43 29 55.5t96 9.5q22 -74 26.5 -216.5t-2.5 -304t-14.5 -342.5t-5 -344.5t20 -297t67 -213t129.5 -80.5q54 0 88.5 52t5.5 89q-15 21 -7 34q7 13 19 -7zM1626 2165q103 -164 182 -316q-49 -15 -82 -14.5t-47.5 8.5t-29.5 25
q-12 14 -24.5 48.5t-19 60.5t-16 73.5t-10.5 50.5q-2 -8 -17 -62t-27.5 -91.5t-25.5 -59.5q-23 -41 -54.5 -50t-111.5 13q84 152 189 314q17 24 48 24t46 -24z" />
    <glyph glyph-name="Udieresis" unicode="&#xdc;" horiz-adv-x="2381" 
d="M2486 -43q23 -34 19.5 -70t-23 -65t-57 -48t-80.5 -18q-83 2 -149 47.5t-106.5 122.5t-69.5 179.5t-38.5 218.5t-12.5 239t7 242q-28 -127 -61.5 -236t-81.5 -214.5t-103 -179.5t-128 -119.5t-156 -45.5q-90 0 -157 32t-107 87.5t-65 134t-33 168.5t-11.5 193.5t1 206.5
t4 210t-3.5 201.5t-19.5 184.5t-46.5 155q-32 69 -85 117t-115 65.5t-126.5 11t-125.5 -46t-105 -106.5q-55 -83 -93.5 -202.5t-54.5 -245.5t-12.5 -253.5t28.5 -228.5q23 -97 68.5 -158t99.5 -80.5t115 -11t115.5 42.5t100 88t69.5 119q36 95 33 219q0 11 7.5 16t15 0.5
t7.5 -16.5q3 -124 -30 -219q-32 -90 -92.5 -155.5t-133 -96t-153.5 -31.5t-154 29t-135 95.5t-96 158.5q-37 103 -44.5 229t13 251t72 245t127.5 207q108 123 268 165t313.5 -12t237.5 -194q58 -95 86 -234t30.5 -280.5t-3 -292t-7.5 -280t10.5 -233.5t58.5 -164t128 -60
q422 0 569 1304q6 49 14 134l5 43q4 43 29 55.5t96 9.5q22 -74 26.5 -216.5t-2.5 -304t-14.5 -342.5t-5 -344.5t20 -297t67 -213t129.5 -80.5q54 0 88.5 52t5.5 89q-15 21 -7 34q7 13 19 -7zM1692 2144q38 0 65 -28t27 -66t-27 -65t-65 -27q-39 0 -67 27t-28 65t28.5 66
t66.5 28zM1452 2144q38 0 66 -28t28 -66t-28 -65t-66 -27t-65 27t-27 65t27 66t65 28z" />
    <glyph glyph-name="Yacute" unicode="&#xdd;" horiz-adv-x="2295" 
d="M2124 1581q-19 -92 -26.5 -228.5t-4 -280.5t5.5 -312.5t3.5 -329.5t-11 -325t-35.5 -306t-74 -265.5t-123.5 -210t-185.5 -133.5t-258 -42q-280 10 -427 196q-117 148 -115 358q1 199 107 355q114 169 300 209q58 12 119 10q120 -4 198 -72t103 -167.5t11 -213.5
t-66 -212q-6 -12 -15 -12.5t-13 7.5t1 19q36 68 53.5 150.5t10 164t-37.5 150.5t-93.5 113t-151.5 47q-115 3 -201.5 -104.5t-111.5 -264t-9.5 -314t106.5 -270.5t234 -118q178 -5 285.5 122t140.5 335.5t44.5 471.5t-3.5 530q-3 172 -4 255q-22 -98 -48.5 -178.5t-66 -156
t-87 -126.5t-112.5 -82t-141 -31q-96 0 -166.5 30.5t-110.5 84t-65.5 126.5t-32 158.5t-9 178.5t2.5 187q0 108 1.5 209t-14.5 190t-47 155t-96 104.5t-161 37.5q-175 -1 -298 -205q-111 -185 -141 -458q-28 -268 38 -459q64 -186 197 -214q21 -4 44 -4q68 1 128.5 29.5
t104 76.5t75.5 109t48.5 127t18.5 131q0 11 8 16t15.5 0.5t7.5 -16.5q-3 -96 -33 -184.5t-83 -160t-136 -114t-184 -42.5q-217 -2 -336 180q-107 162 -103 411q4 251 117 461q120 223 319 304q92 37 195 40q92 2 166 -17.5t124.5 -56.5t88.5 -89.5t58.5 -116t35 -136
t17 -150t5 -156.5t-0.5 -157q-2 -77 -0.5 -150t5 -137t17 -118t35 -92.5t59 -60t88.5 -21.5q73 0 133.5 30.5t103.5 78t78.5 124.5t57 148.5t40 173t28 175.5t20.5 177q6 110 21 205q2 23 5.5 40t7.5 30.5t11 22.5t13 15.5t18 9.5t20.5 5t26.5 1.5t31 -1t38 -2t44 -2.5z
M1473 2105q14 41 49.5 50.5t134.5 9.5q-16 -50 -40 -106.5t-54.5 -125t-46.5 -106.5q-9 -23 -27 -30t-68 -7q12 46 22.5 152.5t29.5 162.5z" />
    <glyph glyph-name="germandbls" unicode="&#xdf;" horiz-adv-x="2037" 
d="M1845 178q96 -136 82 -350q-1 -12 -9 -16t-15.5 1.5t-6.5 16.5q14 186 -67 317q-64 -124 -185 -196.5t-258 -65.5q-142 7 -201 102q-50 80 -16 176q36 102 144 155q84 40 192 40q103 0 195 -47q9 66 8.5 129.5t-12.5 123.5t-36.5 107.5t-62 81.5t-90.5 45t-121 -1
q-51 -6 -51 10q0 6 6 14q7 11 37 21q58 59 92.5 150t43 187.5t-3 195t-39.5 176t-73 127.5t-98 51q-44 1 -67 -55.5t-27 -152.5t-2.5 -225t8.5 -269t3.5 -289.5t-15.5 -282t-49.5 -250.5t-97.5 -191q-92 -111 -245 -155t-308.5 -4t-247.5 159q-49 63 -78.5 143t-35.5 162.5
t5 166t45.5 156.5t84 130t122 90.5t158.5 34.5q93 0 168.5 -38t119.5 -102t62.5 -142t3.5 -163t-61 -159q-7 -12 -16.5 -12t-12.5 8t2 18q48 77 57.5 172t-16.5 177.5t-94 141t-164 62.5q-88 4 -152.5 -55t-94.5 -156.5t-36 -210.5t18.5 -226.5t72.5 -195.5
q61 -101 158 -132.5t191 5.5t154 127q56 84 84 218.5t31 291.5t-0.5 311.5t-2.5 325t17 285.5q22 165 94.5 243t166.5 76q80 -1 154.5 -39t130 -101.5t89.5 -153.5t35 -189q2 -135 -72.5 -256.5t-209.5 -193.5q129 10 226.5 -27t150 -105.5t76 -157t12.5 -183.5t-50 -183z
M1188 92q2 -95 80 -144q78 -50 177 -19q121 38 192 178q39 74 57 172q-82 49 -189 49q-151 1 -235 -70.5t-82 -165.5z" />
    <glyph glyph-name="agrave" unicode="&#xe0;" 
d="M858 348h31q-3 -13 -11.5 -55.5t-14.5 -66.5t-17.5 -64t-25 -64t-31.5 -49t-42.5 -37t-54.5 -12q-145 0 -182 233q-79 -215 -238 -215q-108 0 -179.5 70t-85 169.5t7 199t99 169.5t189.5 70q64 0 115 -38.5t82 -100.5q0 31 2 41q1 19 2.5 32t6 23.5t7.5 17t14 11.5t17 7
t25 3t30 1t39.5 -0.5t46.5 -0.5q0 -20 -7.5 -100.5t-14 -169.5t-8.5 -178.5t12 -148t45 -58.5q84 0 141 311zM449 172q25 44 53 131q-6 57 -6 166q-5 34 -27 80q-49 98 -139 98q-55 -1 -91.5 -61.5t-46 -147t-3 -172.5t36.5 -146t73 -59q39 0 81 30t69 81zM496 1096
q19 -56 29 -163t22 -153q-50 0 -67.5 7t-26.5 30q-5 13 -62.5 142t-79.5 196q100 0 135.5 -9t49.5 -50z" />
    <glyph glyph-name="aacute" unicode="&#xe1;" 
d="M858 348h31q-3 -13 -11.5 -55.5t-14.5 -66.5t-17.5 -64t-25 -64t-31.5 -49t-42.5 -37t-54.5 -12q-145 0 -182 233q-79 -215 -238 -215q-108 0 -179.5 70t-85 169.5t7 199t99 169.5t189.5 70q64 0 115 -38.5t82 -100.5q0 31 2 41q1 19 2.5 32t6 23.5t7.5 17t14 11.5t17 7
t25 3t30 1t39.5 -0.5t46.5 -0.5q0 -20 -7.5 -100.5t-14 -169.5t-8.5 -178.5t12 -148t45 -58.5q84 0 141 311zM449 172q25 44 53 131q-6 57 -6 166q-5 34 -27 80q-49 98 -139 98q-55 -1 -91.5 -61.5t-46 -147t-3 -172.5t36.5 -146t73 -59q39 0 81 30t69 81zM362 1096
q14 41 49.5 50t135.5 9q-16 -50 -40 -106.5t-54.5 -125t-46.5 -106.5q-9 -23 -27 -30t-68 -7q12 46 22 153t29 163z" />
    <glyph glyph-name="acircumflex" unicode="&#xe2;" 
d="M858 348h31q-3 -13 -11.5 -55.5t-14.5 -66.5t-17.5 -64t-25 -64t-31.5 -49t-42.5 -37t-54.5 -12q-145 0 -182 233q-79 -215 -238 -215q-108 0 -179.5 70t-85 169.5t7 199t99 169.5t189.5 70q64 0 115 -38.5t82 -100.5q0 31 2 41q1 19 2.5 32t6 23.5t7.5 17t14 11.5t17 7
t25 3t30 1t39.5 -0.5t46.5 -0.5q0 -20 -7.5 -100.5t-14 -169.5t-8.5 -178.5t12 -148t45 -58.5q84 0 141 311zM449 172q25 44 53 131q-6 57 -6 166q-5 34 -27 80q-49 98 -139 98q-55 -1 -91.5 -61.5t-46 -147t-3 -172.5t36.5 -146t73 -59q39 0 81 30t69 81zM479 1112
q112 -178 183 -315q-49 -15 -82.5 -14.5t-48 8.5t-29.5 24q-12 14 -24.5 48.5t-19 61.5t-16 73.5t-10.5 50.5q-2 -8 -17 -62t-27.5 -91.5t-25.5 -59.5q-23 -41 -54 -50t-111 13q86 156 188 313q17 24 48 24t46 -24z" />
    <glyph glyph-name="atilde" unicode="&#xe3;" 
d="M858 348h31q-3 -13 -11.5 -55.5t-14.5 -66.5t-17.5 -64t-25 -64t-31.5 -49t-42.5 -37t-54.5 -12q-145 0 -182 233q-79 -215 -238 -215q-108 0 -179.5 70t-85 169.5t7 199t99 169.5t189.5 70q64 0 115 -38.5t82 -100.5q0 31 2 41q1 19 2.5 32t6 23.5t7.5 17t14 11.5t17 7
t25 3t30 1t39.5 -0.5t46.5 -0.5q0 -20 -7.5 -100.5t-14 -169.5t-8.5 -178.5t12 -148t45 -58.5q84 0 141 311zM449 172q25 44 53 131q-6 57 -6 166q-5 34 -27 80q-49 98 -139 98q-55 -1 -91.5 -61.5t-46 -147t-3 -172.5t36.5 -146t73 -59q39 0 81 30t69 81zM614 1149
q7 -22 4 -57q-2 -51 -25 -100t-67 -52q-39 -3 -66 13.5t-39 37.5t-32 39t-45 19q-43 1 -65.5 -34.5t-12.5 -76.5q-16 -12 -18 2q-6 37 2.5 86t35 90.5t66.5 40.5q30 -1 52 -18t33.5 -37t34.5 -36.5t54 -16.5q15 1 26.5 3.5t19 8.5t12 9.5t7.5 15t4 14.5t3 18.5t2 18.5
q2 14 10 15q3 0 4 -3z" />
    <glyph glyph-name="adieresis" unicode="&#xe4;" 
d="M858 348h31q-3 -13 -11.5 -55.5t-14.5 -66.5t-17.5 -64t-25 -64t-31.5 -49t-42.5 -37t-54.5 -12q-145 0 -182 233q-79 -215 -238 -215q-108 0 -179.5 70t-85 169.5t7 199t99 169.5t189.5 70q64 0 115 -38.5t82 -100.5q0 31 2 41q1 19 2.5 32t6 23.5t7.5 17t14 11.5t17 7
t25 3t30 1t39.5 -0.5t46.5 -0.5q0 -20 -7.5 -100.5t-14 -169.5t-8.5 -178.5t12 -148t45 -58.5q84 0 141 311zM449 172q25 44 53 131q-6 57 -6 166q-5 34 -27 80q-49 98 -139 98q-55 -1 -91.5 -61.5t-46 -147t-3 -172.5t36.5 -146t73 -59q39 0 81 30t69 81zM549 1120
q38 0 65 -28t27 -66t-27 -65t-65 -27t-66 27t-28 65t28 66t66 28zM309 1120q38 0 66 -28t28 -66t-28 -65t-66 -27t-65 27t-27 65t27 66t65 28z" />
    <glyph glyph-name="aring" unicode="&#xe5;" 
d="M858 348h31q-3 -13 -11.5 -55.5t-14.5 -66.5t-17.5 -64t-25 -64t-31.5 -49t-42.5 -37t-54.5 -12q-145 0 -182 233q-79 -215 -238 -215q-108 0 -179.5 70t-85 169.5t7 199t99 169.5t189.5 70q64 0 115 -38.5t82 -100.5q0 31 2 41q1 19 2.5 32t6 23.5t7.5 17t14 11.5t17 7
t25 3t30 1t39.5 -0.5t46.5 -0.5q0 -20 -7.5 -100.5t-14 -169.5t-8.5 -178.5t12 -148t45 -58.5q84 0 141 311zM449 172q25 44 53 131q-6 57 -6 166q-5 34 -27 80q-49 98 -139 98q-55 -1 -91.5 -61.5t-46 -147t-3 -172.5t36.5 -146t73 -59q39 0 81 30t69 81zM446 1085
q38 0 68 -17t45.5 -44t23 -59.5t0 -65.5t-23 -60t-45.5 -44t-68 -17q-45 0 -80.5 17t-53 44t-25.5 59.5t1 65.5t27 60t53 44t78 17zM465 813q32 -1 54 23.5t26.5 59.5t-1 70.5t-27 60t-52.5 24.5q-29 0 -48.5 -24.5t-24.5 -59t-0.5 -69.5t24 -59.5t49.5 -25.5z" />
    <glyph glyph-name="ae" unicode="&#xe6;" horiz-adv-x="1128" 
d="M1128 348h31q-29 -158 -117 -245.5t-239 -88.5q-111 -1 -183 58.5t-100 158.5q-19 -36 -30.5 -55.5t-37 -54.5t-48.5 -53.5t-58 -34t-74 -15.5q-108 0 -179.5 70t-85 169.5t7 199t99 169.5t189.5 70q64 0 115 -38.5t82 -100.5q0 31 2 41q1 19 2.5 32t6 23.5t7.5 17
t14 11.5t17 7t25 3t30 1t39.5 -0.5t46.5 -0.5v-22q57 26 123 26q57 0 96 -23t51.5 -58t8 -74.5t-32.5 -76.5t-72 -58q-79 -40 -172 -29q-5 -81 8.5 -150.5t53.5 -118t100 -49.5q55 0 103.5 25.5t82 67.5t56 92t32.5 104zM449 172q25 44 53 131q-6 57 -6 166q-5 34 -27 80
q-49 98 -139 98q-55 -1 -91.5 -61.5t-46 -147t-3 -172.5t36.5 -146t73 -59q39 0 81 30t69 81zM842 647q-55 0 -95 -69.5t-51 -169.5q82 -11 154 24q53 26 76.5 78.5t1.5 95t-86 41.5z" />
    <glyph glyph-name="ccedilla" unicode="&#xe7;" horiz-adv-x="620" 
d="M651 348q-60 -317 -334 -334l-6 -67q24 24 64 24q51 -1 82.5 -31.5t36.5 -73.5t-6 -85.5t-44.5 -72.5t-78.5 -30q-57 1 -82.5 41t-11.5 83.5t55 54.5q40 10 67.5 -11.5t20.5 -68.5q-2 -7 -7 -10t-9 1t-3 13q5 37 -16 61q-22 25 -45 -6q-25 -31 -15.5 -88t48.5 -61
q27 2 46.5 31t25 68.5t2.5 79t-21 68.5t-45 31q-7 0 -13 -1.5t-10.5 -3t-9 -4.5l-7.5 -5t-7 -7l-6 -7.5t-6.5 -8.5t-6.5 -8q-5 -8 -17 -6q-6 1 -5 6l6 94q-117 -1 -193.5 69t-91.5 170t6.5 201t100.5 171.5t190 70.5q100 0 142.5 -63t13 -130t-108.5 -77q-15 -2 -21 5
t-0.5 15.5t19.5 10.5q41 6 66 37.5t27 65.5t-26.5 61t-82.5 26q-36 0 -67 -32.5t-49 -84.5t-28.5 -114t-4.5 -124.5t22.5 -114.5t52.5 -84.5t86 -33.5q55 0 104 25.5t82.5 67.5t56 92t32.5 104h30z" />
    <glyph glyph-name="egrave" unicode="&#xe8;" horiz-adv-x="620" 
d="M621 348h30q-29 -158 -117 -245.5t-239 -88.5q-117 -1 -194.5 69t-92 170t6.5 201t100 171.5t190 70.5q57 0 96 -23t51.5 -58t8 -74.5t-32.5 -76.5t-72 -58q-79 -40 -172 -29q-5 -81 8.5 -150.5t53.5 -118t100 -49.5q55 0 104 25.5t82.5 67.5t56 92t32.5 104zM377 1096
q19 -56 29 -163t22 -153q-50 0 -67.5 7t-26.5 30q-16 38 -46.5 106.5t-54.5 125t-40 106.5q99 0 134.5 -9t49.5 -50zM334 647q-55 0 -95 -69.5t-51 -169.5q82 -11 154 24q53 26 76.5 78.5t1.5 95t-86 41.5z" />
    <glyph glyph-name="eacute" unicode="&#xe9;" horiz-adv-x="620" 
d="M621 348h30q-29 -158 -117 -245.5t-239 -88.5q-117 -1 -194.5 69t-92 170t6.5 201t100 171.5t190 70.5q57 0 96 -23t51.5 -58t8 -74.5t-32.5 -76.5t-72 -58q-79 -40 -172 -29q-5 -81 8.5 -150.5t53.5 -118t100 -49.5q55 0 104 25.5t82.5 67.5t56 92t32.5 104zM244 1096
q14 41 49 50t135 9q-16 -50 -40 -106.5t-54.5 -125t-46.5 -106.5q-9 -23 -26.5 -30t-67.5 -7q12 46 22 153t29 163zM334 647q-55 0 -95 -69.5t-51 -169.5q82 -11 154 24q53 26 76.5 78.5t1.5 95t-86 41.5z" />
    <glyph glyph-name="ecircumflex" unicode="&#xea;" horiz-adv-x="620" 
d="M621 348h30q-29 -158 -117 -245.5t-239 -88.5q-117 -1 -194.5 69t-92 170t6.5 201t100 171.5t190 70.5q57 0 96 -23t51.5 -58t8 -74.5t-32.5 -76.5t-72 -58q-79 -40 -172 -29q-5 -81 8.5 -150.5t53.5 -118t100 -49.5q55 0 104 25.5t82.5 67.5t56 92t32.5 104zM360 1112
q112 -178 183 -315q-49 -15 -82.5 -14.5t-48 8.5t-29.5 24q-12 14 -24.5 48.5t-19 61.5t-16 73.5t-10.5 50.5q-3 -11 -17 -63t-26.5 -90t-25.5 -60q-23 -41 -54.5 -50t-111.5 13q86 156 188 313q17 24 48 24t46 -24zM334 647q-55 0 -95 -69.5t-51 -169.5q82 -11 154 24
q53 26 76.5 78.5t1.5 95t-86 41.5z" />
    <glyph glyph-name="edieresis" unicode="&#xeb;" horiz-adv-x="620" 
d="M621 348h30q-29 -158 -117 -245.5t-239 -88.5q-117 -1 -194.5 69t-92 170t6.5 201t100 171.5t190 70.5q57 0 96 -23t51.5 -58t8 -74.5t-32.5 -76.5t-72 -58q-79 -40 -172 -29q-5 -81 8.5 -150.5t53.5 -118t100 -49.5q55 0 104 25.5t82.5 67.5t56 92t32.5 104zM334 647
q-55 0 -95 -69.5t-51 -169.5q82 -11 154 24q53 26 76.5 78.5t1.5 95t-86 41.5zM430 1120q38 0 65 -28t27 -66t-27 -65t-65 -27t-66 27t-28 65t28 66t66 28zM190 1120q38 0 66.5 -28t28.5 -66t-28 -65t-67 -27q-38 0 -65 27t-27 65t27 66t65 28z" />
    <glyph glyph-name="igrave" unicode="&#xec;" horiz-adv-x="366" 
d="M367 348h30q-3 -12 -11.5 -55.5t-14.5 -67t-18 -63.5t-25 -63.5t-31.5 -49t-43 -37.5t-54.5 -12q-41 0 -74 15t-53.5 48.5t-36 64.5t-22 86.5t-11 88.5t-3 96.5t2.5 84.5t4 77q1 26 2 37q1 19 2.5 32t6.5 23.5t7.5 17t13.5 11.5t17.5 7t25 3t30 1t40 -0.5t46.5 -0.5
q0 -20 -7.5 -100.5t-14 -169t-8 -178.5t12.5 -148.5t45 -58.5q85 0 142 311zM168 1096q19 -56 29 -163t22 -153q-50 0 -67.5 7t-26.5 30q-16 38 -46.5 106.5t-54.5 125t-40 106.5q100 0 135 -9t49 -50z" />
    <glyph glyph-name="iacute" unicode="&#xed;" horiz-adv-x="366" 
d="M367 348h30q-3 -12 -11.5 -55.5t-14.5 -67t-18 -63.5t-25 -63.5t-31.5 -49t-43 -37.5t-54.5 -12q-41 0 -74 15t-53.5 48.5t-36 64.5t-22 86.5t-11 88.5t-3 96.5t2.5 84.5t4 77q1 26 2 37q1 19 2.5 32t6.5 23.5t7.5 17t13.5 11.5t17.5 7t25 3t30 1t40 -0.5t46.5 -0.5
q0 -20 -7.5 -100.5t-14 -169t-8 -178.5t12.5 -148.5t45 -58.5q85 0 142 311zM117 1096q14 41 49.5 50t134.5 9q-16 -50 -40 -106.5t-54.5 -125t-46.5 -106.5q-9 -23 -26.5 -30t-67.5 -7q12 46 22 153t29 163z" />
    <glyph glyph-name="icircumflex" unicode="&#xee;" horiz-adv-x="366" 
d="M367 348h30q-3 -12 -11.5 -55.5t-14.5 -67t-18 -63.5t-25 -63.5t-31.5 -49t-43 -37.5t-54.5 -12q-41 0 -74 15t-53.5 48.5t-36 64.5t-22 86.5t-11 88.5t-3 96.5t2.5 84.5t4 77q1 26 2 37q1 19 2.5 32t6.5 23.5t7.5 17t13.5 11.5t17.5 7t25 3t30 1t40 -0.5t46.5 -0.5
q0 -20 -7.5 -100.5t-14 -169t-8 -178.5t12.5 -148.5t45 -58.5q85 0 142 311zM156 1112q106 -168 182 -315q-49 -15 -82.5 -14.5t-48 8.5t-29.5 24q-12 14 -24 48.5t-18.5 62t-16 72t-10.5 51.5q-2 -8 -17 -62t-27.5 -91.5t-25.5 -59.5q-23 -41 -54.5 -50t-111.5 13
q86 156 188 313q17 24 48.5 24t46.5 -24z" />
    <glyph glyph-name="idieresis" unicode="&#xef;" horiz-adv-x="366" 
d="M367 348h30q-3 -12 -11.5 -55.5t-14.5 -67t-18 -63.5t-25 -63.5t-31.5 -49t-43 -37.5t-54.5 -12q-41 0 -74 15t-53.5 48.5t-36 64.5t-22 86.5t-11 88.5t-3 96.5t2.5 84.5t4 77q1 26 2 37q1 19 2.5 32t6.5 23.5t7.5 17t13.5 11.5t17.5 7t25 3t30 1t40 -0.5t46.5 -0.5
q0 -20 -7.5 -100.5t-14 -169t-8 -178.5t12.5 -148.5t45 -58.5q85 0 142 311zM14 1120q38 0 66.5 -28t28.5 -66t-28 -65t-67 -27q-38 0 -65 27t-27 65t27 66t65 28zM254 1120q38 0 65 -28t27 -66t-27 -65t-65 -27t-66 27t-28 65t28 66t66 28z" />
    <glyph glyph-name="ntilde" unicode="&#xf1;" horiz-adv-x="831" 
d="M831 348h31q-6 -51 -19 -102.5t-35.5 -107.5t-60 -93t-83.5 -41q-68 -6 -112 18.5t-62 69t-26 103t-4 120.5t4 121.5t-3.5 106.5t-25 75.5t-60.5 28.5q-36 -1 -67.5 -22.5t-54.5 -58t-39.5 -72t-29.5 -76.5q-1 -60 -1 -162t-1 -141q-1 -33 -18.5 -53t-42 -24.5
t-52.5 -6.5t-49 2q-28 248 -20 585q0 19 5.5 32.5t15.5 21.5t24 13t32 6.5t39 2.5t45 0h27q-4 -126 -4 -186q81 188 232 188q71 0 119 -28t69 -73.5t31 -104t7 -120t-5.5 -120t-5 -104t8 -73.5t34.5 -28q26 0 54.5 28.5t49.5 78.5q41 93 53 196zM561 1149q7 -22 4 -57
q-2 -51 -25 -100t-67 -52q-39 -3 -66 13.5t-39 37.5t-32 39t-45 19q-43 1 -65.5 -34.5t-12.5 -76.5q-16 -12 -18 2q-6 37 2.5 86t35 90.5t66.5 40.5q30 -1 52 -18t33.5 -37t34.5 -36.5t54 -16.5q15 1 26.5 3.5t19 8.5t12 9.5t7.5 15t4 14.5t3 18.5t2 18.5q2 14 10 15
q3 0 4 -3z" />
    <glyph glyph-name="ograve" unicode="&#xf2;" horiz-adv-x="729" 
d="M729 348h31q-12 -65 -37 -123.5t-63.5 -110t-95 -82.5t-124.5 -32q-68 0 -116 25q-28 -7 -52 -7q-108 0 -179.5 70t-85 169.5t7 199t99 169.5t189.5 70q78 0 133 -38t79.5 -97.5t28 -134t-14 -145t-55 -132.5t-87.5 -96q34 -20 80 -20q57 0 110 41.5t91 107.5
q41 69 61 166zM338 109q18 -27 22 -31q43 23 76 75.5t49.5 115.5t17.5 130.5t-15 122.5t-54.5 90t-93.5 35q-58 0 -96.5 -55t-49.5 -136t-7 -164t28.5 -147.5t60.5 -78.5q-7 14 -4 30q18 32 26.5 40.5t16 3t23.5 -30.5zM391 1096q19 -56 29 -163t22 -153q-50 0 -67.5 7
t-26.5 30q-16 38 -46.5 106.5t-54.5 125t-40 106.5q99 0 134.5 -9t49.5 -50z" />
    <glyph glyph-name="oacute" unicode="&#xf3;" horiz-adv-x="729" 
d="M729 348h31q-12 -65 -37 -123.5t-63.5 -110t-95 -82.5t-124.5 -32q-68 0 -116 25q-28 -7 -52 -7q-108 0 -179.5 70t-85 169.5t7 199t99 169.5t189.5 70q78 0 133 -38t79.5 -97.5t28 -134t-14 -145t-55 -132.5t-87.5 -96q34 -20 80 -20q57 0 110 41.5t91 107.5
q41 69 61 166zM338 109q18 -27 22 -31q43 23 76 75.5t49.5 115.5t17.5 130.5t-15 122.5t-54.5 90t-93.5 35q-58 0 -96.5 -55t-49.5 -136t-7 -164t28.5 -147.5t60.5 -78.5q-7 14 -4 30q18 32 26.5 40.5t16 3t23.5 -30.5zM297 1096q14 41 49.5 50t134.5 9q-16 -50 -40 -106.5
t-54.5 -125t-46.5 -106.5q-9 -23 -26.5 -30t-67.5 -7q12 46 22 153t29 163z" />
    <glyph glyph-name="ocircumflex" unicode="&#xf4;" horiz-adv-x="729" 
d="M729 348h31q-12 -65 -37 -123.5t-63.5 -110t-95 -82.5t-124.5 -32q-68 0 -116 25q-28 -7 -52 -7q-108 0 -179.5 70t-85 169.5t7 199t99 169.5t189.5 70q78 0 133 -38t79.5 -97.5t28 -134t-14 -145t-55 -132.5t-87.5 -96q34 -20 80 -20q57 0 110 41.5t91 107.5
q41 69 61 166zM338 109q18 -27 22 -31q43 23 76 75.5t49.5 115.5t17.5 130.5t-15 122.5t-54.5 90t-93.5 35q-58 0 -96.5 -55t-49.5 -136t-7 -164t28.5 -147.5t60.5 -78.5q-7 14 -4 30q18 32 26.5 40.5t16 3t23.5 -30.5zM381 1112q106 -168 182 -315q-49 -15 -82.5 -14.5
t-48 8.5t-29.5 24q-12 14 -24 48.5t-18.5 62t-16 72t-10.5 51.5q-2 -8 -17 -62t-27.5 -91.5t-25.5 -59.5q-23 -41 -54.5 -50t-111.5 13q80 146 189 313q17 24 48 24t46 -24z" />
    <glyph glyph-name="otilde" unicode="&#xf5;" horiz-adv-x="729" 
d="M729 348h31q-12 -65 -37 -123.5t-63.5 -110t-95 -82.5t-124.5 -32q-68 0 -116 25q-28 -7 -52 -7q-108 0 -179.5 70t-85 169.5t7 199t99 169.5t189.5 70q78 0 133 -38t79.5 -97.5t28 -134t-14 -145t-55 -132.5t-87.5 -96q34 -20 80 -20q57 0 110 41.5t91 107.5
q41 69 61 166zM338 109q18 -27 22 -31q43 23 76 75.5t49.5 115.5t17.5 130.5t-15 122.5t-54.5 90t-93.5 35q-58 0 -96.5 -55t-49.5 -136t-7 -164t28.5 -147.5t60.5 -78.5q-7 14 -4 30q18 32 26.5 40.5t16 3t23.5 -30.5zM516 1077q7 -22 4 -57q-2 -51 -25 -100t-67 -52
q-39 -3 -66 13.5t-39 37.5t-32 39t-45 19q-43 1 -65.5 -34.5t-12.5 -76.5q-16 -12 -18 2q-6 37 2.5 86t35 90.5t66.5 40.5q30 -1 52 -18t33.5 -37t34.5 -36.5t54 -16.5q15 1 26.5 3.5t19 8.5t12 9.5t7.5 15t4 14.5t3 18.5t2 18.5q2 14 10 15q3 0 4 -3z" />
    <glyph glyph-name="odieresis" unicode="&#xf6;" horiz-adv-x="729" 
d="M729 348h31q-12 -65 -37 -123.5t-63.5 -110t-95 -82.5t-124.5 -32q-68 0 -116 25q-28 -7 -52 -7q-108 0 -179.5 70t-85 169.5t7 199t99 169.5t189.5 70q78 0 133 -38t79.5 -97.5t28 -134t-14 -145t-55 -132.5t-87.5 -96q34 -20 80 -20q57 0 110 41.5t91 107.5
q41 69 61 166zM338 109q18 -27 22 -31q43 23 76 75.5t49.5 115.5t17.5 130.5t-15 122.5t-54.5 90t-93.5 35q-58 0 -96.5 -55t-49.5 -136t-7 -164t28.5 -147.5t60.5 -78.5q-7 14 -4 30q18 32 26.5 40.5t16 3t23.5 -30.5zM469 1061q38 0 65 -28t27 -66t-27 -65.5t-65 -27.5
t-66 27.5t-28 65.5t28 66t66 28zM229 1061q38 0 66.5 -28t28.5 -66t-28.5 -65.5t-66.5 -27.5t-65 27.5t-27 65.5t27 66t65 28z" />
    <glyph glyph-name="divide" unicode="&#xf7;" horiz-adv-x="940" 
d="M461 893q-38 0 -65 28t-27 66t27 65t65 27t66 -27t28 -65t-28 -66t-66 -28zM461 709q38 0 66 -27.5t28 -65.5t-28 -66t-66 -28t-65 28t-27 66t27 65.5t65 27.5zM164 829q160 2 618 2q-9 -60 -15 -64q-8 -2 -32 -1q-446 0 -602 -2q5 25 14 45t17 20z" />
    <glyph glyph-name="oslash" unicode="&#xf8;" horiz-adv-x="729" 
d="M444 770q3 4 29 4l-41 -115q85 -56 105.5 -180t-23 -246.5t-127.5 -179.5q34 -20 80 -20q57 0 110 41.5t91 107.5q41 69 61 166h31q-12 -65 -37 -123.5t-63.5 -110t-95 -82.5t-124.5 -32q-68 0 -116 25q-28 -7 -52 -7q-26 0 -61 7q-5 -16 -18.5 -54t-20.5 -59
q-1 -4 -29 -4l43 123q-69 23 -114.5 82t-62 132.5t-5.5 153.5t45.5 145.5t101 108.5t152.5 43q63 0 109 -24q18 60 32 98zM338 109q18 -27 22 -31q56 30 93.5 106.5t47 160.5t-10.5 163.5t-70 114.5l-182 -523q20 -26 38 -34q-7 14 -4 30q18 32 26.5 40.5t16 3t23.5 -30.5z
M340 647q-60 0 -98.5 -59t-50 -142t-4 -171t33.5 -146q127 363 176 506q-32 12 -57 12z" />
    <glyph glyph-name="ugrave" unicode="&#xf9;" horiz-adv-x="831" 
d="M831 348h31q-3 -14 -11.5 -56t-14.5 -66t-17.5 -63.5t-24.5 -64t-31.5 -49.5t-43.5 -37t-55 -12q-52 -1 -90 25t-59.5 73t-32.5 99t-15 118q-13 -51 -27.5 -91.5t-37.5 -84.5t-51 -72.5t-68.5 -47.5t-89.5 -19q-58 0 -99 40t-59.5 103t-29 142t-9 157t1.5 148
q0 23 3.5 38t7.5 27t16.5 19t23 11.5t35 6t44 2t58.5 0.5q-1 -19 -5 -77.5t-7 -110t-5 -120t2 -123t12.5 -103.5t27.5 -76t47 -27q36 0 68 28.5t52.5 66.5t39.5 96.5t28 95.5t19 88q3 96 10 166q1 19 2 32t6 23.5t8 17t14 11.5t17 7t25 3t30 1t40 -0.5t47 -0.5
q0 -19 -8 -100.5t-14.5 -169.5t-8.5 -178.5t12 -148.5t45 -58q84 0 141 311zM403 1096q19 -56 29.5 -163t22.5 -153q-50 0 -68 7t-27 30q-16 38 -46.5 106.5t-54.5 125t-40 106.5q99 0 134.5 -9t49.5 -50z" />
    <glyph glyph-name="uacute" unicode="&#xfa;" horiz-adv-x="831" 
d="M831 348h31q-3 -14 -11.5 -56t-14.5 -66t-17.5 -63.5t-24.5 -64t-31.5 -49.5t-43.5 -37t-55 -12q-52 -1 -90 25t-59.5 73t-32.5 99t-15 118q-13 -51 -27.5 -91.5t-37.5 -84.5t-51 -72.5t-68.5 -47.5t-89.5 -19q-58 0 -99 40t-59.5 103t-29 142t-9 157t1.5 148
q0 23 3.5 38t7.5 27t16.5 19t23 11.5t35 6t44 2t58.5 0.5q-1 -19 -5 -77.5t-7 -110t-5 -120t2 -123t12.5 -103.5t27.5 -76t47 -27q36 0 68 28.5t52.5 66.5t39.5 96.5t28 95.5t19 88q3 96 10 166q1 19 2 32t6 23.5t8 17t14 11.5t17 7t25 3t30 1t40 -0.5t47 -0.5
q0 -19 -8 -100.5t-14.5 -169.5t-8.5 -178.5t12 -148.5t45 -58q84 0 141 311zM348 1096q14 41 49 50t135 9q-16 -50 -40 -106.5t-54.5 -125t-46.5 -106.5q-9 -23 -26.5 -30t-67.5 -7q12 46 22 153t29 163z" />
    <glyph glyph-name="ucircumflex" unicode="&#xfb;" horiz-adv-x="831" 
d="M831 348h31q-3 -14 -11.5 -56t-14.5 -66t-17.5 -63.5t-24.5 -64t-31.5 -49.5t-43.5 -37t-55 -12q-52 -1 -90 25t-59.5 73t-32.5 99t-15 118q-13 -51 -27.5 -91.5t-37.5 -84.5t-51 -72.5t-68.5 -47.5t-89.5 -19q-58 0 -99 40t-59.5 103t-29 142t-9 157t1.5 148
q0 23 3.5 38t7.5 27t16.5 19t23 11.5t35 6t44 2t58.5 0.5q-1 -19 -5 -77.5t-7 -110t-5 -120t2 -123t12.5 -103.5t27.5 -76t47 -27q36 0 68 28.5t52.5 66.5t39.5 96.5t28 95.5t19 88q3 96 10 166q1 19 2 32t6 23.5t8 17t14 11.5t17 7t25 3t30 1t40 -0.5t47 -0.5
q0 -19 -8 -100.5t-14.5 -169.5t-8.5 -178.5t12 -148.5t45 -58q84 0 141 311zM387 1112q106 -168 182 -315q-49 -15 -82 -14.5t-47.5 8.5t-29.5 24q-12 14 -24.5 48.5t-19 61.5t-16 73.5t-10.5 50.5q-2 -8 -17 -62t-27.5 -91.5t-25.5 -59.5q-23 -41 -54.5 -50t-111.5 13
q80 146 189 313q17 24 48 24t46 -24z" />
    <glyph glyph-name="udieresis" unicode="&#xfc;" horiz-adv-x="831" 
d="M831 348h31q-3 -14 -11.5 -56t-14.5 -66t-17.5 -63.5t-24.5 -64t-31.5 -49.5t-43.5 -37t-55 -12q-52 -1 -90 25t-59.5 73t-32.5 99t-15 118q-13 -51 -27.5 -91.5t-37.5 -84.5t-51 -72.5t-68.5 -47.5t-89.5 -19q-58 0 -99 40t-59.5 103t-29 142t-9 157t1.5 148
q0 23 3.5 38t7.5 27t16.5 19t23 11.5t35 6t44 2t58.5 0.5q-1 -19 -5 -77.5t-7 -110t-5 -120t2 -123t12.5 -103.5t27.5 -76t47 -27q36 0 68 28.5t52.5 66.5t39.5 96.5t28 95.5t19 88q3 96 10 166q1 19 2 32t6 23.5t8 17t14 11.5t17 7t25 3t30 1t40 -0.5t47 -0.5
q0 -19 -8 -100.5t-14.5 -169.5t-8.5 -178.5t12 -148.5t45 -58q84 0 141 311zM229 1120q38 0 66.5 -28t28.5 -66t-28 -65t-67 -27q-38 0 -65 27t-27 65t27 66t65 28zM469 1120q38 0 65 -28t27 -66t-27 -65t-65 -27t-66 27t-28 65t28 66t66 28z" />
    <glyph glyph-name="yacute" unicode="&#xfd;" horiz-adv-x="888" 
d="M889 348h31q-32 -139 -91 -228.5t-184 -174.5q-8 -166 -31.5 -302t-68 -255t-121 -183.5t-178.5 -58.5q-62 4 -99.5 50t-47.5 109t-1 136q10 78 41.5 142.5t83 116t105 90t129.5 81.5l4 104v37q1 41 1 87t-0.5 103.5t-0.5 88.5q-17 -61 -37 -107t-51.5 -91t-77 -69
t-102.5 -24q-58 0 -99 40t-59.5 103t-29 142t-9 157t1.5 148q0 23 3.5 38t7.5 27t16.5 19t23 11.5t35 6t44 2t58.5 0.5q-1 -19 -5 -77.5t-7 -110t-5 -120t2 -123t12.5 -103.5t27.5 -76t47 -27q33 0 63 24.5t50 58t38.5 85.5t28.5 89.5t21 86.5l-1 105q0 104 1 104
q0 33 17 53t41.5 24.5t52 6.5t48.5 -2q41 -365 27 -708q203 142 244 364zM248 -823q47 -3 83 26.5t57.5 93t35.5 116t20.5 145.5t8.5 128t3 112q1 26 1 36q-69 -39 -118.5 -75t-95.5 -84t-74 -108t-38 -132q-6 -63 -1 -119t35.5 -95.5t82.5 -43.5zM332 1096q14 41 49 50
t135 9q-16 -50 -40 -106.5t-54.5 -125t-46.5 -106.5q-9 -23 -26.5 -30t-67.5 -7q12 46 22 153t29 163z" />
    <glyph glyph-name="ydieresis" unicode="&#xff;" horiz-adv-x="888" 
d="M889 348h31q-32 -139 -91 -228.5t-184 -174.5q-8 -166 -31.5 -302t-68 -255t-121 -183.5t-178.5 -58.5q-62 4 -99.5 50t-47.5 109t-1 136q10 78 41.5 142.5t83 116t105 90t129.5 81.5l4 104v37q1 41 1 87t-0.5 103.5t-0.5 88.5q-17 -61 -37 -107t-51.5 -91t-77 -69
t-102.5 -24q-58 0 -99 40t-59.5 103t-29 142t-9 157t1.5 148q0 23 3.5 38t7.5 27t16.5 19t23 11.5t35 6t44 2t58.5 0.5q-1 -19 -5 -77.5t-7 -110t-5 -120t2 -123t12.5 -103.5t27.5 -76t47 -27q33 0 63 24.5t50 58t38.5 85.5t28.5 89.5t21 86.5l-1 105q0 104 1 104
q0 33 17 53t41.5 24.5t52 6.5t48.5 -2q41 -365 27 -708q203 142 244 364zM248 -823q47 -3 83 26.5t57.5 93t35.5 116t20.5 145.5t8.5 128t3 112q1 26 1 36q-69 -39 -118.5 -75t-95.5 -84t-74 -108t-38 -132q-6 -63 -1 -119t35.5 -95.5t82.5 -43.5zM449 1073q38 0 65 -28
t27 -66t-27 -65t-65 -27q-39 0 -67 27t-28 65t28.5 66t66.5 28zM209 1073q38 0 66 -28t28 -66t-28 -65t-66 -27t-65 27t-27 65t27 66t65 28z" />
    <glyph glyph-name="dotlessi" unicode="&#x131;" horiz-adv-x="366" 
d="M367 348h30q-3 -12 -11.5 -55.5t-14.5 -67t-18 -63.5t-25 -63.5t-31.5 -49t-43 -37.5t-54.5 -12q-41 0 -74 15t-53.5 48.5t-36 64.5t-22 86.5t-11 88.5t-3 96.5t2.5 84.5t4 77q1 26 2 37q1 19 2.5 32t6.5 23.5t7.5 17t13.5 11.5t17.5 7t25 3t30 1t40 -0.5t46.5 -0.5
q0 -20 -7.5 -100.5t-14 -169t-8 -178.5t12.5 -148.5t45 -58.5q85 0 142 311zM131 899q-38 0 -65 28t-27 66t27 65t65 27t66 -27t28 -65t-28 -66t-66 -28z" />
    <glyph glyph-name="Lslash" unicode="&#x141;" horiz-adv-x="1816" 
d="M1524 338q129 2 201 -105q66 -97 53 -224q-14 -137 -114 -218q-94 -76 -241 -74q-122 -2 -231 18.5t-195 55.5t-160 71.5t-159 75t-158 58.5q-65 -182 -201 -217q-113 -26 -172 47q-49 61 -34 148q18 95 101 145q70 42 169 35q1 43 -0.5 100.5t-4.5 101t-8 119.5t-8 117
l-159 -82q-20 67 -6 74l161 84q-5 158 -10 313.5t25 299t85.5 254.5t172 180.5t284.5 76.5q92 4 177.5 -18.5t161.5 -71.5t134 -133.5t87 -196.5q21 -70 17.5 -141.5t-21 -138t-56 -124.5t-89 -101t-119 -68t-146.5 -25q-108 -1 -187.5 45t-120.5 121t-56.5 168t-4 189
t44.5 182q6 17 20 10q15 -8 9 -27q-30 -76 -40.5 -166t3 -178.5t47.5 -160.5t100 -114.5t154 -39.5q61 3 112 38.5t82.5 92.5t51.5 130t19.5 150.5t-13.5 153.5q-27 139 -85.5 230.5t-128 129t-150.5 35.5q-62 -2 -113 -22t-88.5 -53.5t-67 -84.5t-48.5 -106t-31.5 -128
t-18.5 -140t-7.5 -152.5t0 -156t5.5 -158.5l156 78q3 -13 9 -32q7 -26 5 -31.5t-22 -15.5q-3 -2 -5 -3q-24 -13 -72.5 -36.5t-68.5 -33.5q1 -18 5 -94.5t5 -99.5t3.5 -84t2.5 -88t-0.5 -70t-3.5 -72.5t-8 -54.5q91 -24 208.5 -73t205.5 -90t207 -74t231 -35q191 -3 284 102
q69 78 54 175q-14 93 -96 141q-54 31 -125 34q-14 0 -14.5 16.5t14.5 16.5zM244 -195q28 0 51 16t35.5 37t22.5 55t14 55t8 52q-124 8 -181.5 -36t-43.5 -103q7 -32 30.5 -54t63.5 -22z" />
    <glyph glyph-name="lslash" unicode="&#x142;" horiz-adv-x="796" 
d="M584 47q44 4 82.5 35.5t64 79.5t42 94.5t24.5 91.5h30q-12 -55 -25.5 -98t-37 -92t-53 -81.5t-74.5 -54.5t-100 -22q-52 0 -93.5 27.5t-67.5 70.5t-44.5 104.5t-27.5 121t-13 127.5l-170 -86q-20 66 -6 73l172 88q-1 40 0.5 100t1.5 68q3 116 13 219t28.5 207.5t49.5 186
t73 145.5t102.5 96.5t134.5 28.5q116 -7 139 -137q23 -135 -54 -332t-203 -320q-48 -47 -97 -75q0 -6 -2 -38t-2 -57l152 76q3 -13 9 -32q7 -26 5 -31.5t-22 -15.5q-3 -2 -5 -3l-141 -71q-10 -503 115 -494zM688 1546q-107 8 -156 -156q-43 -140 -53 -496q-1 -36 -4 -146
q126 79 223 266q94 178 104 335q9 154 -75 189q-19 7 -39 8z" />
    <glyph glyph-name="oe" unicode="&#x153;" horiz-adv-x="1124" 
d="M1124 348h31q-29 -158 -117 -245.5t-239 -88.5q-114 -1 -186 61t-97 163q-34 -97 -98 -158.5t-146 -61.5q-108 0 -179.5 70t-85 169.5t7 199t99 169.5t189.5 70q95 0 152 -54.5t77 -143.5q36 90 106.5 144t170.5 54q57 0 96 -23t51.5 -58t8 -74.5t-32.5 -76.5t-72 -58
q-79 -40 -172 -29q-5 -81 8.5 -150.5t53.5 -118t100 -49.5q55 0 103.5 25.5t82 67.5t56 92t32.5 104zM340 647q-69 0 -114 -60t-53.5 -145.5t2.5 -171t51.5 -144.5t95.5 -58q87 2 139 115q51 111 39 248q-11 140 -82 193q-34 25 -78 23zM838 647q-55 0 -95 -69.5t-51 -169.5
q82 -11 154 24q53 26 76.5 78.5t1.5 95t-86 41.5z" />
    <glyph glyph-name="Scaron" unicode="&#x160;" horiz-adv-x="1660" 
d="M1497 428q8 -155 -35.5 -283.5t-131.5 -220t-225 -142t-312 -50.5q-342 1 -530 191q-140 143 -157 349q-15 192 81 350q100 163 278 214q66 19 139 20q113 2 206 -40.5t150 -116.5t84.5 -165.5t16.5 -195.5t-60 -199q-6 -13 -14.5 -13.5t-13.5 8.5t0 20q38 74 52 155
t3.5 155t-44 140.5t-86 115.5t-127.5 77.5t-163 27.5q-137 -2 -225 -145q-86 -139 -87 -338q-2 -218 99 -374q124 -191 357 -203q19 -1 39 -1q95 -1 176 34t140 97.5t100 146t60 181.5t17 203q-3 74 -24 143t-49 121t-73 110.5t-82 98t-91.5 97.5t-87.5 96q-311 -87 -514 19
q-133 71 -179 202q-44 128 14 245q63 127 216 175q64 19 139 22q110 6 207 -37q34 48 85.5 79t109 38t113 -5.5t103 -54.5t74.5 -106q24 -59 26 -126t-19 -135t-73.5 -133.5t-131.5 -113.5q22 -20 72 -64.5t76.5 -69t71 -71t70 -81.5t58.5 -88.5t51.5 -104.5t33 -117
t17.5 -137zM573 1724q-115 -1 -191 -106q-70 -98 -66 -226q4 -143 102 -226q146 -124 436 -48q-118 152 -148 302.5t35 271.5q-78 32 -168 32zM836 1634q-14 -142 29 -240.5t157 -207.5q78 45 129.5 107.5t71 127.5t16.5 128.5t-27 117.5q-23 49 -64.5 84.5t-89 47t-93 5
t-80 -42t-45.5 -92.5q73 -56 116.5 -140.5t49.5 -187.5q1 -14 -7 -19t-16 0.5t-8 18.5q-12 182 -139 293zM948 1966q-106 168 -182 315q49 15 82.5 14.5t48 -8.5t29.5 -24q12 -14 24 -48t18.5 -61.5t16 -72.5t10.5 -51q2 8 17 62t27.5 91.5t25.5 59.5q23 41 54.5 49.5
t111.5 -13.5q-80 -146 -189 -313q-17 -24 -48 -24t-46 24z" />
    <glyph glyph-name="scaron" unicode="&#x161;" horiz-adv-x="583" 
d="M444 350q23 -61 23.5 -120.5t-21.5 -109.5t-73.5 -83t-126.5 -39q-60 -4 -109 21t-73.5 67.5t-30.5 95t20 103.5q8 19 31 20q19 1 18 -15q-1 -9 -8 -20q-22 -33 -23 -75.5t15 -78.5t49 -58.5t74 -18.5q55 5 88.5 62.5t11.5 138.5q-14 57 -60.5 122t-102 136.5
t-80.5 130.5q-11 -139 -35 -281h-31q33 199 43 377q-3 166 176 166q48 0 77.5 -26.5t32 -60.5t-24 -66.5t-77.5 -43.5q16 -27 104 -154t113 -190zM252 850q-22 -1 -34 -16t-13.5 -36.5t1 -41t7.5 -33.5q72 6 86 54q10 35 -15 60q-14 14 -32 13zM154 958q-109 173 -183 316
q49 15 82.5 14.5t48 -9t29.5 -24.5q12 -14 24.5 -48.5t19 -60.5t16 -73.5t10.5 -50.5q3 11 17 63t26.5 90t25.5 60q23 41 54.5 50t111.5 -13q-90 -163 -188 -314q-17 -24 -48 -24t-46 24z" />
    <glyph glyph-name="Ydieresis" unicode="&#x178;" horiz-adv-x="2295" 
d="M2124 1581q-19 -92 -26.5 -228.5t-4 -280.5t5.5 -312.5t3.5 -329.5t-11 -325t-35.5 -306t-74 -265.5t-123.5 -210t-185.5 -133.5t-258 -42q-280 10 -427 196q-117 148 -115 358q1 199 107 355q114 169 300 209q58 12 119 10q120 -4 198 -72t103 -167.5t11 -213.5
t-66 -212q-6 -12 -15 -12.5t-13 7.5t1 19q36 68 53.5 150.5t10 164t-37.5 150.5t-93.5 113t-151.5 47q-115 3 -201.5 -104.5t-111.5 -264t-9.5 -314t106.5 -270.5t234 -118q178 -5 285.5 122t140.5 335.5t44.5 471.5t-3.5 530q-3 172 -4 255q-22 -98 -48.5 -178.5t-66 -156
t-87 -126.5t-112.5 -82t-141 -31q-96 0 -166.5 30.5t-110.5 84t-65.5 126.5t-32 158.5t-9 178.5t2.5 187q0 108 1.5 209t-14.5 190t-47 155t-96 104.5t-161 37.5q-175 -1 -298 -205q-111 -185 -141 -458q-28 -268 38 -459q64 -186 197 -214q21 -4 44 -4q68 1 128.5 29.5
t104 76.5t75.5 109t48.5 127t18.5 131q0 11 8 16t15.5 0.5t7.5 -16.5q-3 -96 -33 -184.5t-83 -160t-136 -114t-184 -42.5q-217 -2 -336 180q-107 162 -103 411q4 251 117 461q120 223 319 304q92 37 195 40q92 2 166 -17.5t124.5 -56.5t88.5 -89.5t58.5 -116t35 -136
t17 -150t5 -156.5t-0.5 -157q-2 -77 -0.5 -150t5 -137t17 -118t35 -92.5t59 -60t88.5 -21.5q73 0 133.5 30.5t103.5 78t78.5 124.5t57 148.5t40 173t28 175.5t20.5 177q6 110 21 205q2 23 5.5 40t7.5 30.5t11 22.5t13 15.5t18 9.5t20.5 5t26.5 1.5t31 -1t38 -2t44 -2.5z
M1653 2079q38 0 65 -28t27 -66t-27 -65.5t-65 -27.5t-66 27.5t-28 65.5t28 66t66 28zM1413 2079q38 0 66 -28t28 -66t-28 -65.5t-66 -27.5t-65 27.5t-27 65.5t27 66t65 28z" />
    <glyph glyph-name="Zcaron" unicode="&#x17d;" horiz-adv-x="1435" 
d="M836 852q132 -18 232.5 -91.5t149 -178t65 -226.5t-23 -240.5t-111.5 -215.5t-203 -157t-296 -60q-267 0 -422 174q-120 135 -134 327q-13 182 73 321q94 150 265 175q25 3 52 4q82 2 150.5 -25.5t111 -76t71 -110.5t33.5 -130t-5.5 -133t-42 -122.5t-78.5 -94.5
q-12 -9 -21 -6t-9 12.5t9 17.5q50 39 79 102t33.5 132t-12 139.5t-51.5 126.5t-92 91.5t-127 35.5q-121 1 -192 -137q-69 -135 -59 -326q10 -204 104 -333q100 -140 264 -132q198 -1 320 177q104 153 117 376q12 216 -69 373q-84 164 -237 182q-22 3 -45 2q-3 33 4 47.5
t33 20.5q47 10 70 37q49 52 83 135t48.5 174.5t4.5 184.5t-42.5 165.5t-99.5 116.5t-160 39q66 -46 114 -121.5t70.5 -159.5t17.5 -171t-37 -157.5t-101.5 -119t-168.5 -55.5q-155 -12 -254 108q-87 107 -91 262q-4 168 93 290q91 115 248 148q-84 35 -165.5 35.5
t-146 -30.5t-107.5 -97.5t-50 -158.5q-2 -14 -10.5 -18.5t-15.5 1t-6 17.5q8 105 60.5 180.5t129.5 109t173.5 27t191.5 -56.5q118 14 218 -9.5t166.5 -74.5t110 -122.5t57.5 -152.5t0.5 -166t-54 -161t-113.5 -140t-170 -100zM575 989q90 1 153.5 45.5t91.5 113t30 154
t-23 167t-76 155t-120 115.5q-132 -31 -202 -183q-64 -138 -49 -302q14 -156 92 -226q44 -40 103 -39zM668 1843q-109 173 -183 316q49 15 82.5 14.5t48 -9t29.5 -24.5q12 -14 24.5 -48.5t19 -60.5t16 -73.5t10.5 -50.5q3 11 17 63t26.5 90t25.5 60q23 41 54.5 50t111.5 -13
q-90 -163 -188 -314q-17 -24 -48 -24t-46 24z" />
    <glyph glyph-name="zcaron" unicode="&#x17e;" horiz-adv-x="698" 
d="M729 348q-28 -127 -64.5 -197t-119.5 -137q62 -132 54 -314t-81 -333q-38 -78 -101 -137t-129.5 -82t-126.5 -17t-100 60t-43 147q-6 127 50 248q27 60 63.5 112t88 99.5t91.5 78.5t107 79q-24 198 -121 195q-14 0 -80 -21q-16 -4 -31 25q-2 4 0.5 8.5t10 12t8.5 9.5
q44 51 87.5 163t39.5 213.5t-88 101.5q-46 0 -84.5 -31.5t-63.5 -84t-40 -99.5t-25 -99h-31q12 52 22.5 91t32 91t46.5 87t64 61.5t85 30.5q64 5 114 -15t77 -57.5t40.5 -85.5t5.5 -102t-29.5 -105t-64 -96.5t-98.5 -73.5q154 8 235 -133q69 58 108.5 129t59.5 178h31z
M346 -639q42 124 62.5 279t11.5 280q-58 -42 -95 -71t-85 -73.5t-84 -94.5t-62 -107q-51 -111 -45 -233q3 -109 56 -157t124 -2t117 179zM236 799q-112 178 -183 315q49 15 82.5 14.5t48 -8.5t29.5 -24q12 -14 24.5 -48.5t19 -61.5t16 -73.5t10.5 -50.5q3 11 17 63t26.5 90
t25.5 60q23 41 54.5 50t111.5 -13q-86 -156 -188 -313q-17 -24 -48 -24t-46 24z" />
    <glyph glyph-name="florin" unicode="&#x192;" horiz-adv-x="483" 
d="M195 -70q123 88 195 188t93 230h33q-41 -254 -321 -454q5 -174 5 -199q-7 -383 -192 -383q-49 0 -80.5 49t-31.5 147q0 101 36.5 173t104.5 131q-2 32 -9 115q-41 529 -29 836q31 826 389 814h9q114 -7 137 -136q24 -135 -53 -331q-78 -198 -204 -322q-48 -47 -97 -75
q-3 -193 15 -783zM395 1546q-109 8 -159 -159q-42 -141 -52 -495l-4 -144q126 80 224 267q93 178 103 335q10 153 -74 188q-17 7 -38 8zM0 -643q12 1 21 13t14 35t8.5 47.5t4.5 59t1 62t-2 64t-3 56t-3 47.5t-2 30q-113 -113 -113 -263q0 -65 23.5 -109.5t50.5 -41.5z" />
    <glyph glyph-name="circumflex" unicode="&#x2c6;" horiz-adv-x="702" 
d="M393 1112q106 -168 182 -315q-49 -15 -82 -14.5t-47.5 8.5t-29.5 24q-12 14 -24.5 48.5t-19 61.5t-16 73.5t-10.5 50.5q-2 -8 -17 -62t-27.5 -91.5t-25.5 -59.5q-23 -41 -54 -50t-111 13q86 156 188 313q17 24 48 24t46 -24z" />
    <glyph glyph-name="caron" unicode="&#x2c7;" horiz-adv-x="720" 
d="M307 799q-106 168 -182 315q49 15 82.5 14.5t48 -8.5t29.5 -24q12 -14 24 -48.5t18.5 -62t16 -72t10.5 -51.5q2 8 17 62t27.5 91.5t25.5 59.5q23 41 54.5 50t111.5 -13q-80 -146 -189 -313q-17 -24 -48 -24t-46 24z" />
    <glyph glyph-name="ring" unicode="&#x2da;" horiz-adv-x="526" 
d="M270 1085q38 0 68 -17t45.5 -44t23 -59.5t0 -65.5t-23 -60t-45.5 -44t-68 -17q-45 0 -80.5 17t-53 44t-25.5 59.5t1 65.5t27 60t53 44t78 17zM289 813q32 -1 54 23.5t26.5 59.5t-1 70.5t-27 60t-52.5 24.5q-29 0 -48.5 -24.5t-24.5 -59t-0.5 -69.5t24 -59.5t49.5 -25.5z
" />
    <glyph glyph-name="tilde" unicode="&#x2dc;" horiz-adv-x="616" 
d="M496 1149q7 -22 4 -57q-2 -51 -25 -100t-67 -52q-39 -3 -66 13.5t-39.5 37.5t-32.5 39t-45 19q-43 1 -65.5 -34.5t-12.5 -76.5q-16 -12 -18 2q-6 37 2.5 86t35 90.5t66.5 40.5q30 -1 52 -18t34 -37t35 -36.5t54 -16.5q15 1 26.5 3.5t18.5 8.5t12 10t7.5 14.5t3.5 14.5
t2.5 18.5t2.5 18.5q2 15 11 15q3 -1 4 -3z" />
    <glyph glyph-name="hungarumlaut" unicode="&#x2dd;" horiz-adv-x="788" 
d="M190 1096q14 41 49.5 50t135.5 9q-16 -50 -40 -107t-55 -124.5t-47 -106.5q-9 -23 -26.5 -30t-67.5 -7q12 46 22 153t29 163zM469 1096q14 41 49.5 50t134.5 9q-16 -50 -40 -106.5t-54.5 -125t-46.5 -106.5q-9 -23 -26.5 -30t-67.5 -7q12 46 22 153t29 163z" />
    <glyph glyph-name="endash" unicode="&#x2013;" horiz-adv-x="1105" 
d="M203 741q260 2 715 2q-12 -51 -17 -55t-55 -4q-434 0 -686 -2q6 25 18 42t25 17z" />
    <glyph glyph-name="emdash" unicode="&#x2014;" horiz-adv-x="1269" 
d="M203 762q260 2 868 2q-3 -11 -5.5 -25t-4 -19t-3 -12.5t-4 -8.5t-4.5 -4t-7.5 -2t-10 0.5t-14.5 0t-19 0.5q-587 0 -839 -2q7 27 19 48.5t24 21.5z" />
    <glyph glyph-name="quoteleft" unicode="&#x2018;" horiz-adv-x="499" 
d="M236 1630q38 0 66 -27t28 -65t-28 -66t-66 -28q-105 0 -91 145q6 65 37 118.5t82 72.5q11 3 16 -4t7 -23q-2 0 -7 -1t-8 -1q-51 -26 -69 -127q15 6 33 6z" />
    <glyph glyph-name="quoteright" unicode="&#x2019;" horiz-adv-x="456" 
d="M223 1597q-38 0 -66 27.5t-28 65.5t28 66t66 28q104 0 90 -146q-7 -65 -37 -118t-81 -72q-11 -3 -16 4t-7 23q2 0 6.5 1t7.5 1q25 13 43.5 48t26.5 79q-17 -7 -33 -7z" />
    <glyph glyph-name="quotesinglbase" unicode="&#x201a;" horiz-adv-x="466" 
d="M223 193q31 0 52 -14t29 -35.5t11.5 -47t-0.5 -49.5q-7 -65 -37 -118.5t-81 -71.5q-13 -3 -18 3.5t-5 20.5l12 4q25 13 44.5 48.5t27.5 78.5q-15 -6 -35 -6q-38 0 -65 27t-27 65q0 39 27 67t65 28z" />
    <glyph glyph-name="quotedblleft" unicode="&#x201c;" horiz-adv-x="724" 
d="M231 1630q39 0 67 -27t28 -65t-28.5 -66t-66.5 -28q-104 0 -90 145q6 65 37 118.5t82 72.5q11 3 16 -4t7 -23q-2 0 -7 -1t-8 -1q-51 -26 -69 -127q15 6 32 6zM471 1630q38 0 66 -27t28 -65t-28 -66t-66 -28q-31 0 -52 14t-29 35t-11 46.5t2 49.5q6 65 37 118.5t82 72.5
q11 3 15.5 -3.5t6.5 -23.5q-2 0 -7 -1t-7 -1q-25 -13 -43.5 -48t-26.5 -79q15 6 33 6z" />
    <glyph glyph-name="quotedblright" unicode="&#x201d;" horiz-adv-x="714" 
d="M469 1597q-38 0 -66 27.5t-28 65.5t28 66t66 28q104 0 90 -146q-6 -65 -37 -118t-82 -72q-11 -3 -15.5 3.5t-6.5 23.5q2 0 6.5 1t7.5 1q25 13 43.5 48t26.5 79q-18 -7 -33 -7zM229 1597q-38 0 -66 27.5t-28 65.5t28 66t66 28q41 0 63.5 -24.5t27 -55t-0.5 -66.5
q-7 -65 -37 -118t-81 -72q-11 -3 -16 4t-7 23q2 0 7.5 1t7.5 1q51 26 69 127q-18 -7 -33 -7z" />
    <glyph glyph-name="quotedblbase" unicode="&#x201e;" horiz-adv-x="700" 
d="M223 193q31 0 52 -14t29 -35.5t11.5 -47t-0.5 -49.5q-7 -65 -37 -118.5t-81 -71.5q-13 -3 -18 3.5t-5 20.5l12 4q25 13 44.5 48.5t27.5 78.5q-15 -6 -35 -6q-38 0 -65 27t-27 65q0 39 27 67t65 28zM463 193q31 0 52 -14t29 -35.5t11.5 -47t-0.5 -49.5q-6 -65 -38 -118.5
t-83 -71.5q-11 -3 -15.5 3t-6.5 21l14 4q25 13 44.5 48.5t27.5 78.5q-15 -6 -35 -6q-38 0 -65 27t-27 65q0 39 27 67t65 28z" />
    <glyph glyph-name="bullet" unicode="&#x2022;" horiz-adv-x="645" 
d="M317 373q51 0 87 -34.5t36 -82.5q0 -46 -36 -79.5t-87 -33.5q-49 0 -83.5 33.5t-34.5 79.5q0 48 34.5 82.5t83.5 34.5z" />
    <glyph glyph-name="ellipsis" unicode="&#x2026;" horiz-adv-x="1007" 
d="M248 193q38 0 66 -28.5t28 -66.5t-28 -65t-66 -27t-65 27t-27 65q0 39 27 67t65 28zM496 193q38 0 66 -28.5t28 -66.5t-28 -65t-66 -27t-65.5 27t-27.5 65t27.5 66.5t65.5 28.5zM752 193q38 0 66 -28.5t28 -66.5t-28 -65t-66 -27t-65.5 27t-27.5 65t27.5 66.5t65.5 28.5z
" />
    <glyph glyph-name="perthousand" unicode="&#x2030;" horiz-adv-x="1871" 
d="M1262 1757q2 4 6.5 6.5t11.5 3t12 1t14.5 0t12.5 -0.5q-593 -966 -1135 -1841q-2 -4 -6 -6.5t-10.5 -3t-11.5 -1t-14.5 0t-14.5 0.5q174 281 1135 1841zM420 950q-68 0 -120 41t-77.5 106t-35.5 144t5 158t44 144t82 106t118 41h10q98 0 142 -70t33 -172q-2 -13 -14 -13
q-10 0 -9 13q10 95 -27.5 159.5t-124.5 67.5q-49 -1 -87 -53.5t-57 -131t-22 -170t10.5 -170t48.5 -132t85 -55.5q102 4 162 115t50 222.5t-79 118.5q-10 2 -7 9q4 5 17 4q79 -6 91 -126t-53.5 -238t-176.5 -118h-8zM1675 510q79 -5 91 -124.5t-53.5 -237t-176.5 -117.5h-10
q-68 0 -119.5 40.5t-76.5 105.5t-35 143.5t5 157.5t44 144t82 105.5t118 40.5h10q99 0 142.5 -69.5t32.5 -172.5q-1 -8 -7 -11t-11.5 1t-4.5 12q10 94 -27.5 159.5t-124.5 68.5q-42 -1 -76.5 -41t-54 -102.5t-30 -137.5t-5 -150.5t20.5 -138t47.5 -102.5t75.5 -41
q102 3 162 114t50 223t-79 118q-9 2 -7.5 7.5t17.5 4.5zM1090 510q80 -5 92.5 -124.5t-53.5 -237t-177 -117.5h-10q-94 0 -155.5 76t-72.5 184t7.5 216.5t83.5 184.5t156 76h8q100 0 142.5 -69t31.5 -173q-1 -8 -7 -11t-11.5 1t-4.5 12q11 94 -26.5 159.5t-124.5 68.5
q-42 -1 -76.5 -41t-54 -102.5t-30 -137.5t-4.5 -150.5t21 -138t47.5 -102.5t75.5 -41q101 3 161 114t50.5 223t-78.5 118q-8 1 -9 6q-1 8 18 6z" />
    <glyph glyph-name="guilsinglleft" unicode="&#x2039;" horiz-adv-x="995" 
d="M168 834q310 393 592 757q0 -16 1.5 -38.5t2 -34.5t0 -25.5t-2.5 -22t-7 -14.5l-535 -684l569 -573q6 -6 9.5 -12.5t5.5 -12.5t2.5 -18t0.5 -22t0.5 -32.5t0.5 -40.5l-633 641q-17 15 -18.5 64.5t12.5 67.5z" />
    <glyph glyph-name="guilsinglright" unicode="&#x203a;" horiz-adv-x="946" 
d="M799 834q14 -18 12.5 -67.5t-18.5 -64.5l-633 -641v48.5t0.5 34.5t2 24t5 17t10.5 14l570 573l-535 684q-5 6 -7 14.5t-2.5 22t0 25.5t2 34.5t1.5 38.5q282 -364 592 -757z" />
    <glyph glyph-name="Euro" unicode="&#x20ac;" horiz-adv-x="1353" 
d="M1012 1772q90 -3 149 -68.5t56 -175.5q0 -7 -7.5 -13t-15.5 -3t-8 16q4 94 -47 154.5t-129 60.5q-77 -1 -143.5 -57t-115 -153.5t-82.5 -221.5t-51 -267h246q-4 -13 -7.5 -29t-5.5 -21.5t-5 -13t-8.5 -9t-14 -3t-22.5 -1.5h-191q-11 -127 -8 -271h238q-4 -12 -7 -25.5
t-5 -20t-3.5 -13.5t-5 -9.5t-5.5 -5.5t-10 -3t-13.5 -0.5t-20.5 -0.5h-164q8 -142 33.5 -265t68 -220t106.5 -154t142 -59q65 -3 123 38t95 122q7 19 22 21q10 1 11 -10q0 -7 -3 -17q-32 -91 -98 -136t-150 -47q-122 -2 -222.5 55.5t-168.5 159t-110 231.5t-58 281
q-86 -2 -260 -2q20 78 37 78q145 0 217 2q-6 142 8 269h-237q20 77 35 77h213q19 121 53.5 229.5t87.5 202t120 160.5t154.5 104t186.5 34z" />
    <glyph glyph-name="minus" unicode="&#x2212;" horiz-adv-x="1347" 
d="M203 762q260 2 1005 2q-14 -59 -20 -65.5t-36 -5.5q-12 1 -22 1q-724 0 -976 -2q6 25 21 47.5t28 22.5z" />
    </font>
</defs>
</svg>
